/* XPM */
static char *_8164047d2724f7198ac9631ff671257pZy9r6Fpw647d6AO[] = {
/* columns rows colors chars-per-pixel */
"50 50 70 1 ",
"  c #7A8F43",
". c #7A8F49",
"X c #71893E",
"o c #6E8838",
"O c #788A4A",
"+ c #7C9142",
"@ c #748A3E",
"# c #778D41",
"$ c #79903F",
"% c #7A8B45",
"& c #748D3D",
"* c #809544",
"= c #7D8C4B",
"- c #7F8F4B",
"; c #678235",
": c #84915C",
"> c #7D8A54",
", c #728644",
"< c #6E8A33",
"1 c #6D853D",
"2 c #768C46",
"3 c #7F9051",
"4 c #838F57",
"5 c #768844",
"6 c #7D9146",
"7 c #748A43",
"8 c #718938",
"9 c #738D35",
"0 c #778E3D",
"q c #809455",
"w c #7C943F",
"e c #819249",
"r c #6B8140",
"t c #6E8542",
"y c #7F944D",
"u c #6B8732",
"i c #6B8538",
"p c #657E39",
"a c #828B54",
"s c #7B8A4E",
"d c #7D8D4F",
"f c #65832F",
"g c #778C4C",
"h c #778E39",
"j c #7D8E53",
"k c #7A9050",
"l c #7B8E3E",
"z c #788850",
"x c #84984A",
"c c #74874A",
"v c #849550",
"b c #68813C",
"n c #6E8147",
"m c #748938",
"M c #75854D",
"N c #858E51",
"B c #808B5A",
"V c #627B36",
"C c #818C4F",
"Z c #83993F",
"A c #848D60",
"S c #84975F",
"D c #5F7E29",
"F c #879456",
"G c #8C9868",
"H c #8A9E4A",
"J c #7A9239",
"K c #7F874F",
"L c #899A52",
"P c #8C995F",
/* pixels */
":rfXj0+mww@6.t5rcqS h8198m;#90o&b1,556x*u<mOAGwvt7",
"q<iO-Zx w*aa6HwO4de-Ozm<<*&9;1S3nrc;7+*fmw#2yv&<Vb",
"m*%%hhh@Dy:AOJ9h:K-#qG-C%-aMtrccbbuo3.#;++1 .;b;b1",
"O#$elu$xkzs:+%%+6+e6Xccr5:>.uV#Nipr1jvN:-@&s*xOrcn",
"tgZ X$u+6ga%sO +l. 4l5=;pits:75Ce;zyu76qB=44$Jh:3c",
"kS,n;,7$s*H+>kS.0@$%@pN@pnO4a4jX$8AyXt>8o-C-%%ldCc",
";<orp#O-:0w9NC=4XD0%npbx&.%ykpz3dgbpMkzbV7 rr$<@dj",
"X0@rfeaa-.%w3CqjrVbjAzc6a:aepr,qg5ibS:tOupp;,5+Diz",
"d*.1tOO6 4#.4#c57pMkHyk6-*zCu7:2@aNz1i5NPan5N.0i;c",
",l5z3Orpi=>j.tXCC5aOy+ef@m75Gk>3.>.rr82gKayccmo2iM",
"ui>BxCejtgS3uX3K $@ $%oo*8nkS%4M,0dA@hh*O=g>3e#*w;",
"uD3O&3:N3v$o8Sqj5f9JeLZ<90#3%-C;iu2N4==FqgXOh8#vXX",
"7kj-v 7dqOm>&,,cb;v*fwZ9lo<xd.Fo,5<+3:c2:k.w9XAGw$",
"&Msaa7dO>O0-X$s%f;7$iX.%*8m+sO3Xk@2: <=4Bk.%o->3hm",
"$<8#=-OzyP0mXvCe1;o +@M4a#8JxAq1,,3c,szzBq<y-3g7#+",
"1%1G%@5qh+O%$*<i1;+o;Vn-e$<hx&2yinX#%N@M:yy3+xfDl0",
"NK,q#Vrni7>$8vy087o>nbe9hwq-1X8OzV2zX6%l.tjg%9uu6%",
"&Xn4K42k3tr#5G*f@-D7ztxw% gq1n9h%oe#uf+&;rzS9#6XhM",
"VVn3F:a=:Opcds1f 2. kyd2 a.;Vt>2$5K6;;oDVpMB +C,AM",
"nte<l+@>:-8i##&cB7.-+or:=qg,m&FFw,2&-Ckoo1z+bV;7Sn",
"r.H0l+2sKBj% hijjs:N o<FNL,=6ww8o& =#qk,N=@&n11&yz",
"y6w$dib>F3q>X#@-qyZ#&ih &V+Jwsd*o24a=v>@52*Xo0+jqk",
"XCB$3,1+<hPB9%d0&g< * o8;ti&GA=*&tzv&=@f019foL-7e@",
"Vo:4#wf<3,0++dj>Akl#3Ph$1nXw-tw.;V=<l$Xo oeXD*Hm8i",
"tXNax526ji0eo235+s39MA1;q3P*#*9spr4>%-44<<l@,wZ99&",
"%*tX.sd>v4:-3O$2sj2 6OO4Aa-%m-adjB>dgs=  9@.c7+u9&",
"JZ&f96+A4=vsL=g:B :::e=$&O@34gOsdy3O&.6e mNO2&m+88",
"9xL*uof2sbbr.#tj4q=#jj4O0B%zz;p,wP4>:=-v07Fif+oyoD",
"9m6$9fDf%%bi;pXyq>g#1t#%04>3pV1uPAnw=N-A*3e7i8<+#1",
"76hmxL0#-KpV,r :OaMptp8*m9:kf3,w75ppt g:BO,pc@,1ui",
"i@lh=e L%Anbyxa4#s@;,rbXyFd,5P2hJ- rM#g>=2dziyKsbu",
"6xys1X51&Sz,6*e$.g#$0>MzAKjs=5o9Ji5s2@nr1.6eOe-:Ax",
"eG>OhD;qo1kv6X;yP>bfrGP.v67>1+s%s%D +pib;F:#7+# & ",
"8cd5*8i+@XX..4*eBs&fzGvzz<edo.O 34g0%4yi1s gbiu1m6",
"8XCC2#  ,SD#gj% 8u$#js23G%$*N#$=:daat0 %z,1=@VnrX3",
">g,s811Nc2<@t+X@608,757wL6e=a. =Fg>>p5+7>Gy,+XX7.s",
"%Sjo0688b8upo6js@6w7z>889%.y:uD@96vMrz5w3a#fuLNM4j",
"gS2i&loVr00t%:5B3;fqjs>10%$#>Df60@*1Xy+m66iSyHwSSg",
"q>>r$f;ni#x3>32Ow&&$dO046<Zxeo<l%N5tG*k#0hw$6ZJkg5",
"j%>*Hfbg<$GA2q-0ZHL*a:vKFO-tcq6=,0ck-yB4h05*a+@5,K",
"A#7eL+7q x#1vx*89w5#OdCvMrprMg>>pVpBaK=4Z*3s7meirv",
"a.=56f;q  6J GO<<=e;f;#2Du;pB1-zrbs%vO2%#eN,p@-br%",
"6dFxw0#.$u%jc.iydd3.gB0h@@++6< >byZ<l96.4d:eo,=5t4",
"d=zqguX8,P#sghqBBz6jnnM%+D L5h2y.*Z#l$otO0>Nyg2@te",
"4&O4 9e9-q<i;1kq@d-7bV8N@;$Hlhiwv>&%%fi&#>5q=Fvip2",
"-4j4uu Dm<ppOy<>:B$H=pXKyG*Z9u1F+Bq=6u#@8a:qj%d7,a",
"@cktm$ f*x&h.k7e3 $J$Mgt7g20uJx6&FK*H9u9h .yOj#0J*",
";osoo@xZH-y60s5#73OhlFdS25,llu@7,BNxJhm81foes>s+<@",
"t,=X$ #wwi .jdip,%$#hKN7X-Norn#%st$wx@+&X*L6s$62S&",
"k86m@ l<<ulqcnp;Ot2g03Osvqd8;i0l1;99Z=+@+Z-y2o @2."
};
