/* XPM */
static char *_66635c65a5043e3a37dad2473b5b1beqzPdaGy30VQMkI1z[] = {
/* columns rows colors chars-per-pixel */
"50 50 152 2 ",
"   c None",
".  c #040404",
"X  c #050807",
"o  c #0F0E07",
"O  c #0D0C0D",
"+  c #0C1815",
"@  c #051D16",
"#  c #141414",
"$  c #1E1D15",
"%  c #121B19",
"&  c #1C1C1C",
"*  c #211E10",
"=  c #0F251F",
"-  c #292512",
";  c #1E2120",
":  c #152D26",
">  c #0C3126",
",  c #09392C",
"<  c #1E332E",
"1  c #103A2E",
"2  c #222222",
"3  c #2C2C2B",
"4  c #2D302F",
"5  c #223431",
"6  c #333333",
"7  c #333938",
"8  c #3D3C3C",
"9  c #3B3A35",
"0  c #453E1E",
"q  c #0A4131",
"w  c #0A4D3B",
"e  c #124637",
"r  c #04543D",
"t  c #24493E",
"y  c #4A452A",
"u  c #524C2E",
"i  c #5B5226",
"p  c #5B532C",
"a  c #45443C",
"s  c #534F39",
"d  c #554F33",
"f  c #5B5534",
"g  c #5A553A",
"h  c #5F5938",
"j  c #665C2B",
"k  c #6D6330",
"l  c #6A633E",
"z  c #746931",
"x  c #7A6F34",
"c  c #766C38",
"v  c #0F5641",
"b  c #075B44",
"n  c #185F4B",
"m  c #2D4D45",
"M  c #384B46",
"N  c #24594A",
"B  c #285E4F",
"V  c #2A514B",
"C  c #08684D",
"Z  c #06664B",
"A  c #006F53",
"S  c #1E6E59",
"D  c #0F7055",
"F  c #057D5C",
"G  c #097959",
"H  c #05745A",
"J  c #137259",
"K  c #1D775E",
"L  c #246B59",
"P  c #2F6A5B",
"I  c #2D6354",
"U  c #32695B",
"Y  c #22705C",
"T  c #356F61",
"R  c #247E67",
"E  c #444444",
"W  c #4C4C4C",
"Q  c #4D4B44",
"!  c #4E514F",
"~  c #5B5740",
"^  c #53514C",
"/  c #435852",
"(  c #545454",
")  c #5C5C5C",
"_  c #636363",
"`  c #6B6B6B",
"'  c #737373",
"]  c #7A7A7A",
"[  c #02815E",
"{  c #098160",
"}  c #048B66",
"|  c #048F68",
" . c #058663",
".. c #128967",
"X. c #1A8266",
"o. c #049269",
"O. c #069A73",
"+. c #308571",
"@. c #35937C",
"#. c #38997F",
"$. c #0AA67F",
"%. c #02A377",
"&. c #408E7A",
"*. c #428975",
"=. c #598479",
"-. c #399F86",
";. c #05B283",
":. c #05BB89",
">. c #22AD8E",
",. c #3EA189",
"<. c #5F9F8E",
"1. c #6D8783",
"2. c #699E8F",
"3. c #70968E",
"4. c #40B698",
"5. c #56B89F",
"6. c #7ABCAB",
"7. c #08C18F",
"8. c #08C591",
"9. c #03CB95",
"0. c #1EC297",
"q. c #08E4A8",
"w. c #05EAAB",
"e. c #1BF9BD",
"r. c #2BE7B3",
"t. c #27F5BE",
"y. c #20F9BE",
"u. c #5DDFBE",
"i. c #66C2AD",
"p. c #76D1BD",
"a. c #22FCC0",
"s. c #3FF0C2",
"d. c #4DDDC0",
"f. c #4EE8C5",
"g. c #56FCCF",
"h. c #53F5CB",
"j. c #5AFED3",
"k. c #78F9D7",
"l. c #858585",
"z. c #898989",
"x. c #959595",
"c. c #AFAFAF",
"v. c #A0B9B4",
"b. c gray72",
"n. c #86C6B6",
"m. c #90C0B5",
"M. c #89DDCD",
"N. c #91D7C9",
"B. c #AFCDC9",
"V. c #A8D2CD",
"C. c #8FE9D5",
"Z. c #A4E5D7",
/* pixels */
"                                                                                                    ",
"                                                                                                    ",
"                                                                                                    ",
"                                                                                                    ",
"                                                                                                    ",
"                                                                                                    ",
"                                                                                                    ",
"                                                                                                    ",
"                                                    y                                               ",
"                                                0 k x c l a 2 X                                     ",
"                                              - i j z x z h 8 & #                                   ",
"                                              * u p f f i u 6 & #                                   ",
"                                              $ s g ~ g g Q 3 # #                                   ",
"                                              * d f p f ^ 2 X & &                                   ",
"                                            E 6 9 ^ ^ Q 4 O . 2 & o                                 ",
"                                            ( 6 4 & & # O 2 ` ] 8 -                                 ",
"                                          3 3 6 8 2 & 2 2 ` c.b.z.3                                 ",
"                                          O 2 8 6 6 3 E 8 ' ' ' ) 2                                 ",
"                                          . & 4 6 3 8 W 6 2 2 2 & #                                 ",
"                                            2 & 6 2 8 8 3 # & 2 2 #                                 ",
"                                          3 ! & 6 * 4 6 3 & 2 E 8 3                                 ",
"                          { F  .o.          & # 6 ; 8 ! ) 6 W l.z.` &                               ",
"                1 L T =.6.2.<.*.Y X.b {   1 7 ; 6 ; 8 E ( 6 ` z.z.' ;                               ",
"            C t 1.V.C.k.k.g.j.h.f.d.-.n r I M 3 4 & 4 6 3 & ) l.z.(                                 ",
"            v 1.B.i.0.8.q.w.w.7.;.>.,.-., N 5 # 2 3 3 2 O # 2 8 8 2                                 ",
"            Z m m G [ , r J @.U > w 1 = @ % # O & 2 3 2 2 & 2 & & 2 & ; _ 8 O .                     ",
"              o.o.:.O.q & 3 ( ) E ! 3 O 2 8 6 4 E E ) ( & 2 2 2 ; 8 8 4 z.` & X                     ",
"              O.[ ;.;.b @ > L N 5 V : . + < % # # # & 2 # & # # #                                   ",
"            | P / X.[ r } :.9.O.A H X.+.J     # # # & 2 2 # # O                                     ",
"            o.&.v.Z.u.r.a.e.e.y.t.f.f.#.w     # # & 2 2 2 & # O                                     ",
"              G B 3.m.n.N.M.M.p.5.4.R b |     2 2 # & 2 2 & & O                                     ",
"                  { ..K U &.@.L C }           ) ' 2 6 E 2 & #                                       ",
"                                              9 ( 6 ' x._ 3 2 O                                     ",
"                                              & E ( E ' ) ( _ *                                     ",
"                                                E _ 6 8 ) ] l.(                                     ",
"                                              O 6 ( 6 E _ ] l._                                     ",
"                                          # & & & 2 & E ` ' ' !                                     ",
"                                        % & & & & & # E ` ' ) 3                                     ",
"                                        O # # # # # O 8 ( ) E &                                     ",
"                                                  O & 2 ; ; & O                                     ",
"                                                & ; 2 2 & & & #                                     ",
"                                              % 2 2 - & # & % #                                     ",
"                                              # % & # # # #                                         ",
"                                                                                                    ",
"                                                                                                    ",
"                                                                                                    ",
"                                                                                                    ",
"                                                                                                    ",
"                                                                                                    ",
"                                                                                                    "
};
