/* XPM */
static char *_9eab34ba59b4515cbbded3d2b18727f5ZCHwZBtvuoUwnu2[] = {
/* columns rows colors chars-per-pixel */
"50 50 150 2 ",
"   c None",
".  c #060606",
"X  c #0C0C0C",
"o  c #100F0F",
"O  c #18160F",
"+  c #141414",
"@  c #151C1A",
"#  c #1B1C1B",
"$  c #201D0E",
"%  c #332F1D",
"&  c #39341C",
"*  c #07382C",
"=  c #1E302A",
"-  c #242424",
";  c #272828",
":  c #2B2B2B",
">  c #23332F",
",  c #343125",
"<  c #30302F",
"1  c #39372D",
"2  c #3D3A2F",
"3  c #2F2F30",
"4  c #2D3835",
"5  c #343434",
"6  c #383737",
"7  c #373738",
"8  c #3C3C3C",
"9  c #433F2B",
"0  c #403F3A",
"q  c #014130",
"w  c #0B4334",
"e  c #034E3A",
"r  c #0A4C3A",
"t  c #174337",
"y  c #18473A",
"u  c #09543F",
"i  c #02513B",
"p  c #29483F",
"a  c #544C24",
"s  c #5E5527",
"d  c #5C542C",
"f  c #454334",
"g  c #5A5331",
"h  c #565239",
"j  c #5A5539",
"k  c #665C2B",
"l  c #6D632E",
"z  c #71662F",
"x  c #69623D",
"c  c #776C33",
"v  c #7F7336",
"b  c #7C713A",
"n  c #085F46",
"m  c #055347",
"M  c #1B5C4A",
"N  c #384C46",
"B  c #09624A",
"V  c #00694C",
"C  c #0C684E",
"Z  c #1B644F",
"A  c #056E53",
"S  c #037455",
"D  c #057D5B",
"F  c #087A5D",
"G  c #18765D",
"H  c #206956",
"J  c #246E59",
"K  c #2A6F5B",
"L  c #0E7E60",
"P  c #197C60",
"I  c #297C65",
"U  c #337966",
"Y  c #444444",
"T  c #4B4B4B",
"R  c #504F4D",
"E  c #575441",
"W  c #5C5841",
"Q  c #4A5754",
"!  c #545454",
"~  c #5B5B5B",
"^  c #45625C",
"/  c #4C615C",
"(  c #546965",
")  c #5A7B73",
"_  c #636363",
"`  c #6B6B6B",
"'  c #737373",
"]  c #7B7B7B",
"[  c #04805E",
"{  c #088764",
"}  c #038B65",
"|  c #03936C",
" . c #0B946E",
".. c #059E74",
"X. c #179170",
"o. c #39826D",
"O. c #39997F",
"+. c #06A277",
"@. c #08A076",
"#. c #05AC7F",
"$. c #488775",
"%. c #359E81",
"&. c #06B384",
"*. c #05B989",
"=. c #11BF90",
"-. c #26AE89",
";. c #3EAF98",
":. c #528D81",
">. c #698A84",
",. c #738885",
"<. c #4CAD97",
"1. c #74A39A",
"2. c #44BCA2",
"3. c #6EACA0",
"4. c #6DB2A0",
"5. c #07C692",
"6. c #08C693",
"7. c #1AC295",
"8. c #06D59C",
"9. c #06DEA2",
"0. c #3DC5A6",
"q. c #06EAAB",
"w. c #19FBBE",
"e. c #1AF7BB",
"r. c #24E6B6",
"t. c #30F4BF",
"y. c #4CD6B6",
"u. c #55DEBC",
"i. c #6CD2B9",
"p. c #3CE5C1",
"a. c #2BFBC3",
"s. c #55F1C8",
"d. c #5AF9D2",
"f. c #62F1CF",
"g. c #62FAD4",
"h. c #6CFCD7",
"j. c #77F2D1",
"k. c #838383",
"l. c gray55",
"z. c #8A9E99",
"x. c #979797",
"c. c gray60",
"v. c #80AEA6",
"b. c #87BEB1",
"n. c #A9A9A9",
"m. c #BBBBBB",
"M. c #A6C5C2",
"N. c #83E4CA",
"B. c #A4ECDC",
"V. c #AAEADF",
/* pixels */
"                                                                                                    ",
"                                                                                                    ",
"                                                                                                    ",
"                                                                                                    ",
"                                                                                                    ",
"                                                                                                    ",
"                                                                                                    ",
"                                                                                                    ",
"                                                                                                    ",
"                                                                                                    ",
"                                                                                                    ",
"                                                                    D | B G K U O.Z F               ",
"                                                                [ u H <.<.i.N.N.B.b.v.>.p r         ",
"                                                                q O.y.p.r.e.w.w.a.t.f.V.M.^ C       ",
"                                          X X                   * K M V e X.=.&.| V | I ,.^ B       ",
"                          . - ' k.- 6 5 # # # # # ~ ! Y 6 ; : : + X = N 4 ( / > @ w ..| r B ..      ",
"                          . + T ~ # 5 - + # - # + Y Y 6 6 ; : 5 # . 4 Q Y Q N - @ B &.5.            ",
"                                      X O & 9 1 5 +             w t w m * { ..S * i ..D y G *.      ",
"                                    5 , a c v b x 8 # .       *.Z 2.0.7.5.9.q.q.8...-.4.z.o.}       ",
"                                  # 3 & s k z c l h 7 + o     @.u H 2.u.s.d.d.g.h.j.B.M.) P         ",
"                                  T ! < g d j g s f 3 + +       5.} L P U :.3.1.>.$.$.G S           ",
"                                  T ' 9 j j j j E 6 - + X                                           ",
"                                  - 7 , h g g W 0 + X - +                                           ",
"                                  + 8 ; 8 R T 0 # o . - +                                           ",
"                                  - Y 7 ; + + X ; ` ' Y # $                                         ",
"                                  o : 0 3 ; - : ' m.n.] : o                                         ",
"                                  o : 8 3 3 5 Y ~ x.k.T - # +                                       ",
"                                    : : 6 : T Y 7 ( Y - # # # # +                                   ",
"                                    + ; : ; 0 7 ; 5 ; # + # # # - #                                 ",
"                                    + - ; - 5 5 < 5 5 #   X # T ` ' T                               ",
"                                    X - ; ; Y ~ ! Y 8 -     : k.c.x.'                               ",
"                                    : ; - ; 7 Y T R R ;       ! k.' ! :                             ",
"                                    5 : ; - 5 : ; ; ; +       + - - - + X                           ",
"                                    X + ; : # - 5 5 # o         # - # # + X                         ",
"                                  X + + # # + # + + o           # # # # +                           ",
"                                X # + + + # # # + # + X           + # +                             ",
"                              # + # # + + + + # # # + + +                                           ",
"                            ! _ 5 + + # + + X # 7 T Y T ~ ' !                                       ",
"                          5 ] ] 5 X + + X X   + Y k.] ' ` ] l._                                     ",
"                        3 _ ` ! 8 # X             T ! ! _ _ ] l._                                   ",
"          X + +       8 _ _ ! T Y #                   ; Y ! _ ' ` 5                                 ",
"          + # # # + # T ~ ! Y 8 ;                       # 6 T _ ' ! -                               ",
"          + # # # # + # 5 5 - #                           # 6 Y Y - + #                             ",
"            X X # + + + + X                                 + # # + + + X                           ",
"                X X + X .                                 X # # # # + X                             ",
"                    X .                                 X # - # # +                                 ",
"                                                        X + # + X                                   ",
"                                                            +                                       ",
"                                                                                                    ",
"                                                                                                    "
};
