/* XPM */
static char *b17d2572cee143c8e32d1dad99cba896WkEO6jPCm7qkQny4[] = {
/* columns rows colors chars-per-pixel */
"50 50 189 2 ",
"   c None",
".  c #003E33",
"X  c #175D1D",
"o  c #195E1B",
"O  c #1E6316",
"+  c #1B6119",
"@  c #1E741F",
"#  c #266C0F",
"$  c #296F0D",
"%  c #2F7507",
"&  c #2C720A",
"*  c #2E7A0B",
"=  c #317706",
"-  c #367D01",
";  c #387F00",
":  c #327D09",
">  c #216614",
",  c #246B12",
"<  c #277813",
"1  c #237619",
"2  c #337F14",
"3  c #04472F",
"4  c #054A2D",
"5  c #094E2D",
"6  c #0E5325",
"7  c #0C532C",
"8  c #0F582C",
"9  c #115623",
"0  c #145921",
"q  c #13562F",
"w  c #115B2C",
"e  c #195B2F",
"r  c #014533",
"t  c #094734",
"y  c #034B33",
"u  c #094B33",
"i  c #004F38",
"p  c #0C4A39",
"a  c #124C3C",
"s  c #184F3E",
"d  c #055234",
"f  c #0C5231",
"g  c #0D5C32",
"h  c #00543A",
"j  c #015C3E",
"k  c #115430",
"l  c #125D32",
"z  c #1A5D34",
"x  c #145239",
"c  c #1C5A3C",
"v  c #255B3F",
"b  c #17612E",
"n  c #1B642E",
"m  c #156E29",
"M  c #1C6B2F",
"N  c #1D7420",
"B  c #17732B",
"V  c #1C762C",
"C  c #0B6235",
"Z  c #0C6E36",
"A  c #05653E",
"S  c #0A6539",
"D  c #076C3D",
"F  c #146233",
"G  c #1B6530",
"H  c #1D6D32",
"J  c #106B3C",
"K  c #0F723F",
"L  c #1E7034",
"P  c #1F7B37",
"I  c #14733C",
"U  c #17783E",
"Y  c #1B793B",
"T  c #26672D",
"R  c #27682C",
"E  c #2A6D2C",
"W  c #267A20",
"Q  c #2D732A",
"!  c #267D2B",
"~  c #33752A",
"^  c #337C2B",
"/  c #3B7D29",
"(  c #216E32",
")  c #2D693F",
"_  c #237533",
"`  c #287736",
"'  c #257C35",
"]  c #297D34",
"[  c #2D723D",
"{  c #217D38",
"}  c #2C7A39",
"|  c #1C5141",
" . c #255545",
".. c #295747",
"X. c #255942",
"o. c #295A44",
"O. c #255F49",
"+. c #2C5A49",
"@. c #315B4B",
"#. c #016442",
"$. c #0C6746",
"%. c #026B45",
"&. c #096E43",
"*. c #126346",
"=. c #196145",
"-. c #1D6249",
";. c #0C7141",
":. c #2D6345",
">. c #2F6942",
",. c #306047",
"<. c #398000",
"1. c #30801A",
"2. c #2F8022",
"3. c #2D812C",
"4. c #3E8427",
"5. c #37802E",
"6. c #3F822A",
"7. c #3D8D2E",
"8. c #278036",
"9. c #2B8235",
"0. c #2F8836",
"q. c #278338",
"w. c #328532",
"e. c #358A33",
"r. c #3B8D30",
"t. c #75B51F",
"y. c #78B71E",
"u. c #78B81F",
"i. c #448627",
"p. c #478A27",
"a. c #4D8E26",
"s. c #418328",
"d. c #4B8D28",
"f. c #4E9027",
"g. c #45942E",
"h. c #4D972C",
"j. c #4D992B",
"k. c #539425",
"l. c #569925",
"z. c #5B9C23",
"x. c #5F9F23",
"c. c #5D9E23",
"v. c #5C9D24",
"b. c #509729",
"n. c #509B2A",
"m. c #519C29",
"M. c #539D29",
"N. c #539E29",
"B. c #549D28",
"V. c #569F28",
"C. c #559F29",
"Z. c #549F29",
"A. c #4A9830",
"S. c #5FA023",
"D. c #58A027",
"F. c #5CA125",
"G. c #5DA426",
"H. c #5CA326",
"J. c #57A028",
"K. c #57A129",
"L. c #58A028",
"P. c #5FA428",
"I. c #62A322",
"U. c #65A522",
"Y. c #67A722",
"T. c #61A725",
"R. c #62A624",
"E. c #65A823",
"W. c #64A926",
"Q. c #67AA26",
"!. c #64A925",
"~. c #6BAB21",
"^. c #6AAC22",
"/. c #6DAD21",
"(. c #6FAF20",
"). c #6EAF20",
"_. c #6CAE22",
"`. c #6AAC22",
"'. c #70AE21",
"]. c #6FB021",
"[. c #6FB021",
"{. c #70B020",
"}. c #71B121",
"|. c #72B220",
" X c #73B320",
".X c #72B320",
"XX c #71B220",
"oX c #74B420",
"OX c #73B320",
/* pixels */
"                                                                    k f                             ",
"                                                                  E Q.p.u                           ",
"                                                                5 U.t.t.s.                          ",
"                                                                t U.t. X(.k                         ",
"                          5 0 y       r               r r r     r ~ t.}.(.q                         ",
"                        5 & = $ 5   5 5 r             Q l.s.r     k (.t.(.q r r r                   ",
"                          o <.- 6 r X = $ 3         E (.t.t.U.~   e _.t.~ q v.x.6.u                 ",
"                          9 = - & 6 = ; = 4         E (.t.t.t.(.E   E t.~.~.t.t.[.e                 ",
"              r 5 6 6 5     + <.= o ; ; $ 3           ~ }.t.t.t.(.e E y. Xt.oXt.x.q                 ",
"            r 6 = ; ; = X 6 6 = ; - - ; 6 r 5 0 9     r / l.t.}.t.E.~ x.t.}.t.oXi.                  ",
"            r $ ; - - ; <.% o & ; - ; # 3 3 # <.- 4     . t a.t.oXt.S.k.y.t.'.a./ e                 ",
"            r 9 = ; - - - - <.- - - = 9 5 , ; - + r     / i.k.t.t.oXoXoXC.~ T t .                   ",
"              r X - - - - - - ; - ; , 3 , - > 6       ~ '.t.t. XZ.(.!.h.g.a.k.k.k.q                 ",
"                  5 > = = - ; - ; ; O + - & 5 r r   E (.t.t.t.M.L.}.[.P.E.t.oXoX}.n r               ",
"            r y r   5 6 X - - - - - = - <.- = = 9   E y.t.t.}.h.!.t.oXS.E. Xt.(._.w.H y             ",
"          y #.%.#.7 > - = ; - ; - : ; ; - - - - & r ~ t.t.t.V.M.t.oXoXV.R.oXt.M.9.9.9.F             ",
"          d %.%.B - ; - - - ; - : B - - - - - ; 6 d 7.(.oXt.G.G.t.t.}.t.t.t.u.m.8.9._ k             ",
"          i #.%.: ; - - ; ; - ; : 1 - - <.* N @ d y H g.K.j.C.oXt.}.t.}.t.V.C.7.9.H F               ",
"            i #.: - - ; - ; ; ; - ; - - - * V &.#.r y l g ' g.t.t.t.t.t.[.w.9.L l r                 ",
"            r i m - - - = - ; ;   - - <.- - <.! &.j l F H ] g.t.t.^.n.t.}.9.g u r                   ",
"    r r y r   r i Z Z Z * ; - <.  - - 1.: - - 2.;.&.] 9.] 9.9.L.t.7.9.7.r.9._ _ g r                 ",
"  h %.#.#.#.h r y #.%.%.: - ; W 3.<.- 2.9.- 2 ] &.;.9.9.9.9._ ` 9.M ' 9.9.8.9.9.' _ y r             ",
"  h %.%.%.%.%.#.d h #.%.< ; : 3.5.- - 2.9.9.8.K %.  ' ] ] _ _ 9.9.M 9.9.9.e.7.w.e.r.5.z             ",
"r j %.%.%.%.%.%.%.#.j %.K 1 9.9.3.- - 2.9.9.I %.%.%.%.I G ( 9.9.9.9._ 8.9._.t.j.L.oXoXoX~           ",
"  h j #.%.%.%.%.%.%.%.%.%.;.9.9.3.1.: ! 9.I A %.;.I ;.F M 9.9.9.9.] ( 7.j.Z.t.G.E.t.}.t.I.k         ",
"      i h j %.%.%.%.%.  %.;.9.9.9.3.5.9.I S Y Y 9.9.9._ 9.9.9.9.9.9.` b.t.H.[.t.t.oXoXt.d.          ",
"        r #.%.%.%.%.%.%.&.Y I { 9.9.9.9.{ ! 9.9.9.9.9.9.9.9._ _ 9.9._ p.t.t.t.t.oXoXt.t.E . r r     ",
"      r #.%.%.%.  %.%.%.Y 9.' 8.I 9.9.9.9.9.9.9.9.9.9.9.9.' w _ 9.7.T.Y.t.}.}.t.oX}.t.t.U.l.l.v.E   ",
"      r #.%.%.%.  %.%.%.{ 9.9.9.8.9.8.9.9.9.9.9.9.9.9.] n w w M 9.T.u.t.t.7.Q t.oXt.}.}.oXoXoXt._.e ",
"      y #.%.%.%.  %.%.%.D { 9.9.9.Y Y 9.{ 9.9.9.' ' M w w w w w _ r.E.t.t.}.}.t.oXt.v.s.v.(.y.t.t.e ",
"      r #.%.%.#.g %.%.%.%.U 9.9.' K 9.9.K 8.9.9.I C w w w w 8 w M _ d.t.}.t.}.t.t.t.S.k . / a.a.f.e ",
"        j #.#.y 8 %.%.%.K 9.9.9.Y Y 9.8.I ' 9.9.9.I e z w w w C C 4.t.}.}.t.y.G.!.t.oXl.e . r . r   ",
"        r i y r 8 %.%.%.  L 9.8.Y 9.9.9.{ 8.9.9.9.` X.@...8 g %.&.[..X.XoX[.e.e.W.oX[.u.f.q         ",
"      f 7 7 f r y S %.%.  b _ 9.9.9.9.9.8.Y 9.9.9.} @.@.@...=.%.%.0..Xt.Q.e.A.P.oXoXt.t.t.f.y       ",
"    r y w w w 7 7 8 C 8   w M 9.9.9.9.9.' J 9.9.9.} @.@.@.@.:.%.%.%.U Y Y K.t.t.oXoX[.t.t.~.7       ",
"      r y 8 8 w w w w w   8 M 9.] 9.9.9.] :.9.9.9.} @.@.@.O.%.%.%.%.%.%.g.t.t.oXt.W.0.u. Xt.a.r     ",
"          r y 7 8 b 8 b   w w b b 9.9.9.} @.>.} }   @.@.@.+.$.%.%.%.%.%.j.u.oXoXoXA.Y _.y.oXl.r     ",
"          y 4 y 4 8 8 8 w w w w z } 9.] ,.+.+...@.@.@.@.+.:.O.$.$.%.%.%.&.K.oXoXG.;.%.q.l.k.s.      ",
"      y 4 7 w w 8 w 8 w 8 7 8 z +.,.[ >.@.+.| | @.@.@.,.*.%.%.%.*.&.%.%.%.;.g.g.U %.%.%.h .         ",
"    u 8 w w w w w w 8 8 u 5 8 X.@.@.@.@.| p | @.@.@.    -.%.%.%.%.%.%.%.%.%.%.%.%.%.#.h i           ",
"  y 8 w w w w w w w w w 7 y x +.@.@.@.@.p t ..@.@.@.@.@.@.  %.%.%.%.%.%.#.h #.#.h h i               ",
"  5 w w w w w w w w w w 8 7 f X.@.+.| p   p @.@.@.@.@.@.@.O.%.%.%.  %.%.i r %.#.i r                 ",
"  u 8 8 8 8 5 r 8 w w w 8 7 y c ..u t   t ..@.@.@.@.@.@.+.$.%.%.%.%.%.%.i r %.%.#.i                 ",
"    3 r r r r y 8 w w w w 7 r u w 7 r   r +.@.@.+.p +.@.@.O.$.#.%.%.%.%.i r %.%.%.#.r               ",
"            r 7 w w 8 7 w w 7 r 8 w 7 r t +.@.@.| r a ..@.+. .*.%.%.%.%.#.i #.#.%.#.r               ",
"            y 7 w w 5 y 8 w 7 r u q 7 y t +.@.+.p     p | s r #.%.#.%.%.%.r #.%.%.%.r               ",
"            7 w w w 5 r 8 8 u     y y   t ..@.@.p       r   d h h i %.%.#.r i %.#.j                 ",
"            y 8 w 7 y r 7 8 u           r p a a                   i %.%.i   y i i                   ",
"            r r y y     r y r                                     r j #..                           ",
"                                                                      r                             "
};
