/* XPM */
static char *_a341bb590784462976dfd7eda7a5b91NcsnlWgtbIP2yxBx[] = {
/* columns rows colors chars-per-pixel */
"50 50 200 2 ",
"   c None",
".  c #211F1D",
"X  c #2F260F",
"o  c #2D2516",
"O  c #25211B",
"+  c #2C231C",
"@  c #322614",
"#  c #3C2B15",
"$  c #36261C",
"%  c #342819",
"&  c #3B2B1C",
"*  c #1F1D20",
"=  c #261F21",
"-  c #2A1F23",
";  c #2D2223",
":  c #272023",
">  c #302124",
",  c #352A22",
"<  c #3C2E23",
"1  c #3A2B28",
"2  c #372A27",
"3  c #3D3124",
"4  c #3C332E",
"5  c #422E1A",
"6  c #462F1A",
"7  c #4C351D",
"8  c #463118",
"9  c #432D23",
"0  c #462827",
"q  c #522C28",
"w  c #423423",
"e  c #4D3C2A",
"r  c #4B3927",
"t  c #563A2A",
"y  c #542B35",
"u  c #552A3C",
"i  c #503F30",
"p  c #663733",
"a  c #77373E",
"s  c #54402B",
"d  c #524230",
"f  c #654B34",
"g  c #6A443B",
"h  c #71413C",
"j  c #623241",
"k  c #6F3348",
"l  c #7D3944",
"z  c #783545",
"x  c #7F2E50",
"c  c #7D3953",
"v  c #6B2B49",
"b  c #654C42",
"n  c #7C4352",
"m  c #78504A",
"M  c #86394D",
"N  c #903F4E",
"B  c #8C3952",
"V  c #AA3D64",
"C  c #A53B62",
"Z  c #814649",
"A  c #854749",
"S  c #884651",
"D  c #9D4259",
"F  c #934E59",
"G  c #944553",
"H  c #885958",
"J  c #915B5D",
"K  c #A2445C",
"L  c #A14C59",
"P  c #A0565D",
"I  c #89675C",
"U  c #9D4860",
"Y  c #9B5C63",
"T  c #9E5664",
"R  c #AE4266",
"E  c #AD4866",
"W  c #AD4A6C",
"Q  c #A84765",
"!  c #B14267",
"~  c #B2466A",
"^  c #B54A6C",
"/  c #BB4D6D",
"(  c #B14D66",
")  c #AD5A66",
"_  c #AE536D",
"`  c #A45B6B",
"'  c #AA5668",
"]  c #B2526C",
"[  c #BB546D",
"{  c #B54D71",
"}  c #B75475",
"|  c #BC5474",
" . c #B15A71",
".. c #BB5C74",
"X. c #BD5A7A",
"o. c #B75B7F",
"O. c #9E6669",
"+. c #9A746A",
"@. c #A9626C",
"#. c #A86368",
"$. c #B36C6E",
"%. c #B46176",
"&. c #B96478",
"*. c #AA7D7E",
"=. c #B5707C",
"-. c #AD6B77",
";. c #C0516F",
":. c #C25473",
">. c #C35976",
",. c #C35C7A",
"<. c #CB5D78",
"1. c #C4617F",
"2. c #CB627C",
"3. c #C96879",
"4. c #D0687E",
"5. c #C3717C",
"6. c #9C817B",
"7. c #BC5F80",
"8. c #BA6784",
"9. c #BD7388",
"0. c #C46482",
"q. c #CB6681",
"w. c #CB6B85",
"e. c #C36989",
"r. c #CB6E89",
"t. c #C76884",
"y. c #D26C85",
"u. c #DD6F82",
"i. c #CC728C",
"p. c #C37687",
"a. c #D4758D",
"s. c #DC798E",
"d. c #DA7689",
"f. c #CD7692",
"g. c #CD7995",
"h. c #D47B93",
"j. c #DA7C91",
"k. c #D27F98",
"l. c #E17A8B",
"z. c #E07485",
"x. c #E07E91",
"c. c #AB8581",
"v. c #B68786",
"b. c #BA908D",
"n. c #BD9593",
"m. c #CE8396",
"M. c #C38692",
"N. c #DD8396",
"B. c #D4839B",
"V. c #DB859B",
"C. c #DE8A9E",
"Z. c #D28898",
"A. c #C69A9B",
"S. c #E28394",
"D. c #E18699",
"F. c #E38B9D",
"G. c #E18997",
"H. c #E8919F",
"J. c #DC8CA2",
"K. c #D386A0",
"L. c #DD94AA",
"P. c #DF91A7",
"I. c #E38FA1",
"U. c #E592A4",
"Y. c #E997A5",
"T. c #EA98A6",
"R. c #E496A9",
"E. c #E59BAD",
"W. c #EA9CAC",
"Q. c #E49EB1",
"!. c #C5A0A0",
"~. c #D6A3A9",
"^. c #DEB0B5",
"/. c #ECA2AF",
"(. c #E5A2B4",
"). c #EBA5B4",
"_. c #EEA9B6",
"`. c #E6A5B9",
"'. c #E9A7B9",
"]. c #E7AABD",
"[. c #EDACBB",
"{. c #F0AFB9",
"}. c #EEB2BD",
"|. c #E4B8BE",
" X c #F1B3BD",
".X c #EAAEC0",
"XX c #E7AEC1",
"oX c #ECB3C3",
"OX c #EFB9C3",
"+X c #EAB6CA",
"@X c #ECB9C9",
"#X c #E2BDC2",
"$X c #F1B7C1",
"%X c #F1BBC4",
"&X c #F2BFC8",
"*X c #EFC7CD",
"=X c #F2C3CB",
"-X c #F3C8CF",
";X c #F3CBD2",
":X c #F3CBD2",
/* pixels */
"                                                                    F.                              ",
"                                                            F.I.'.I.G.u.                            ",
"                                      D.'.  F.              F.W.}._.E.S.                            ",
"                                      U.}._.T.s.  S.S.G.$.3.F.).%X}.'.`.k.                          ",
"                                    D.Q. X$XL.2.l.T._._.).j.1.Q.).F.R.V.,.                          ",
"                                  <.q.w.I.h.k.X./. X-X%X}.&.2.E.V.G.I.X.g.(.T.D.                    ",
"                                      ;.w.W D O.OX:X:X:X*XH  .w.f.i.0.>.L.oX}.V.                    ",
"                              z.      ! } ' Y *.=X*X:X:X6.f 6.9.] F [ i.J.R.Q.f.2.                  ",
"                    S.W._.W.W.U.U.).  <.[ H m /.&Xb.n.OX!.6.~.I p #.[ ! 2.i.} {                     ",
"            S.F.U.Y.W. X{._.[. X{._.Q.I.>.Z.b 6.=X|.I +.^.=X/.C.b O.d.  ^ |                         ",
"          F./._._.{. X=X X&X=X=X&X X.X.Xa.j.M.f n.b.b.~.}.).Z.r.Q J )   F )                         ",
"        l.Q.[.%X&X%X=X-X=X&X-X;X-X X$X$XW.D.S.A H m.[.%XL.w.h.i.I.F.$.S C.W.N.w.                    ",
"        I.[.&X$X-X=X%X-X-X;X:X:X&X{.%X%X_.I.U.=.t p.R.).Z.h.U./.}.Q.F.' i.h.| d.H.Y.T.H.U.S.u.      ",
"      F.'.[.%X-X&X&X-X;X:X;X:X:X-X&X=X&X_.).I.5.q 9.R.V.i.i.E.[.%X[.).P.&.L k._. X X X{.OX).F.      ",
"    x.W._._.{.=X%X&X;X;X:X:X:X:X;X;X=X X[._.[.m.p 8.k.} ^ | h.'.).F.(.a.N @._.&X-X=X;X=X%X@XE.      ",
"    F./.{.$X{.%X%X=X;X;X:X:X:X:X;X=X$X=X&X{._.Z.j V X...;.;.N.(.j.I.I.) S 9.}.-X;X;X;X;X-XoX[.R.    ",
"  x.E..X.X$X X&X&X%X&X-X:X;X;X;X;X&X{. X_.[._.B.G         / >.f.i.V...p ` Q. X=X;X-X:X-X=X%X_.W.x.  ",
"  x.).oX[._.{.%X-X-X X%X=X-X;X=X-X&X X[.oXoX.Xm.t   F.U._.N.a./ t.^ a T `.).=X&X-X=X=X-X&X X{.'.F.  ",
"  a.J.`.[.{.{. X&X&X%X-X&X=X;X%X%X&X_.oX[.oXXXw.p a F.(.}.[.E.a.h 7 B w.`.(.}.=X=X-X=X%X$X_.'.R.q.  ",
"    ,.R..X_._. X$X}.oX+X=X;X=X=X&X$X_._.[.U.`.B.l P J.).%X[.`.Q.-.0 M V.Q.F.oX X{.%X X}.'.U.E.q.;.  ",
"    / s.(.'.).{.[.oXoX+XoXoX[.oXoXoXoX.X.XF.J.K.N n t.Q.).F.E.V.|   ^ j.Q.U.).oX}.OX@XW.G.I.I.:.    ",
"      ^ t.L.D.R.oX_.[.oX_._._._.+XoX[.oX).k.W ^   D 4.E.N.G.U.a.Q 0 B :.g.'.R.R.U.R.`.].V.C.<.^     ",
"        R >.| g.XXXX.X[.+X+XoXoXoX.X[..XI.w.B     q G  .f.f.a.;.  y %.L.B.`.L.E.s.F.(.E.V.0.!       ",
"              ~ i.j.a.`..XoXoXoX[.).I.I.j.r.{       r z | _ l       ..V.V.r.,.r.1.V.w.t.J.^         ",
"                ^ ! 2.F.).].].].).(.D.D. .D   j.@.+ % t   F ,     A ..F.E.s.a.J.0.e.! 8.w.i.w.      ",
"                    | y.Q.J.C.U.j.N.y.4.g #   | W ' F J p.p.u   e y ~ 4.J.a.R.d.:.x v 8.J.a.:.      ",
"                      7.V.| i.h.X.D K     X #     h.U.'.E.F.U < O     z _ e...(       | ,./         ",
"                        o.      k m ) m T $ @ & E V.'.$X[.).p.y     8   ] w.c n {                   ",
"                                  0.R.J.i.B   $ Z i.E.%X_.U.k.^     7 @ Y /.(.E.t.                  ",
"                                  | k.} V     0 S 2.K.G.S.y.:.K p w $ S Z.[.OX).t.;.                ",
"                                                B ! X.y.r.:./ M +     :.,.j.i.r.,./                 ",
"                                                  z M >.^ / C           ! ,.1.V V                   ",
"                                                    q M t                 { }                       ",
"                                                    @ & s O                                         ",
"                                                    @ 7 7                                           ",
"                                                  o s 3 +                                           ",
"                                                O s t o : ; > >                                     ",
"                                              > O s 5 o + : - > > > > >                             ",
"                                            > > = . o # d e 3 + ; ; > > > >                         ",
"                                        > > > > ; = O @ r t f e ; = > > > > > >                     ",
"                                        > > > > ; : : : 5 5 7 f i + = > > > > >                     ",
"                                        > > > > ; 4 e & 7 5 @ r r & < ; - ; > >                     ",
"                                  > > > > > > - * 2 2 e r $ + 3 w , & w O = > > >                   ",
"                                  >   > > > ; > : 2 ; < ; 2 2 2 1 1 : : = - > > >                   ",
"                        > >   > > > > > > > > > ; > ; = - > > > > > > > > > > >   >                 ",
"                      > > > > > > > > > >   > > > > > > > > > > > > > > > >                         ",
"                      > > > > > > > > >             > > > > > > > >                                 ",
"                        > > > > > > > >             > ; > > > > > >                                 ",
"                                                      > > > > > > >                                 ",
"                                                                                                    "
};
