/* XPM */
static char *_20c87ec1c9f40828519778718d43024Aj4mgLDrYoVGpMSD[] = {
/* columns rows colors chars-per-pixel */
"50 50 173 2 ",
"   c None",
".  c #F39C0B",
"X  c #F3990D",
"o  c #F39A0F",
"O  c #F39C0E",
"+  c #F39C12",
"@  c #F39D12",
"#  c #F39E12",
"$  c #F39F15",
"%  c #F3A10E",
"&  c #F3A40D",
"*  c #F2AC0D",
"=  c #F2AE0D",
"-  c #F2B80C",
";  c #F1BB0D",
":  c #F2B90F",
">  c #F1BF0E",
",  c #F3A211",
"<  c #F3A311",
"1  c #F3A312",
"2  c #F2A511",
"3  c #F3A511",
"4  c #F2A611",
"5  c #F2AD10",
"6  c #F2AD11",
"7  c #F2AF15",
"8  c #F2A519",
"9  c #F2B210",
"0  c #F2B810",
"q  c #F2B910",
"w  c #F1BB10",
"e  c #F1C00B",
"r  c #F1C30B",
"t  c #F1C40B",
"y  c #F1C10F",
"u  c #F1C20F",
"i  c #F1C30F",
"p  c #F1C40C",
"a  c #F1C40D",
"s  c #F1C40E",
"d  c #F1C40F",
"f  c #F1C50F",
"g  c #F1C312",
"h  c #F1C510",
"j  c #F1C512",
"k  c #F1C514",
"l  c #F1C615",
"z  c #F1C61A",
"x  c #F1C71D",
"c  c #F0C926",
"v  c #F0CA30",
"b  c #F0BA63",
"n  c #F0C55E",
"m  c #EFD05F",
"M  c #EFD15F",
"N  c #EFD45F",
"B  c #EFCE66",
"V  c #F0C160",
"C  c #F0C660",
"Z  c #F0CC60",
"A  c #EFD460",
"S  c #EFD463",
"D  c #EFD66B",
"F  c #EFCF7F",
"G  c #EFD677",
"H  c #EFD97D",
"J  c #EEDA7D",
"K  c #94A4A5",
"L  c #95A5A5",
"P  c #96A5A5",
"I  c #96A6A5",
"U  c #95A5A6",
"Y  c #96A5A6",
"T  c #97A6A6",
"R  c #96A6A7",
"E  c #97A6A7",
"W  c #97A7A8",
"Q  c #9EACAD",
"!  c #A1AEAF",
"~  c #A2AFAF",
"^  c #A2AFB1",
"/  c #A5B1B1",
"(  c #A6B2B4",
")  c #EFC681",
"_  c #EFC782",
"`  c #F0C681",
"'  c #F0C682",
"]  c #EEDA86",
"[  c #EEDB88",
"{  c #EEDE97",
"}  c #EEDF98",
"|  c #EEDF9C",
" . c #EEE09F",
".. c #EED5A0",
"X. c #EEDDBA",
"o. c #EEE0A0",
"O. c #EEE0A1",
"+. c #EEE1A6",
"@. c #EEE2A7",
"#. c #EEE1A8",
"$. c #EEE2A8",
"%. c #EDE4B1",
"&. c #EDE4B2",
"*. c #EDE6BD",
"=. c #B4BDC0",
"-. c #B7BEC0",
";. c #B6BEC1",
":. c #BEC3C3",
">. c #BDC5C3",
",. c #B9C0C4",
"<. c #BEC3C4",
"1. c #BEC3C5",
"2. c #BCC2C6",
"3. c #BDC3C6",
"4. c #BCC2C7",
"5. c #BDC3C7",
"6. c #BEC3C7",
"7. c #BEC4C8",
"8. c #C2CAC8",
"9. c #C5CBCB",
"0. c #C7CCD0",
"q. c #CDD2D1",
"w. c #CDD2D5",
"e. c #CDD3D6",
"r. c #CFD5D7",
"t. c #D2D6D7",
"y. c #D1D6D9",
"u. c #D2D6D8",
"i. c #D2D7D8",
"p. c #D1D9D9",
"a. c #D2DADA",
"s. c #D3DBDC",
"d. c #D4D9DC",
"f. c #D5DADC",
"g. c #D7DCDE",
"h. c #D8DDDD",
"j. c #D8DDDE",
"k. c #D8DDDF",
"l. c #D9DDDF",
"z. c #EDE3CB",
"x. c #EDE9CD",
"c. c #ECECDD",
"v. c #ECECDF",
"b. c #D9DDE0",
"n. c #DEE2E4",
"m. c #DFE3E5",
"M. c #ECEDE3",
"N. c #ECEEE7",
"B. c #E2E6E8",
"V. c #E5E9EB",
"C. c #E7ECED",
"Z. c #ECEEE8",
"A. c #ECEDEA",
"S. c #EAEEED",
"D. c #ECEFEC",
"F. c #ECEFED",
"G. c #ECEFEE",
"H. c #EBEFF0",
"J. c #ECF0F0",
"K. c #ECF0F1",
"L. c #EDF0F1",
"P. c #EDF1F1",
"I. c #ECF0F2",
"U. c #EDF1F2",
"Y. c #ECF1F3",
"T. c #EDF1F3",
"R. c #EEF1F2",
"E. c #ECF1F4",
"W. c #EDF1F4",
"Q. c #ECF1F5",
"!. c #EDF2F5",
"~. c #ECF1F6",
"^. c #ECF1F7",
/* pixels */
"                                                                                                    ",
"                                                                                                    ",
"                                                                                                    ",
"                                                                                                    ",
"                  5.                                                    5.                          ",
"                5.5.                                                  7.5.5.                        ",
"                5.5.d.U.U.H.H.U.U.H.U.H.U.H.U.H.U.H.U.H.U.H.U.H.U.H.U.w.5.5.                        ",
"                5.5.b.U.H.U.U.H.H.U.H.U.H.U.H.U.H.U.H.U.H.U.H.U.H.Y.H.u.4.5.                        ",
"                5.5.k.U.H.U.H.U.H.U.H.U.H.U.H.U.U.H.H.U.H.U.H.U.U.H.U.u.4.4.                        ",
"                5.5.k.U.U.H.U.H.U.H.U.H.U.H.U.H.H.U.U.H.U.H.U.H.H.U.H.u.4.7.                        ",
"                5.5.k.U.H.U.H.U.H.U.H.U.H.U.H.U.U.H.U.U.U.H.H.U.U.H.U.i.4.5.                        ",
"                :.5.k.U.U.H.U.H.U.H.U.H.U.H.U.H.H.U.H.G.H.U.H.v.M.U.J.t.4.                          ",
"                :.5.k.R.U.G.U.E.E.H.U.H.H.U.H.U.H.E.Z.} M.W.E.H [ J.J.p.5.w.  H.B.                  ",
"                :.5.k.U.U.W.x.{ $.v.H.U.U.H.U.H.S.&.D x S $.H x x &.U.p.5.d.U.U.H.V.w.5.            ",
"                :.5.k.U.U.A.B p k o.^.W.Y.E.W.W.@.x p p p g q > h O.H.t.4.s.U.H.U.U.S.0.5.          ",
"                :.5.k.U.z.b 7 i p v | &.G ..X.] c p p g h 9 @ q h ..W.t.5.s.U.U.H.U.U.d.5.5.        ",
"                >.1.k.W.' o 6 h h p h k ; 1 8 u f f i f i 2 + q h ..!.a.4.e.U.U.Y.H.U.n.7.5.        ",
"                >.1.k.W.' o 6 p g p h h w @ 1 w f i f i i 2 + q p @.!.a.4.1.      U.U.m.7.5.        ",
"                :.5.k.U.' o 6 g p i g p : @ 1 i i f i f i 2 + q h o.E.u.4.          U.m.7.5.        ",
"                :.5.k.U.' o 6 h h h h h : + 1 > f i f i i 2 + q h o.E.u.4.1.        U.m.7.5.        ",
"                :.5.h.U.' o 6 p g p h h q @ 1 i h p p g i 1 + : h o.E.u.5.5.        U.m.7.5.        ",
"                :.5.k.W.' o 6 i g h p h w @ 1 > i g h h i 1 + : h o.E.u.4.5.        U.m.7.5.        ",
"                1.1.h.U.' o 6 h p p h h w @ 2 i p h i p i 3 + q h o.Y.t.4.5.        U.m.7.5.        ",
"                >.1.k.W.' o 6 p h i g p w @ 1 i p g i i i 2 + q h o.E.t.4.5.        U.m.7.5.        ",
"                :.5.h.W.' o 6 g i f i f : @ 1 > h g p h g 3 + : h o.E.u.4.4.        U.m.7.5.        ",
"                :.5.h.U.' o 6 h f i f f > @ 1 i h p i h i < + q h o.E.u.4.7.        U.m.7.5.        ",
"                >.5.k.!.' o 6 h i f f f q @ 1 > i g p p i 3 + q h o.Y.t.4.5.        U.m.7.5.        ",
"                >.1.k.W.' o 6 p f i f h q @ 1 i p h h g i 3 + q h o.E.t.4.5.        U.m.7.5.        ",
"                :.:.g.W.) o 6 f i f i f w @ 2 > h p p g i < + q h O.!.p.5.5.        U.m.7.7.        ",
"                :.5.h.U.) o 6 i f i f f w @ 1 i i g h h i < + q h O.!.a.4.5.        U.m.7.4.        ",
"                :.5.k.W.) + 6 f i f i f q @ < i p h i p i 3 + q h O.E.t.4.5.        U.m.7.7.        ",
"                :.5.k.W.' o 6 i f i f f : + < g p g i i i 3 + q h ..E.t.5.          U.m.7.1.        ",
"                >.5.k.U._ o 6 p h g p p q $ 1 i i i p h i < + q h O.!.p.5.5.      U.U.m.7.5.        ",
"                :.5.k.W.' o 6 h p i h h q @ 1 > i i p i i 3 + q h ..U.p.5.w.U.H.U.H.U.m.7.5.        ",
"                :.5.h.W.' o 6 h p h p h w @ 2 i h p h g i < + q h o.W.t.5.s.U.U.H.H.U.d.5.5.        ",
"                :.5.h.U.' o 6 h g h h h w @ 1 i i g h p i 3 + q h o.W.t.5.s.U.H.U.U.S.0.5.          ",
"                >.1.k.!.' o 6 i g p h h w + < > p h g p g 2 + q h o.E.u.4.d.U.U.H.V.w.5.            ",
"                >.1.k.W.' o 6 p h h i p w + < i p g h p i 3 + q h o.E.t.5.w.  U.B.                  ",
"                :.5.h.U.' o 6 h h p h h w + < > h h i g i 2 + : h o.E.u.4.                          ",
"                :.5.k.W.' o 6 g h h p p w + < i g p p h i 1 + : h @.E.u.4.5.                        ",
"                ( 9.k.U.F . * r t t r r r & % > r r t t r = o - p  .W.t.5.=.                        ",
"                ( 5.k.U.$.n C N N M N N M Z n M N N N N N M V Z A *.W.t.=.!                         ",
"                T ( q.G.U.U.U.U.U.U.Y.Y.U.U.U.J.U.J.U.J.U.J.Y.U.U.U.S.9.^                           ",
"                  T ~ 9.a.s.s.s.s.s.a.s.a.s.s.s.s.s.s.s.s.s.s.s.s.a.1.Q P                           ",
"                  P P P T W W W W W W W W W W W W W W W W W W W W P U U                             ",
"                      P P P P P P P W U U W P P P P P P W P U U P P P                               ",
"                                                                                                    ",
"                                                                                                    ",
"                                                                                                    ",
"                                                                                                    "
};
