/* XPM */
static char *c1bb1a582ab74674ee88d82a213f3190S9d4yajG3pLPKTZ3[] = {
/* columns rows colors chars-per-pixel */
"50 50 211 2 ",
"   c None",
".  c #3F230B",
"X  c #43250C",
"o  c #4C2A0F",
"O  c #48270E",
"+  c #522F0F",
"@  c #472A14",
"#  c #4E2C11",
"$  c #442712",
"%  c #512E11",
"&  c #4E331C",
"*  c #553111",
"=  c #5C3714",
"-  c #5E3915",
";  c #54361D",
":  c #623A16",
">  c #653C19",
",  c #693E1A",
"<  c #4F3421",
"1  c #5D3C23",
"2  c #5A3F2B",
"3  c #6C421D",
"4  c #66401D",
"5  c #5B412B",
"6  c #5E4530",
"7  c #644225",
"8  c #6C4523",
"9  c #6F4A2A",
"0  c #6B4628",
"q  c #734D2D",
"w  c #714723",
"e  c #76502E",
"r  c #78522C",
"t  c #644932",
"y  c #674C38",
"u  c #6A4F3C",
"i  c #764F30",
"p  c #755132",
"a  c #795333",
"s  c #77583D",
"d  c #6D553D",
"f  c #6F5541",
"g  c #715741",
"h  c #7B5D43",
"j  c #765E4A",
"k  c #775D48",
"l  c #7C614C",
"z  c #7D6755",
"x  c #825E3E",
"c  c #825F40",
"v  c #856041",
"b  c #87684B",
"n  c #8B6C52",
"m  c #846952",
"M  c #8D735B",
"N  c #937356",
"B  c #96785D",
"V  c #947659",
"C  c #957A62",
"Z  c #9B7D63",
"A  c #977F69",
"S  c #B9885D",
"D  c #9D846C",
"F  c #978169",
"G  c #9D8771",
"H  c #A3856D",
"J  c #BC8E67",
"K  c #A5926F",
"L  c #BD926A",
"P  c #A48C75",
"I  c #A88C73",
"U  c #A58E79",
"Y  c #A28771",
"T  c #AA9975",
"R  c #A6937C",
"E  c #AD937B",
"W  c #AD9879",
"Q  c #B2957C",
"!  c #BF9B78",
"~  c #C5966D",
"^  c #CA9A73",
"/  c #C59F7D",
"(  c #C79872",
")  c #C38E65",
"_  c #C5A27A",
"`  c #AC9884",
"'  c #B59A82",
"]  c #BA9D84",
"[  c #B49780",
"{  c #ADA080",
"}  c #BEA185",
"|  c #BDA28A",
" . c #B5AA8C",
".. c #B3A788",
"X. c #BBB39B",
"o. c #B7AC91",
"O. c #BCB7A2",
"+. c #BEB9A3",
"@. c #BEBCAA",
"#. c #CBA484",
"$. c #C1A48B",
"%. c #C6A98E",
"&. c #CBAC8C",
"*. c #C6A486",
"=. c #D4AD8D",
"-. c #D1AA83",
";. c #CCB28C",
":. c #D2B28D",
">. c #C5AB93",
",. c #CAAC92",
"<. c #C2AE9B",
"1. c #D1AF93",
"2. c #D8AF91",
"3. c #CDB294",
"4. c #C4B19A",
"5. c #CCB39C",
"6. c #D3B395",
"7. c #D1B59B",
"8. c #D8B599",
"9. c #D2B99D",
"0. c #DABB9D",
"q. c #D7B995",
"w. c #C1BAA6",
"e. c #CEBBA5",
"r. c #C3BEAB",
"t. c #CAB9A5",
"y. c #D3BCA4",
"u. c #DABDA4",
"i. c #D5BEA8",
"p. c #D8BFA9",
"a. c #D3B7A1",
"s. c #D4BFB0",
"d. c #C8BFB7",
"f. c #C9C2AE",
"g. c #D4C4A4",
"h. c #DCC2A3",
"j. c #D5C4AB",
"k. c #DAC1AB",
"l. c #D5C9AE",
"z. c #DCCBAC",
"x. c #D9CCA6",
"c. c #C5C2B2",
"v. c #CCC4B3",
"b. c #CCCABD",
"n. c #CBC7B8",
"m. c #D5C2B2",
"M. c #D9C5B2",
"N. c #D6CBB3",
"B. c #DACDB2",
"V. c #D6CBBB",
"C. c #DDCEBC",
"Z. c #D0C6BC",
"A. c #DED3B4",
"S. c #D9D2BC",
"D. c #E1C3A5",
"F. c #E1C8AD",
"G. c #E1C7AB",
"H. c #E1CBB4",
"J. c #E0CEBF",
"K. c #E1D7BC",
"L. c #E3D9BD",
"P. c #E0D4B5",
"I. c #CACCC3",
"U. c #CBCDCD",
"Y. c #C8C8C5",
"T. c #D1CDC4",
"R. c #DBCFC1",
"E. c #D4D1C5",
"W. c #DDD4C3",
"Q. c #D3D3CC",
"!. c #DAD8CD",
"~. c #CED1D1",
"^. c #D3D6D4",
"/. c #D5D9D5",
"(. c #D9D9D4",
"). c #DBDDDA",
"_. c #CCD2C9",
"`. c #E2D2C1",
"'. c #E4DCC4",
"]. c #E5DDCB",
"[. c #E5D9CA",
"{. c #E4DCD1",
"}. c #E0DED9",
"|. c #DDE1DC",
" X c #E7E0CD",
".X c #EAE3CE",
"XX c #E8E0C7",
"oX c #EBE5D4",
"OX c #EEE9D7",
"+X c #E4E2DC",
"@X c #EBE5DA",
"#X c #EEEADB",
"$X c #E7E1D2",
"%X c #F1EDDE",
"&X c #F0EBDC",
"*X c #DEE1E0",
"=X c #E4E4E4",
"-X c #E7E9E7",
";X c #ECEAE4",
":X c #E7EAE9",
">X c #EBECEB",
",X c #E8E5E0",
"<X c #F1EEE1",
"1X c #F2EFE5",
"2X c #EEF0EF",
"3X c #F2F0E5",
"4X c #F3F0E5",
"5X c #F2F1EC",
"6X c #EDEFF0",
"7X c #EFF1F1",
"8X c #F2F2F0",
/* pixels */
"                                                                                                    ",
"                                                                                                    ",
"                                                                                                    ",
"                                      3X;X                                                          ",
"                                    #X&X4X#X                                                        ",
"                                    .XoX3X%XoX.X                                                    ",
"                                  3X.XXX%X4X%XOX.X.X                                                ",
"                                oX3X&XL.XX#X4X<X<XoX.X                                              ",
"                            $XoX.X&X4X.XL.'.OX4X4X4XoXn.                                            ",
"                  )././.^.|.$X#XXXoX4X4X.XXX'..X#X4X4X$XS.{.-X-X                                    ",
"              ^.~.~.~.^./.+X&X#XXX'.oX;X4XOX.XXXXX.X&X&X'.N.W.;X>X-X*X                              ",
"          ).~.U.U.~.~./.$X4X<X&XoXXX'.XXOX4X4X4XOXXXL.oXoX'.S.V.,X>X>X|.                            ",
"        ).~.Y.U.Y.Z.].@XoX X4X<X#X#XOXXXL. XoX%X4X%X.XA.'.XX'.A.l.#X:X-X=X~.                        ",
"      :X^.Y.d.5.#.k.#X#XXXK.S.oX3X<X;X#XoXXXW.W. XOX#X.XS.XX].L.;.;.S.+X=X/.c.                      ",
"      >XI.>.#.^ ^ H.<XOX'.L.A.A.W.#X3X3X<X#XoXW.S.S.W.W.XXS.'.7.~ _ ;.F.`.!.@.                      ",
"      7XR.( ~ ( -.F.#X#X'.L.L.K.A.A.'.@X4X4X4X#XXXl.l.l.l.l.B.9.~ S :.h.h.n.O.                      ",
"      ,X5Xi.( ^ q.P..X&X.XL.L.L.S.A.x.A.W. XoX#X#XS.x.j.l.j.j.l.*.S =.h.j.w.c.                      ",
"      `.{.8XJ.2.q.h.L.XX$X.X'.K.XXL.A.g.9.l.N.N.S.XXS.g.g.j.g.%.S ~ 6.f.X.f.V.E.E.+X6X>X            ",
"      H.u.`.6X>X].F.0.6.6.0.H.'.S.A.x.x.x.q.&.k.j.l.l.7.L L J J _ 4.w.O.f.j.l.R.Q.(.>X6X7X>X        ",
"      k.a.2.s.[.1X5X1X].k.&.#.2.h.z.z.x.;.~ ) ( #.;.&._ ! _ o.X.O.O.t.f.9.u.t.v.b.b.).=X=X>X=X      ",
"      M.1.1.8.8.u.J.{.1X8X8X1X@X{.{.[.V.s.s.s.M.v.v.n.I.n.+.w.f.e.y.9.9.7.5.<.r.r.r.I.^.).*X*X*X    ",
"      `.5.} 8.8.8.8.0.p.H.`.{.{.@X1X;X}.}.}.}.}.Q.Z.n.v.f.y.9.5.7.6.7.3.' ` t.r.r.r.I._.Q.).*X).    ",
"      `.M.5.%.>.1.8.8.8.8.8.u.u.D.u.D.G.F.G.G.G.u.6.3.6.6.3.6.6.7.>.] Q U | <.            /.|.Q.).  ",
"      <.M.a.i.t.>.$.,.1.6.2.2.1.2.2.2.2.8.u.D.D.0.6.6.3.3.;.%.} Q E [ ] ` ] G             /.).T.}.  ",
"        ] e.i.k.k.e.5.>.%.%.%.,.,.#.#.#.#.#.6.0.,.$.} ] Q Q Q Q ] } | } I C               ^.).b.|.  ",
"        V V >.p.k.k.k.k.y.t.a.5.>.$.] ] ] ] } ] Q Q Q ' } } } | } $.} I y g               ^.).b.|.  ",
"        B r e I 5.k.k.k.k.k.y.y.p.a.a.5.7.7.7.7.,.%.| | $.$.$.$.} E n ; @ j               /./.n.|.  ",
"        B x , q v Z ] 5.y.p.k.h.p.a.7.7.7.7.7.7.,.| %.$.$.} Q Z h 1 O . < j               ).T.b.    ",
"        Z b 3 q e e a c N H E | >.%.,.,.,.,.,.%.] E H C b i 1 % o o o . 5 l               ).v.Q.    ",
"          N w w e e e r q q q i s i q i e e q q 7 - % % o o # # # # o . y               ^.!.c.).    ",
"          B e 3 r e i i i i i q q > : : = = = = % + % % % % % # o o O $ f               (.c.b.      ",
"          Z v , q e e q i i i q q > : : : : : : * % % % % % # # # O X < j             (.I.f.(.      ",
"            N 3 9 e e e i i q q q , - : - : - - ; % % % % % o o # # . 5 l           ).E.+.E.        ",
"            Z e 3 e e e i i i q 9 , : : : - - - * % % % % % % # # O X u         Q.).T.w.b.          ",
"            D b , q q e i i i q 9 : : : - - - - * % % % % # + % # $ & j     O.O.c.c.O.b.            ",
"              Z 3 w e e i i i i q : : : - > - - * * % % % % # o # . 5 F w.+.X...T  .E.              ",
"              H r , q q i i q q 0 : : : > - - - * # % * # # # o O $ d R  .T T T  .X.                ",
"              P b 4 3 q i i i i 8 : : : - - - = * % # * # % % # O & z K T .. .X.                    ",
"                F w , q i i q q 7 : > - - - - - * * # % % % # # X t G o.X.X.                        ",
"                Y x : , q i i 9 > - > > - > - = * o * # % % # O @ l {                               ",
"                  B 3 , , q 9 , > : : : : : - = * % # * % # # X 6 z                                 ",
"                  P x > : , , : : : : : : - - = % # * # # # X ; l                                   ",
"                    Y q : , > : > : : : - - - = + % # * o X @ g z                                   ",
"                    ` Z w : > : : : : : - : - = + + * O . ; g l                                     ",
"                      E Z s 3 > > : : : : : = * o o O & t k l                                       ",
"                      A E [ Y n s i 9 0 8 7 7 7 5 t d l l l l                                       ",
"                          D U [ ` ` R U F M M m l b l l l                                           ",
"                              A F D G F C M M m l l l                                               ",
"                                                                                                    ",
"                                                                                                    "
};
