/* XPM */
static char *_a3a8e0d0570460dcc856e9cc534083e44GS4T3Mkb1PZRA8[] = {
/* columns rows colors chars-per-pixel */
"50 50 157 2 ",
"   c None",
".  c #050505",
"X  c #0C0C0C",
"o  c #0F1110",
"O  c #141414",
"+  c #121816",
"@  c #1C1C1C",
"#  c #201E17",
"$  c #232014",
"%  c #2E2913",
"&  c #0E2B22",
"*  c #1E2423",
"=  c #162622",
"-  c #0E3127",
";  c #1B352E",
":  c #153C31",
">  c #222223",
",  c #262A29",
"<  c #2B2B2B",
"1  c #30302F",
"2  c #333126",
"3  c #2F3F3A",
"4  c #333333",
"5  c #3C3D3C",
"6  c #3C3B37",
"7  c #0B4535",
"8  c #074836",
"9  c #144C3C",
"0  c #05533E",
"q  c #09533F",
"w  c #224A3F",
"e  c #28443C",
"r  c #35423E",
"t  c #47401F",
"y  c #4A452A",
"u  c #564F2D",
"i  c #5C5326",
"p  c #5B532C",
"a  c #4E4930",
"s  c #44423B",
"d  c #565034",
"f  c #5B5534",
"g  c #54503A",
"h  c #5A553A",
"j  c #5E5839",
"k  c #675D2B",
"l  c #6E6430",
"z  c #69623E",
"x  c #746931",
"c  c #7A6F34",
"v  c #766C39",
"b  c #005547",
"n  c #095741",
"m  c #015E44",
"M  c #155745",
"N  c #1F5C4B",
"B  c #135A46",
"V  c #264C42",
"C  c #3D4844",
"Z  c #215B4A",
"A  c #30544A",
"S  c #006046",
"D  c #0C624A",
"F  c #05644A",
"G  c #0C6E53",
"H  c #057254",
"J  c #027A5A",
"K  c #15775B",
"L  c #286555",
"P  c #346758",
"I  c #22715C",
"U  c #2F7160",
"Y  c #3C7262",
"T  c #444444",
"R  c #424D4B",
"E  c #4C4B4B",
"W  c #4C4B44",
"Q  c #5B5741",
"!  c #53524C",
"~  c #535353",
"^  c #5C5C5C",
"/  c #416259",
"(  c #507970",
")  c #606E6B",
"_  c #696969",
"`  c #626262",
"'  c #647976",
"]  c #747474",
"[  c #7B7B7B",
"{  c #06805E",
"}  c #068260",
"|  c #0C8463",
" . c #048964",
".. c #0F8B69",
"X. c #0B8B67",
"o. c #108267",
"O. c #04946D",
"+. c #08926D",
"@. c #05986F",
"#. c #039B71",
"$. c #208164",
"%. c #2F826B",
"&. c #34816B",
"*. c #328F7A",
"=. c #249F7F",
"-. c #02A073",
";. c #06AB7E",
":. c #04A378",
">. c #4A8D7D",
",. c #11AC82",
"<. c #06BB8B",
"1. c #16B186",
"2. c #479882",
"3. c #618E84",
"4. c #6B8581",
"5. c #7F9E98",
"6. c #45BC9F",
"7. c #65A698",
"8. c #06C490",
"9. c #0AD89F",
"0. c #0CDAA2",
"q. c #16D7A5",
"w. c #1BD7A4",
"e. c #3BD1AB",
"r. c #2BDAB3",
"t. c #09EDAF",
"y. c #0EF8B8",
"u. c #0AF1B1",
"i. c #10F7B8",
"p. c #19F2B7",
"a. c #25E6B2",
"s. c #4BC6A6",
"d. c #4AC7AE",
"f. c #45C3A1",
"g. c #55C4A9",
"h. c #45D0B1",
"j. c #4DD3B7",
"k. c #55D3B3",
"l. c #63EAC9",
"z. c #7AEDCE",
"x. c #72EBCD",
"c. c #6DF4D4",
"v. c #7BF4D6",
"b. c #848484",
"n. c #898989",
"m. c #939393",
"M. c #82A199",
"N. c #92BFB8",
"B. c #93BEB4",
"V. c #A0BBB9",
"C. c #B4B4B4",
"Z. c #83C6B7",
"A. c #ABDCD4",
"S. c #8AE5CD",
"D. c #84F2D4",
"F. c #ADE0D8",
"G. c #A0EEDC",
/* pixels */
"                                                                                                    ",
"                                                                                                    ",
"                                                                                                    ",
"                                                                                                    ",
"                                                                                                    ",
"                                                                                                    ",
"                                                                                                    ",
"                                                                                                    ",
"                                            y                                                       ",
"                                    > s z v c l t                                                   ",
"                              O @ + 5 h x c x k i %                                                 ",
"                              @ > @ 4 u i f f p u $                                                 ",
"                              O # O , T h h Q h g #                                                 ",
"                              @ < . X > E j p f d $                                                 ",
"                              @ > . . X < W ! ! 6 1 T                                               ",
"                              2 4 [ _ , . O @ @ 4 4 ~                                               ",
"                              1 b.C.C._ > , # > 5 5 < <                                             ",
"                              # ^ ] ] ] 5 T < 4 < 5 > X                                             ",
"                              o > > > > < T T < 4 1 @ .                                             ",
"                              O > # @ @ < 5 T > 4 > <                                               ",
"                              , 5 T > > < 1 4 > 1 @ 5                                               ",
"                            5 b.b.b.~ 1 ~ ~ T , 4 @ C      .H ..B &.Y >.2.N o.                      ",
"                            5 ] _ _ T < ~ T 5 > 1 @ ; b m M 2.d.g.x.z.D.G.Z.B.4.e n                 ",
"                              > > < 1 > < 4 4 @ 4 * : : M f.e.r.q.p.i.i.p.a.l.F.N.A o.              ",
"                            O @ < > , > O > , > + o = & - Z 7 m 7 =.,.+.H m @.L ' w |               ",
"                  . 5 n._ # ~ 4 1 < < < 5 ^ ~ 5 4 , < < O o V C C _ R * @ F ,. .0 {                 ",
"                    @ ~ T @ 5 @ 1 4 < < > 4 1 < > @ , < X X r R 5 P e + & J <.<.                    ",
"                                > > < 4 > @ # @ O o   +.V Z n b 0 ;.:.J 8 m #.D V o.                ",
"                                  O @ @ > > > @ O +   +.L h.e.w.0.t.t.u.9.1.s.B.M.$.-.              ",
"                                  o O @ > > > O O +   @.b I 6.k.l.c.c.v.v.S.A.5.P X.                ",
"                                  X @ @ > > > + , *     8.O.K K U >.7.3.( &.%.G O.                  ",
"                                    O @ > 5 4 @ ] ^                                                 ",
"                                  . > < ^ m.] 4 ~ 6                                                 ",
"                                  @ ` ~ ^ ] T ~ E O                                                 ",
"                                  ~ b.[ ` T 4 ` E                                                   ",
"                                  ^ b.[ _ T 4 ~ 4 X                                                 ",
"                                  E ] ] _ E @ > @ @ @ +                                             ",
"                                  < ^ ] _ E o + O @ @ @ @                                           ",
"                                  O T ~ ~ 5 o o O O O O o                                           ",
"                                  o > > > > @ O                                                     ",
"                                  O @ @ @ @ > > @                                                   ",
"                                  O O @ @ @ # > > +                                                 ",
"                                      O O O O @ @ O                                                 ",
"                                                                                                    ",
"                                                                                                    ",
"                                                                                                    ",
"                                                                                                    ",
"                                                                                                    ",
"                                                                                                    ",
"                                                                                                    "
};
