/* XPM */
static char *_88add2d54904e1be16e6256f31f25efaSaU54QaXMJe3As0[] = {
/* columns rows colors chars-per-pixel */
"50 50 156 2 ",
"   c None",
".  c #060606",
"X  c #0C0C0C",
"o  c #09110F",
"O  c #10100C",
"+  c #071C16",
"@  c #141414",
"#  c #1B1B1B",
"$  c #1A1913",
"%  c #201D0D",
"&  c #09251D",
"*  c #19211E",
"=  c #353017",
"-  c #241E20",
";  c #1C2220",
":  c #173E34",
">  c #232323",
",  c #2C2C2C",
"<  c #3A3727",
"1  c #3C3823",
"2  c #2F3232",
"3  c #233D36",
"4  c #2E3835",
"5  c #333333",
"6  c #383835",
"7  c #3B3B3B",
"8  c #443D1C",
"9  c #403E35",
"0  c #044634",
"q  c #0A4534",
"w  c #034A36",
"e  c #00493B",
"r  c #104D3C",
"t  c #1B4E3F",
"y  c #05543E",
"u  c #4B4628",
"i  c #504A2D",
"p  c #5C542B",
"a  c #48463A",
"s  c #4F4D3E",
"d  c #5B5432",
"f  c #575239",
"g  c #5B553A",
"h  c #685E2C",
"j  c #605A3D",
"k  c #6B612F",
"l  c #746931",
"z  c #7A6F38",
"x  c #7D7136",
"c  c #124C42",
"v  c #0A5741",
"b  c #045841",
"n  c #0B5F47",
"m  c #145342",
"M  c #145847",
"N  c #1C5C4B",
"B  c #315149",
"V  c #3F534F",
"C  c #056D4F",
"Z  c #1C624F",
"A  c #096E52",
"S  c #1B6C55",
"D  c #126C54",
"F  c #067556",
"G  c #0E775E",
"H  c #057D5C",
"J  c #087B5B",
"K  c #16755B",
"L  c #1D765C",
"P  c #2C6F5C",
"I  c #306F5E",
"U  c #24775F",
"Y  c #2F705D",
"T  c #21785F",
"R  c #247762",
"E  c #434343",
"W  c #454847",
"Q  c #4B4B4B",
"!  c #4C4B46",
"~  c #5B5747",
"^  c #535148",
"/  c #545453",
"(  c #515957",
")  c #5B5B5B",
"_  c #426059",
"`  c #456C62",
"'  c #5E6261",
"]  c #407B6C",
"[  c #646464",
"{  c #6C6C6C",
"}  c #617A73",
"|  c #747474",
" . c #7D7D7D",
".. c #008964",
"X. c #098563",
"o. c #04956D",
"O. c #09976E",
"+. c #039D73",
"@. c #0D9C74",
"#. c #1E9777",
"$. c #2E836B",
"%. c #258F72",
"&. c #328A76",
"*. c #36917D",
"=. c #06A378",
"-. c #08A67B",
";. c #01A97A",
":. c #518178",
">. c #06B585",
",. c #06BB8A",
"<. c #26A887",
"1. c #3EAB90",
"2. c #789E95",
"3. c #40AC93",
"4. c #56A291",
"5. c #44BFA4",
"6. c #08C894",
"7. c #03C993",
"8. c #06D29A",
"9. c #04EBAC",
"0. c #1BE6B4",
"q. c #0DF4B5",
"w. c #06F3B2",
"e. c #17FCBD",
"r. c #33E3B6",
"t. c #2EF0BA",
"y. c #47DBB9",
"u. c #6FC8B3",
"i. c #2BFEC5",
"p. c #34F9C7",
"a. c #52EFC7",
"s. c #42FDCC",
"d. c #57F7D6",
"f. c #5DFCD3",
"g. c #61FDD6",
"h. c #75FBD6",
"j. c #848484",
"k. c #8C8C8C",
"l. c #979797",
"z. c #989898",
"x. c #82A29C",
"c. c #82AEA7",
"v. c #87B0AA",
"b. c #8EB5AC",
"n. c #9AB5B2",
"m. c gray63",
"M. c #BCBCBC",
"N. c #87CAB9",
"B. c #8ECBBC",
"V. c #AAC5C2",
"C. c #A9DED6",
"Z. c #8BEFDC",
"A. c #93EED9",
"S. c #A3E9D9",
"D. c #A3F1DF",
"F. c #91F8E1",
/* pixels */
"                                                                                                    ",
"                                                                                                    ",
"                                                                                                    ",
"                                  X.Z ` _ B M                                                       ",
"                                  v V n.C.C.c._ L                                                   ",
"                                  H m S <.r.f.S.B.Y J                                               ",
"                          O.T N H 6.>.+.0 ..w.i.h.N.Y F                                             ",
"                        +.U b.} C ,.+.r * q >.9.e.g.4.D -.                                          ",
"                        ;.t V.A.@.b w + - 7 ] #.o.0.d.&.v                                           ",
"                          D 2.D.t.7.+.C c ( ' 3 0 G y.1.q =.                                        ",
"                            S x.F.i.w.8.O.: W / t & $.R w                                           ",
"                            X.I v.Z.s.q.+.e c 4 $ X o q                                             ",
"                                %.:.u.a.p.<.R + . , 5 ;                                             ",
"                                  J K &.3.5.<.P   ; 5 5 >                                           ",
"                                      =.F n v -.      , ! 7                                         ",
"                                                        , ) ) > # @                                 ",
"                                                          > 2 > # # #                               ",
"                                                          O > 2 # # #                               ",
"                                          5 a i u         X - # X X # >                             ",
"                                    . @ 6 j z x x p =     X 6 , > > ! , #                           ",
"                                  X @ , s h l l h p 8     # , , 7 , # 5 j.[                         ",
"                                  o @ , 9 p p g d p <   E  .| / 5 >     ) ! X                       ",
"                                  X @ # 5 ^ d g g g < . ) k.k.| Q         . X                       ",
"                                  @ , X @ 6 ~ d d f < X # 6 E , #                                   ",
"                                  O > X X @ 6 Q / a , 7 # # # o                                     ",
"                                % $ 7 { | 2 X @ @ > 6 E 5 # @                                       ",
"                                X > { m.M.k.5 > > , E , # o                                         ",
"                              @ # # 7  .l.{ 7 7 , 5 6 5 @                                           ",
"                            # # - # # E [ 9 E Q , 5 2 ,                                             ",
"                        # > # # # @ @ , 2 , 6 7 2 - 2 @                                             ",
"                        { | / > X   @ , 5 5 5 6 > > 2 X                                             ",
"                      [ k.l.k.7     # 7 E Q ) E 2 - , X                                             ",
"                    > Q | j.[         Q / W ! 7 , # 5 >                                             ",
"                  . @ > , > #         > , , , 5 , > , 5                                             ",
"                X @ # # > # X       X # , 7 , # , , # X                                             ",
"                  @ @ # # #           X @ @ # @ # # @ @ o                                           ",
"                    @ # @           . @ # @ # @ # @ @ # # X                                         ",
"                                  # @ @ @ # # # @ o @ # # @ #                                       ",
"                              E | ) Q E ! 7 > @ X @ # @ @ - ' )                                     ",
"                            ) j.j.{ { | j.) @   X O @ @ X , { j.W                                   ",
"                          / j. .{ [ ) / Q             X @ 6 / [ { 5                                 ",
"                          { | [ ) ! ,                   @ 6 ! / [ [ E       @ @ X                   ",
"                      # Q { [ / 7 >                       > 7 E Q ) / > @ # > # $ X                 ",
"                    @ # > E E 7 >                             > 5 7 > @ # # # @ @                   ",
"                  . @ # # @ # @                                 X @ @ @ @ # @ X                     ",
"                    . @ # # > # @                                 . X @ X X .                       ",
"                        X # # > # o                                   . .                           ",
"                          X @ # # X                                                                 ",
"                              @ X                                                                   ",
"                                                                                                    "
};
