/* XPM */
static char *ZnJhbWUtMQ__[] = {
/* columns rows colors chars-per-pixel */
"50 50 128 2 ",
"   c None",
".  c #0F0F13",
"X  c #121215",
"o  c #1F1615",
"O  c #161518",
"+  c #19161A",
"@  c #1B1A1B",
"#  c #201B1C",
"$  c #27201F",
"%  c #35251F",
"&  c #1D1D20",
"*  c #231D21",
"=  c #232223",
"-  c #2A2324",
";  c #2A2629",
":  c #2C2B2C",
">  c #362722",
",  c #342824",
"<  c #3A2A24",
"1  c #342E2C",
"2  c #392E2B",
"3  c #36312E",
"4  c #3A312E",
"5  c #2F2F30",
"6  c #312F30",
"7  c gray20",
"8  c #3D3533",
"9  c #3D3936",
"0  c #373738",
"q  c gray23",
"w  c #4B3227",
"e  c #433129",
"r  c #4D352B",
"t  c #4F382F",
"y  c #52372B",
"u  c #54392D",
"i  c #583C2F",
"p  c #403636",
"a  c #433935",
"s  c #4D3C34",
"d  c #423A39",
"f  c #4C3E39",
"g  c #523E35",
"h  c #5E3F31",
"j  c #4D423C",
"k  c #5D4232",
"l  c #54443D",
"z  c #59463D",
"x  c #624434",
"c  c #624835",
"v  c #614739",
"b  c #644D3F",
"n  c #6A4A39",
"m  c #6F583C",
"M  c #444444",
"N  c #4D4240",
"B  c #4B464B",
"V  c #4B4B4B",
"C  c #544643",
"Z  c #544844",
"A  c #5B4B45",
"S  c #564D4A",
"D  c #5D4D4A",
"F  c #5E524B",
"G  c #4F4F51",
"H  c gray33",
"J  c #5A5654",
"K  c gray36",
"L  c #655244",
"P  c #65534D",
"I  c #695B4E",
"U  c #775740",
"Y  c #795743",
"T  c #755F40",
"R  c #7E5A45",
"E  c #655552",
"W  c #665A55",
"Q  c #6A5B55",
"!  c #615E5D",
"~  c #6C5E59",
"^  c #71604B",
"/  c #666153",
"(  c #6A625E",
")  c #72615C",
"_  c #7C6659",
"`  c #7B6A59",
"'  c #5F5F61",
"]  c #646363",
"[  c #6A6664",
"{  c #6E6864",
"}  c gray42",
"|  c #746561",
" . c #766B67",
".. c #7A6965",
"X. c #746E69",
"o. c #7F6E6A",
"O. c #77716C",
"+. c #78716D",
"@. c #706F70",
"#. c gray45",
"$. c #7E7873",
"%. c #7C7C7C",
"&. c #815C46",
"*. c #845E48",
"=. c #806345",
"-. c #8A634B",
";. c #806C52",
":. c #996E53",
">. c #806F6B",
",. c #837964",
"<. c #85746E",
"1. c #837770",
"2. c #887773",
"3. c #807875",
"4. c #8B7A76",
"5. c #807C7B",
"6. c #907E79",
"7. c #82807F",
"8. c #838383",
"9. c #898482",
"0. c #8B8B8B",
"q. c #918F8E",
"w. c #939393",
"e. c #9A9A9A",
"r. c black",
"t. c black",
"y. c black",
"u. c black",
/* pixels */
"                                                                                                    ",
"                                                                                                    ",
"                                                        E ..                                        ",
"                                                      E E ) |                                       ",
"                                                      E A D d                                       ",
"                                                4.4.o.C C D p                                       ",
"                                                o.o.o.D D C 4                                       ",
"                                              <.~ 1.4.) D 8 ,                 #.                    ",
"                                              | Q 4.4...S 6 f E         @ O 9 ]                     ",
"                                              D D 2.4...N a f E     @ @ @ @ 9 ( q                   ",
"                                              & * D ..E , 2 2 C       @ @ H %.` j * *               ",
"                                            + + X - C 8 * 4 + ;     @ O M 0.w.) { B                 ",
"                                            - * # @ * * + 1 X X X O X : %.w.9.<.#.}                 ",
"                                            : 1 ; * @ . d   . X O O 5 X.w.0.%.;.W ] %.              ",
"                                    :.    v 6 0 0 6 X + E 6.  X = & ' 0.q.%.[ ` _ 8.%.              ",
"                                  &.-.:.-.v 8 6 q 8 7 ; E o.Z ; 5 V %.0.8.#.J X.<.9.0.%.            ",
"                            8.0.1.R &.:.-.n x a 7 0 j j D W Z V ] #.0.8.#.} C K #. .w.0.8.          ",
"                        8.8.0.%.Q =.&.*.*.x k R 3 : 0 j b l a K #.8.%.%.} ' V G K ( $.0.0.          ",
"                        8.0.0.%.A x m Y n u i Y b : 0 9 l A a { 0.%.8.0.} H     V / ,.@.K           ",
"      & ;     & 5 : & } 0.0.8.#.A y k x t g y x R 3 0 a > l ! J 8.%.0.e.} V       9 F K #.          ",
"      = :   $ 7 0 : ; K e.w.8.%.L x u y z +.g u u : 1 g w l 0.8.' %.q.0.' @ . X X . K }             ",
"      @ 5 = = :       %.e.e.0.8.+.v k y ( w.W w w @ $ g ` k 0.w.' M #.8.K                           ",
"      X & =           %.w.e.0.8.0.| u D #.5.5.f % O # F ` c 3.q.8.] M G q                           ",
"                      ] 8.e.0.%.0.q.[ #.} #.%.S # X 3 ^ m T L W Q %.} 0 & X X                       ",
"                      K #.q.q.%.0.w.%.} ' ] [ K o X < I { X.O.z r f ( K                             ",
"                      V ] 8.0.%.8.w.8.] K ! ' K # . - [ #.#.$.7. .4 4                               ",
"                      V H K $.#.%.0.%.K V H ' J > 8 0 K ' @.#.8.0.} 2                               ",
"                        V V H ] #.8.%.J V V H H 2 ! ] ' ] } %.0.9.%.                                ",
"                        V V V K @.#.@.G V V V 4 , K K } } ' $.8.%.K                                 ",
"                          q q V } #.@.    V M , % V H } } ' ] ] ] V                                 ",
"                          q q q } @.          9 8 M G K ' ' H H H                                   ",
"                        V M q   #.8.                V H ] G V V                                     ",
"                        G V     #.0.                  K ] V q                                       ",
"                      V V V     #.%.                  %.#.V q q                                     ",
"                        V V     %.%.                  %.%.  q B                                     ",
"                          V V } 8.                  #.8.      V V                                   ",
"                            V J #.#.                %.%.      V V                                   ",
"                              V J } @.              7.          V                                   ",
"                              M 0 H #.} H         %.#.        V V                                   ",
"                                :     M M         %.H : 7   V V                                     ",
"                                        q q H   @.#.  q V H V                                       ",
"                                          q J #.@.      V V                                         ",
"                                                                                                    ",
"                                                                                                    ",
"                                                                                                    ",
"                                                                                                    ",
"                                                                                                    ",
"                                                                                                    ",
"                                                                                                    ",
"                                                                                                    "
};
