/* XPM */
static char *frame_31647626084[] = {
/* columns rows colors chars-per-pixel */
"50 50 256 2 ",
"   c None",
".  c #0F0F14",
"X  c #131315",
"o  c #161519",
"O  c #19161A",
"+  c #1C1A1C",
"@  c #2C1D18",
"#  c #27211F",
"$  c #2B201C",
"%  c #31211B",
"&  c #1D1D20",
"*  c #261F24",
"=  c #252425",
"-  c #2A2325",
";  c #2A2628",
":  c #27282B",
">  c #2C2B2B",
",  c #362722",
"<  c #302827",
"1  c #3A2B26",
"2  c #342D2C",
"3  c #3B2E2B",
"4  c #36322F",
"5  c #3C312E",
"6  c #2F2F30",
"7  c #312F31",
"8  c #343434",
"9  c #3D3431",
"0  c #3E3837",
"q  c #373839",
"w  c #3C3B3C",
"e  c #4B3226",
"r  c #44322B",
"t  c #4C342A",
"y  c #54392D",
"u  c #583C2F",
"i  c #403636",
"p  c #443935",
"a  c #4E3C33",
"s  c #423C3C",
"d  c #493D3A",
"f  c #553D32",
"g  c #593D30",
"h  c #46413F",
"j  c #4C413E",
"k  c #5E4332",
"l  c #5F4834",
"z  c #56433B",
"x  c #634435",
"c  c #664B37",
"v  c #644F3A",
"b  c #6A4B3B",
"n  c #6E543B",
"m  c #74523F",
"M  c #464646",
"N  c #4C4543",
"B  c gray29",
"V  c #534542",
"C  c #574842",
"Z  c #5A4B45",
"A  c #544B49",
"S  c #5D4D4A",
"D  c #56504E",
"F  c #5B524E",
"G  c #4E4E50",
"H  c #535353",
"J  c #5C5654",
"K  c #5E5D5D",
"L  c #604D44",
"P  c #63524D",
"I  c #755442",
"U  c #7A5642",
"Y  c #775947",
"T  c #7D5A44",
"R  c #7A5E4F",
"E  c #665651",
"W  c #685753",
"Q  c #655B52",
"!  c #695A55",
"~  c #635C59",
"^  c #6A5F5A",
"/  c #66645F",
"(  c #6C635C",
")  c #716350",
"_  c #786B56",
"`  c #72625C",
"'  c #7B695C",
"]  c #5F6060",
"[  c gray39",
"{  c #6A6765",
"}  c #6A6967",
"|  c #6C6C6C",
" . c #746561",
".. c #786763",
"X. c #736B66",
"o. c #7B6A64",
"O. c #726D6A",
"+. c #7E6D69",
"@. c #7D7664",
"#. c #71706F",
"$. c #7B736F",
"%. c #6E6F70",
"&. c #6F7070",
"*. c gray45",
"=. c #7C7674",
"-. c #7B7B7B",
";. c #825C47",
":. c #835F4A",
">. c #866049",
",. c #8C654D",
"<. c #90674E",
"1. c #90684F",
"2. c #8C764C",
"3. c #816A5E",
"4. c #956B51",
"5. c #8A7752",
"6. c #8E7A51",
"7. c #8C745D",
"8. c #967C5A",
"9. c #806F6B",
"0. c #827962",
"q. c #83726E",
"w. c #80796E",
"e. c #877672",
"r. c #887773",
"t. c #8B7A76",
"y. c #838383",
"u. c #898684",
"i. c #8C8B87",
"p. c #8B8B8B",
"a. c #959595",
"s. c #979798",
"d. c #9B9A9A",
"f. c black",
"g. c black",
"h. c black",
"j. c black",
"k. c black",
"l. c black",
"z. c black",
"x. c black",
"c. c black",
"v. c black",
"b. c black",
"n. c black",
"m. c black",
"M. c black",
"N. c black",
"B. c black",
"V. c black",
"C. c black",
"Z. c black",
"A. c black",
"S. c black",
"D. c black",
"F. c black",
"G. c black",
"H. c black",
"J. c black",
"K. c black",
"L. c black",
"P. c black",
"I. c black",
"U. c black",
"Y. c black",
"T. c black",
"R. c black",
"E. c black",
"W. c black",
"Q. c black",
"!. c black",
"~. c black",
"^. c black",
"/. c black",
"(. c black",
"). c black",
"_. c black",
"`. c black",
"'. c black",
"]. c black",
"[. c black",
"{. c black",
"}. c black",
"|. c black",
" X c black",
".X c black",
"XX c black",
"oX c black",
"OX c black",
"+X c black",
"@X c black",
"#X c black",
"$X c black",
"%X c black",
"&X c black",
"*X c black",
"=X c black",
"-X c black",
";X c black",
":X c black",
">X c black",
",X c black",
"<X c black",
"1X c black",
"2X c black",
"3X c black",
"4X c black",
"5X c black",
"6X c black",
"7X c black",
"8X c black",
"9X c black",
"0X c black",
"qX c black",
"wX c black",
"eX c black",
"rX c black",
"tX c black",
"yX c black",
"uX c black",
"iX c black",
"pX c black",
"aX c black",
"sX c black",
"dX c black",
"fX c black",
"gX c black",
"hX c black",
"jX c black",
"kX c black",
"lX c black",
"zX c black",
"xX c black",
"cX c black",
"vX c black",
"bX c black",
"nX c black",
"mX c black",
"MX c black",
"NX c black",
"BX c black",
"VX c black",
"CX c black",
"ZX c black",
"AX c black",
"SX c black",
"DX c black",
"FX c black",
"GX c black",
"HX c black",
"JX c black",
"KX c black",
"LX c black",
"PX c black",
"IX c black",
"UX c black",
/* pixels */
"                                                                                                    ",
"                                                                                                    ",
"                                                        E o.                                        ",
"                                                      E E `  .                                      ",
"                                                      W Z S s                                       ",
"                                                  t.9.V V S i                                       ",
"                                                t.e.+.Z S C 5                                       ",
"                                              t.e.+.+.` S 9 ;                                       ",
"                                            r.o.` W .. .p - z                     *.                ",
"                                              V E W 9.r.E d S W             X X   |                 ",
"                                              O - A ....N d S S           o X O = s |               ",
"                                            + O . - V V ; p < O         o X O 8 K ~ [               ",
"                                            - * + O * - - 5 o X     o o X o q [ { O.~ #             ",
"                                            > < - * o X     . . . X o & ; M [ [ #.! ^ p &           ",
"                                  ;.4.      > q q 7 o . =     . o = = B K | -.-.#...=.] :           ",
"                                T ;.4.4.  ;.p 7 w w   . A ! 3 : 8 M H / | -.y.*.X.7.| ] J           ",
"                              x x I >.<.;.;.T 2 8 w   3 P  .C M B H ] } -.y.*.*.=.8.=.*.-.          ",
"                            *.L k T I ,.:.;.:.a > q j I R  .E B J [ %.-.y.-.-.-.X._ 3.i.y.          ",
"                          [ -.~ u k c T I b ,.;.9 q s T ,.P j J [ | *.-.&.-.-.| F | ( u.a.*.        ",
"                          -.a.u.z e n m g u U ,.Y 8 q z U a N J | &.%.*.-.y.} M j G [  .p.y.        ",
"        X o o o o       -.p.s.d.=.t g x y t k U T 4 q b b t ~ B ] *.%.%.-.| H       J J @.p.p.      ",
"      o = 8 4 > # & = M y.a.d.d.d.! e f X.E e x c > 2 k f r N } G &.-.*.[ J         8 q 0.[ |       ",
"      # q 8 : > = > 6 G y.a.s.a.s.u.P $.p.X.t u g + 3 y J A d %.K H y.%.] M o X X . & B J | *.      ",
"                      ] y.p.p.y.y.i.p.-.-.-.X.L 1 X @ z | Q ) &.%.B H [ ]       X     B G           ",
"                        y.u.y.-.y.y.a.-.*.*.-.| 7 X @ N %.0.5.X.| ~ s q       X                     ",
"                      ] -.p.-.*.p.y.a.p.*.| *.| ; X @ N { _ k 6.v r , 4 o X                         ",
"                      H [ p.&.*.p.-.u.a.| [ *.*.G o + J S 2.k ) ` C i %                             ",
"                        H -.} *.p.*.y.p.] ] *.*.*.0 7 p r Q ( *.p.| J                               ",
"                        G } ] *.y.-.u.y.J K | &.{ 5 % 1 / #.*.-.y.&.]                               ",
"                        G K ] *.-.*.u.&.B H ] ] j @ 1 A *.*.*.*.p.*.]                               ",
"                          M ] *.*.%.&.}   B H ] d $ h [ | *.*.#.-.-.K                               ",
"                          M ] &.%.| ] B     M G 5 % M H K [ [ | -.*.J q                             ",
"                          B K &.[ K M w           %     H J K } %.&.} B w                           ",
"                          G K [ [   h w                 M B B H ] | | | G w                         ",
"                            K ] ]   w s                             %.| K M M                       ",
"                            ] K       M                               ] ]   G M                     ",
"                          ] ] ]       M M                             K ]   J M                     ",
"                          ] ]         M B                           ] ]       H B                   ",
"                          [ ]         G M M                   *.    | ]         B                   ",
"                        K K             B B M B M           s.H B | }           M B                 ",
"                        K K               B B M M M         s.| [ | [             B                 ",
"                        [ K                     M B H                             B M               ",
"                          K                       B B H                           q M               ",
"                          ]                       w w >                           : >               ",
"                          K K                       : ;                             =               ",
"                          [ ]                                                                       ",
"                          K K                                                                       ",
"                            ] ]                                                                     ",
"                            K J M                                                                   ",
"                              M w                                                                   "
};
