/* XPM */
static char *_2ce86014a5a4a869c85f041b75a044cChqrmN5RuO9ClWrL[] = {
/* columns rows colors chars-per-pixel */
"50 50 128 2 ",
"   c None",
".  c #121215",
"X  c #1B1516",
"o  c #161519",
"O  c #19161A",
"+  c #1B1B1B",
"@  c #251A17",
"#  c #201B1F",
"$  c #281F1D",
"%  c #301F19",
"&  c #22201F",
"*  c #2E201C",
"=  c #32231D",
"-  c #251F22",
";  c #242324",
":  c #2A2324",
">  c #2C2428",
",  c #272828",
"<  c #2C2B2B",
"1  c #372721",
"2  c #332925",
"3  c #3A2A24",
"4  c #332D2C",
"5  c #3A2E2C",
"6  c #3A332E",
"7  c #312F30",
"8  c #343333",
"9  c #3C3330",
"0  c gray23",
"q  c #442E25",
"w  c #493126",
"e  c #41332E",
"r  c #4B3329",
"t  c #4F392F",
"y  c #50362A",
"u  c #553C2D",
"i  c #583C2E",
"p  c #403633",
"a  c #493730",
"s  c #443A37",
"d  c #4F3930",
"f  c #423C3B",
"g  c #493D39",
"h  c #533C31",
"j  c #43403E",
"k  c #4D413E",
"l  c #524035",
"z  c #5D4134",
"x  c #554138",
"c  c #5A483F",
"v  c #634536",
"b  c #634835",
"n  c #664B3C",
"m  c #694938",
"M  c #714F3D",
"N  c #6C5339",
"B  c #6D593D",
"V  c #72523D",
"C  c #3F3F41",
"Z  c #464646",
"A  c #4C4543",
"S  c #4C4C4C",
"D  c #534542",
"F  c #584740",
"G  c #544945",
"H  c #5B4B46",
"J  c #544C4A",
"K  c #5D4D49",
"L  c #5F504C",
"P  c gray33",
"I  c #5A5553",
"U  c #585758",
"Y  c #5D5D5D",
"T  c #654F44",
"R  c #655244",
"E  c #6D5444",
"W  c #63524C",
"Q  c #755340",
"!  c #785440",
"~  c #735E42",
"^  c #7C5C4B",
"/  c #655652",
"(  c #655954",
")  c #6A5955",
"_  c #6C5D59",
"`  c #736147",
"'  c #766348",
"]  c #69625E",
"[  c #71615D",
"{  c gray39",
"}  c #6C6461",
"|  c #6E6966",
" . c gray42",
".. c #756662",
"X. c #736B66",
"o. c #7A6965",
"O. c #746E6B",
"+. c #7F6E6A",
"@. c #6F6F70",
"#. c #747474",
"$. c #7B7670",
"%. c #7D7876",
"&. c #7B7B7B",
"*. c #855F49",
"=. c #88634C",
"-. c #956B51",
";. c #996E54",
":. c #8B7952",
">. c #806F6B",
",. c #82716D",
"<. c #877672",
"1. c #8B7A76",
"2. c #827E7D",
"3. c #89826B",
"4. c #83807F",
"5. c #7F8080",
"6. c #848484",
"7. c #898989",
"8. c #929292",
"9. c black",
"0. c black",
"q. c black",
"w. c black",
"e. c black",
"r. c black",
"t. c black",
"y. c black",
"u. c black",
/* pixels */
"                                                                                                    ",
"                                                                                                    ",
"                                                        / o.                                        ",
"                                                      / W [ ..                                      ",
"                                                      ) H K s                                       ",
"                                                  1.>.D D W p                                       ",
"                                                1.,.+.G K G 9                                       ",
"                                              1.<.o.<...K 9 >                                       ",
"                                              >.[ _ <.o.H > D /                                     ",
"                                            <._ W ) <.>.J g W /             .    .                  ",
"                                            A - : H ..K 2 s 9 7           + + ; A Y &               ",
"                                            - O . ; g 9 > e O .       + + + C ] } { # +             ",
"                                            > - # o - o - p X .       + + < #.2.X.} A &             ",
"                                            < < > - o . #     . .   + + , P 6.7.O.} &.              ",
"                                            < 8 0 7 o . A ..$ . . + + , P &.7.6.X.{ Y               ",
"                                            , 7 0 0 , o / _ d 3 o + + 4  .7.6. .O.5.@.%.            ",
"                                      ;.;.  E 4 7 0 Z 8 / ..H k C C 8 P @.&.&.{ K %.6.&.            ",
"                          S S P {   ! ! -.-.=.9 , 8 0 E ^ W D I @.#.@.&.#.#.#.( ] ..6.6.%.          ",
"                        S Y  . .{ T V V *.M ! Q 6 7 0 R ! a s { #.5.6.&.&.#. .G { #.O.8.6.&.        ",
"          o o . .       P  .6.7.6.W N m v u z ! l , 7 R m q 9 @.6.6.&.&.5. .Y J P %.X.4.8.8.        ",
"      o ; < < , + & ; S  .&.6.7.7.W w b N w r m n 4 8 v u q p Y 6.&.#.5.#.{ Y     P  .]  . .        ",
"      + 8 8 < < , < 7 S @.6.7.6.&.O.h i u x u h z > < r ) I h I Z  .&.#.{ Y         @._ {  .        ",
"      ; 8           7 P @.6.7.&. .Y I d c &.} r q + 2 R 4.$.:.X.Y C  . .Y P           P {           ",
"                      P  .&.5.@.Y P  .} | &.6.T = . f 6.7.O.` ' 3.P Z P P                           ",
"                      P Y  .#. .U S { @. . .&. .8 + Y #.W :.u N B e $ 4                             ",
"                      S S {  .{ P Z P { Y { @. .; + s 3 q ` R n c 6 = 2 o       .                   ",
"                      Z U Y  .5.P Z Z P S Y ] { : . X % k U @.6.&. .s     . . .                     ",
"                      S P { #.6.Y Z Z Z Z S { A $ @ 5 S Y { #.&.%. .                                ",
"                      Z S Y &.5.P Z Z Z Z Z S p * 3 P Y Y Y { @.%.Y                                 ",
"                      { {  .6. .S     Z S Z Z = = S Y Y Y ] { { { S                                 ",
"               .#.#.#.#.#.#.#.S Z           j = 3 Z S Y { { { Y S                                   ",
"            Y Y { { @.#. .{ Y Z                 f S Z P Y @.{ P S                                   ",
"            Y S S P P { P S Z Z                     Z S Y @.Y S                                     ",
"          Y { Z 0 Z Z S Z Z Z                       0 0 Y #.{                                       ",
"          Y     0 0                                 0 0 U @.                                        ",
"        { Y       Z S                               0 0 { @.                                        ",
"        Y         Z Z                             Z 0   #. .                                        ",
"      { {         S Z                             Z Z    .%.                                        ",
"    { Y             Z             , ,             S      . .                                        ",
"                    S             < <           Z Z     Y Y                                         ",
"                  8 Z               Z Z Z       S       Y                                           ",
"                  8                       S S Z Z       {                                           ",
"                  0                                     Y                                           ",
"                                                        Y                                           ",
"                                                        {                                           ",
"                                                        Y                                           ",
"                                                        {                                           ",
"                                                        P S                                         ",
"                                                        0 0                                         ",
"                                                        0 0 0                                       "
};
