/* XPM */
static char *frame_21647460182[] = {
/* columns rows colors chars-per-pixel */
"50 50 128 2 ",
"   c None",
".  c #131315",
"X  c #161519",
"o  c #19161A",
"O  c #1C1B1C",
"+  c #201716",
"@  c #211B1B",
"#  c #32231E",
"$  c #241F21",
"%  c gray14",
"&  c #2A2425",
"*  c #2C2428",
"=  c #2B2A2B",
"-  c #352621",
";  c #352926",
":  c #392A24",
">  c #332D2C",
",  c #3B2F2D",
"<  c #34302E",
"1  c #3C312E",
"2  c #2F2F30",
"3  c #312F30",
"4  c #343434",
"5  c #3A3434",
"6  c #373738",
"7  c #3C3C3C",
"8  c #473127",
"9  c #4B3227",
"0  c #46352D",
"q  c #4D352A",
"w  c #4E382C",
"e  c #52372B",
"r  c #573C2E",
"t  c #593C2F",
"y  c #433632",
"u  c #443934",
"i  c #4A3A32",
"p  c #443C3A",
"a  c #483E39",
"s  c #533C32",
"d  c #5B3E31",
"f  c #45423D",
"g  c #4D413D",
"h  c #564037",
"j  c #5D4233",
"k  c #52433C",
"l  c #5E473B",
"z  c #5F4D3C",
"x  c #624435",
"c  c #664A36",
"v  c #614538",
"b  c #624C38",
"n  c #6C4F3B",
"m  c #704E3C",
"M  c #75533F",
"N  c #75593F",
"B  c gray27",
"V  c #4A4544",
"C  c #474748",
"Z  c #474848",
"A  c #4B4B4B",
"S  c #544642",
"D  c #564A46",
"F  c #594B46",
"G  c #544F4C",
"H  c #5D4D4A",
"J  c #5F514D",
"K  c #4F4F50",
"L  c gray33",
"P  c #595654",
"I  c #5E5A55",
"U  c #5D5D5D",
"Y  c #604E49",
"T  c #665440",
"R  c #6A5346",
"E  c #6D5E41",
"W  c #62524E",
"Q  c #755441",
"!  c #715D44",
"~  c #795946",
"^  c #655551",
"/  c #655852",
"(  c #6A5B53",
")  c #645C59",
"_  c #695F5B",
"`  c #715F56",
"'  c #766142",
"]  c #64615E",
"[  c #69625C",
"{  c #71615B",
"}  c #5F6060",
"|  c gray39",
" . c #6B6563",
".. c #6C6B6B",
"X. c #756561",
"o. c #716A67",
"O. c #7A6A65",
"+. c #7F6E6A",
"@. c #7E736D",
"#. c gray45",
"$. c #777778",
"%. c #777878",
"&. c gray48",
"*. c #825C46",
"=. c #89624B",
"-. c #876A54",
";. c #816E5A",
":. c #956B51",
">. c #9A6F54",
",. c #81716C",
"<. c #84796A",
"1. c #867571",
"2. c #897773",
"3. c #837A74",
"4. c #8B7A76",
"5. c #837D7B",
"6. c #928263",
"7. c #838383",
"8. c #8A8782",
"9. c #8C8B8B",
"0. c #939393",
"q. c #9A9A9A",
"w. c black",
"e. c black",
"r. c black",
"t. c black",
"y. c black",
"u. c black",
/* pixels */
"                                                                                                    ",
"                                                                                                    ",
"                                                        / O.                                        ",
"                                                      ^ ^ { X.                                      ",
"                                                      ^ F H p                                       ",
"                                                  4.,.S S Y y                                       ",
"                                                4.4.,.H Y S 3                                       ",
"                                              4.1.1.4.{ H 5 *                 #.                    ",
"                                              2.X.,.4.O.D , S                 P |                   ",
"                                            4.O.^ { 2.,./ g Y ^       X . . = D U %                 ",
"                                            ) * & D X.H , 1 D H       . . 4  . .[ > o               ",
"                                            $ X . & g , & y p $     X . = | 7.3.{ | 4               ",
"                                            * & $ o $ X $ 5 X .   X . o K 7.7.5.,.| #.              ",
"                                            * > $ $ X . O   . . . . % B ..6.$.<.,.U #.              ",
"                                    >.:.M ~ 3 6 6 3 X . V     . . % B | &.%.#.6.-.O.7.$.            ",
"                                  R :.>.Q Q u 3 7 6 3 - ^ 2.; . % B } &.&.#...;.<.{ 9.7.$.          ",
"                            L }  .l *.:.N x M y 4 6 g i W O.Y 5 B L #.&.%.#.I ^ #.o.5.0.7.          ",
"                        K | 9.9.W c Q =.=.t j m y < 6 a h W g V L ..#.#.&.#.P A L | ) 8.7.9.        ",
"                        | 9.q.0./ h j Q m t 9 j c 1 6 5 e 0 p B ....#.%.&.} L     A / 6.] ..        ",
"            % = 4 =   L %.q.q.9.[ q j n 9 9 9 e 8 > 4 0 e : G A ..#.#.$.} K         f E [ ..        ",
"      =     O O % 2 4 P 9.q.0.&.] h e j e k q j r ; < s s 0 I L ..$...| L           o 1 G L         ",
"      2 6 % X     % % L 9.q.9.#...] w 9 k #.( t s O 1 z D n [ $.U ..U L A       . .                 ",
"      % 2 4       . X L 7.0.7.#.7.7. .k ) $.#.H i . ; k K z [ 7.| L } C % . .                       ",
"      . .           % K #.8.%.%.7.9.0.$...#.#...7 . 6 Z k ' E / ) A 7 B                             ",
"                      A | #...&.9.9.0.#.| #.#...= X 7 a e j E b s S 4 4                             ",
"                      A U | ..#.7.9.9.#.} | ....6 . @ 0 W .... . .a # O . .                         ",
"                        A U | #.#.7.7...} } } P - o & G ....#...%.) ;                               ",
"                          A L ..#.%.#.L P } } P - - G | | ..#.| #.) B                               ",
"                            C U %.%...K A L U L - B } } | | | U | L                                 ",
"                              U ..&.#.    A C p # B U | | #.| K U A                                 ",
"                                U #.%.      Z 1 # B A | | ..L Z A B                                 ",
"                                A | &.            B A } ..| A Z 7 f                                 ",
"                                7 L $.                | %.&.L C 7 7 B C                             ",
"                                7 C #...                &.7.      7 7 C C                           ",
"                                B C ....                %.7.        6 C C                           ",
"                                C A ..| A       U       #.8.            C                           ",
"                                  A | U C C C A U ..      7.            C                           ",
"                                    U U A B C B L ..      &.            C                           ",
"                                    } } U   7 4 P #.9.9.7.&.            C                           ",
"                                      } }   = = } #.&.&.#.#.            C                           ",
"                                        | U       #.#.#.#.              C                           ",
"                                          U }                         C C                           ",
"                                            |                       4 C                             ",
"                                              U U                   4 C                             ",
"                                              U |                 4 6                               ",
"                                                L U                                                 ",
"                                                A U                                                 ",
"                                                                                                    ",
"                                                                                                    ",
"                                                                                                    "
};
