/* XPM */
static char *_f77ab0a6edf4d1bf6016ddfe49e7684H4t5upUNolvUGuwe[] = {
/* columns rows colors chars-per-pixel */
"50 50 128 2 ",
"   c None",
".  c #0F0F13",
"X  c #131315",
"o  c #1F1716",
"O  c #161519",
"+  c #1A1719",
"@  c #1C1A1C",
"#  c #211817",
"$  c #221E1F",
"%  c #2A1F1C",
"&  c #2D211E",
"*  c #31211B",
"=  c #39251E",
"-  c #1D1D21",
";  c #221C20",
":  c #252424",
">  c #2A2325",
",  c #2F2827",
"<  c #27272A",
"1  c #2E272B",
"2  c gray17",
"3  c #342520",
"4  c #382A24",
"5  c #332D2B",
"6  c #382D2A",
"7  c #3D312D",
"8  c #2E2D30",
"9  c #312F30",
"0  c #343434",
"q  c #3A3535",
"w  c #3E3837",
"e  c #3C3C3C",
"r  c #473027",
"t  c #4B3226",
"y  c #44342D",
"u  c #4E362C",
"i  c #553A2D",
"p  c #413735",
"a  c #443934",
"s  c #433F3E",
"d  c #493C39",
"f  c #513E35",
"g  c #5B3E30",
"h  c #55412E",
"j  c #43403E",
"k  c #4D433E",
"l  c #5E4233",
"z  c #54433C",
"x  c #5B4539",
"c  c #5E4B3A",
"v  c #614334",
"b  c #654A3D",
"n  c #6D4D3C",
"m  c #714F3D",
"M  c #6B5339",
"N  c #71533D",
"B  c #464646",
"V  c #4B4442",
"C  c #474749",
"Z  c #4B4B4B",
"A  c #544541",
"S  c #564945",
"D  c #594943",
"F  c #544A49",
"G  c #5C4E4A",
"H  c #5E504B",
"J  c #4F4F50",
"K  c #535353",
"L  c #5A5553",
"P  c #5D5D5D",
"I  c #644D42",
"U  c #62524D",
"Y  c #7C5743",
"T  c #715D43",
"R  c #645551",
"E  c #685752",
"W  c #635954",
"Q  c #6A5955",
"!  c #625D5A",
"~  c #6B5D59",
"^  c #7D6745",
"/  c #73634D",
"(  c #7A694D",
")  c #61605F",
"_  c #6B625E",
"`  c #716350",
"'  c #73625E",
"]  c gray39",
"[  c #6D6662",
"{  c #6C6B6B",
"}  c #736662",
"|  c #736A66",
" . c #7A6A64",
".. c #726D6A",
"X. c #7E6D69",
"o. c #76706E",
"O. c gray45",
"+. c #7A7674",
"@. c #7B7877",
"#. c #7B7B7B",
"$. c #835D47",
"%. c #855E48",
"&. c #876049",
"*. c #8F674E",
"=. c #996E54",
"-. c #837350",
";. c #826E68",
":. c #83726E",
">. c #877672",
",. c #887773",
"<. c #8B7975",
"1. c #807C7B",
"2. c #838383",
"3. c #898685",
"4. c #8B8B8B",
"5. c black",
"6. c black",
"7. c black",
"8. c black",
"9. c black",
"0. c black",
"q. c black",
"w. c black",
"e. c black",
"r. c black",
"t. c black",
"y. c black",
"u. c black",
/* pixels */
"                                                                                                    ",
"                                                                                                    ",
"                                                          :.                                        ",
"                                                        R  .<.                                      ",
"                                                      R U Q Q                                       ",
"                                                      R D G p                                       ",
"                                                  <. .A A G w                                       ",
"                                                <.X.;.R U A 5                                       ",
"                                              >.>.} >.' A 5 5                                       ",
"                                              X.~ ~ >.;.H 9 S E                                     ",
"                                            X.U G Q :. .k d U G                       O.            ",
"                                            p @ @ k ' D 1 a 1 >               O X X   O.            ",
"                                            ; - . - p > ; a o .             X O : B j ]             ",
"                                            > > ; - ; O ;   O . X       X X @ e ] #._ _ >           ",
"                                            1 9 1 ; X X :     X + 0 X X X - K O.@.2.U U e X         ",
"                                            8 q e q @ X F ;.  . X X X X X 0 2.#.#.@.} @.Z           ",
"                                  I *.=.  m a 2 0 e 2 @ R  .f < 0 @ 0 C < K #.#.O.F ..O.]           ",
"                          ) ) ) I n Y =.*.n n 5 2 e j e R ' E K K e { 2.@.O.O.{ ) G _ O.{           ",
"                        ] ] { [ l n m %.$.v n x 2 0 j x b D k ] ] P O.3.2.O.{ ) ) Q _ 1.3.#.        ",
"          : 2 9 2     ] O.1.3.o.i N v g v g v n 5 0 e z g r 6 { ] ] O.O.{ ] { ] L ) o.[ 4.2.        ",
"    2     @ @ < 0 9 Z { 2.3.4.O.t i N h u i g v 6 0 k v g i % B { ] { { ) ] O.] L   { L 3.4.#.      ",
"    9 0 < +     : < J @.3.3.4.#.D t l f H i g f y e a u b ..f k J ] ] ] ] O.O.]     K L _ 4.4.      ",
"    < 2 0       X 2 ) #.2.2.2.O.! z G Q +.W i g 7 0 p g  .#./ -.w J ] ] O.O.]         K Q @.2.      ",
"    X X           K ] O.O.O.O.{ P ] 2.#.{ { c i 4 < x  .2.O.` M h a Z ] O.{ e X         P L [       ",
"                  K P { ) ] { P C P #.O.) { ..H & @ H @.S / ^ r T b & 7 L ]     X X X . - V O.      ",
"                  C J ) K { { J B J { { P ] o.{ @ O = 4 = c ( H { ..j : $ &                         ",
"                  Z L K ] 2.) C B C K K Z P { J + o 7 V F ] ] O.O.O.O.K 2 X X       X               ",
"                  C Z J O.#.K C C B B B C K ) C + @ L @.O.] K { O.O.] ]                             ",
"                  C C K O.O.K C     C C C Z K k o @ C ) ] P K ) O.O.] K                             ",
"                  Z K { O.) Z C         C C Z 7 & k ) ) ) P Z K { O.] C                             ",
"            #.@.O.] P { { J C               j * = Z K K K J C Z ] O.]                               ",
"          ] #.3.2.O.P ) P Z                   & 6 B B B B C C C K O.{                               ",
"          ) ) ) ) P P P                           B B C B B B     ) O.]                             ",
"        P P C C B B                                   e e e e     K { {                             ",
"        ) J C B                                     j e e           P { ]                           ",
"      ] L B C                                       e e e             O.{                           ",
"      ) K B                                       B e e               { O.                          ",
"      P                                           B B                   { {                         ",
"2 C )                                             C B                   P ]                         ",
"0 K )                                           C B                       P P                       ",
"e B                                             B                           P                       ",
"e                                             B B                           ] P                     ",
"                                            B C                               ]                     ",
"                                            B                                 P ]                   ",
"                                            C                                   P                   ",
"                                          B B                                   ] P                 ",
"                                        < 2                                     P C                 ",
"                                          <                                       e e               ",
"                                                                                  e e               ",
"                                                                                                    "
};
