/* XPM */
static char *cf7815041abc49eed222f4a9ea9721a3FnuX6zrblYiVXaMK[] = {
/* columns rows colors chars-per-pixel */
"50 50 128 2 ",
"   c None",
".  c #111115",
"X  c #181517",
"o  c #161519",
"O  c #19171A",
"+  c #1C1B1C",
"@  c #221C1E",
"#  c #2B1E1A",
"$  c #301F18",
"%  c #2D221E",
"&  c #31221D",
"*  c #251E23",
"=  c gray14",
"-  c #2B2527",
";  c #2B2528",
":  c #2C2C2C",
">  c #372620",
",  c #382721",
"<  c #332A27",
"1  c #382924",
"2  c #322C2B",
"3  c #382F2D",
"4  c #33312F",
"5  c #3B312F",
"6  c #2D2D30",
"7  c #343434",
"8  c #3C3534",
"9  c #373838",
"0  c #3C3C3C",
"q  c #402F27",
"w  c #493125",
"e  c #43352E",
"r  c #4D352A",
"t  c #44382D",
"y  c #4F382D",
"u  c #503529",
"i  c #543A2D",
"p  c #593E2F",
"a  c #413733",
"s  c #473934",
"d  c #4B3C35",
"f  c #423C3A",
"g  c #4C3E3A",
"h  c #513D34",
"j  c #5B3E30",
"k  c #43403F",
"l  c #4C413D",
"z  c #544137",
"x  c #5C4033",
"c  c #55443C",
"v  c #644636",
"b  c #614739",
"n  c #654B39",
"m  c #6B4B3A",
"M  c #6D523B",
"N  c #6D593F",
"B  c #71513E",
"V  c #464646",
"C  c #4E4240",
"Z  c #4C4846",
"A  c #464648",
"S  c #4B4B4B",
"D  c #554642",
"F  c #544A46",
"G  c #594B44",
"H  c #524C4A",
"J  c #5E4E4A",
"K  c #52514F",
"L  c #5D514C",
"P  c gray33",
"I  c #5B5452",
"U  c #5E5855",
"Y  c #5D5D5D",
"T  c #614D44",
"R  c #625242",
"E  c #6F5547",
"W  c #6C5940",
"Q  c #62534D",
"!  c #625B4E",
"~  c #765440",
"^  c #7B5A43",
"/  c #655652",
"(  c #685753",
")  c #655953",
"_  c #6B5A56",
"`  c #635D5C",
"'  c #6C5C58",
"]  c #756043",
"[  c #6C625E",
"{  c #74635E",
"}  c gray39",
"|  c #6A6462",
" . c #6D6866",
".. c #6C6C6C",
"X. c #766662",
"o. c #736A66",
"O. c #7A6964",
"+. c #736D6C",
"@. c #7E6D69",
"#. c #7C716D",
"$. c #747474",
"%. c #797573",
"&. c #7D7876",
"*. c #7B7B7B",
"=. c #825E46",
"-. c #855F48",
";. c #8C644C",
":. c #91684F",
">. c #88734B",
",. c #996E53",
"<. c #887550",
"1. c #83726E",
"2. c #867571",
"3. c #887773",
"4. c #8B7A76",
"5. c #807C7B",
"6. c #848484",
"7. c #898786",
"8. c #8B8B8B",
"9. c #959595",
"0. c black",
"q. c black",
"w. c black",
"e. c black",
"r. c black",
"t. c black",
"y. c black",
"u. c black",
/* pixels */
"                                                                                                    ",
"                                                                                                    ",
"                                                                                                    ",
"                                                          1.                                        ",
"                                                      / / O.2.                                      ",
"                                                      / J / L                                       ",
"                                                    2./ D J 8                                       ",
"                                                4.3.2.D D J a                                       ",
"                                              4.4.@.1._ Q l <                                       ",
"                                            O.2.@.{ 2.{ g ; 8                                       ",
"                                            ( ' _ _ 2.2./ 8 g (                   O     $.          ",
"                                            J C C / 1.4.X.g D /               + + + + 2 }           ",
"                                            2 o o s ' X.a 5 D 8           + + + V Y P l Y           ",
"                                            * * o O 3 g < 3 3 .         + + + 6 $.6.8.[ |           ",
"                                            ; * * @ + O *     . .     + + = = } 8.6.9.[ G k         ",
"                                            6 7 6 ; o . .     . . o + + 7 P P 6.6.5.7.{ $.V         ",
"                                  ,.,.,.  q : 7 0 7 + . O )   o O A P 6 Y 6.6.*.$.*.[ | ..V         ",
"                                m =.-.:.:.u e 2 9 0 7 X : 1.O.} P *.6.Y } *.*.$.$.} ) +...}         ",
"                                p ^ ~ ^ ;.i m x : 7 k d d { #.$.6.8.6.&.$.$.*.*...) *.o.6.&.        ",
"                            } U w i B M =.m x B a 6 9 c ~ ' ) ' 8.6.*.$.$.*.6...Y H $.o.&.*.        ",
"    = + - = + = 7 : +     ..$.6.J r x x x v p v v 4 0 c z T s I 6.&.$.} ..$...U     Y +.#.6.        ",
"    + = : + = 7 7 : = 0 } *.9.9.#.r w w h p p i x 4 9 d x h g K $.} Y } Y Y Y       S Y [ 6.        ",
"    - + : = = : :     Y $.8.8.$.} H c L  .z x p y 2 4 x z ) <.! A P P Y Y Y V         P L &.8.      ",
"        O =         Y  .6.6.$.} } Y  .$.$.L w x z % < u c Q ^ W t - 4 8 A Y   . .     0 l ) 9.      ",
"                    Y  ...} Y ....Y Y } ..| r r r X & z L >.x N n 2 + + =           . : d H +.      ",
"                    } Y Y Y ..*...P Y Y Y ..L z < . % & & N N U Y U V 2 8 * . . . . . o   ..        ",
"                    Y P P } *.6.Y S P S Y Y Y Y - . % & & S Y } $.*.U f k                           ",
"                    S S } $.*.$.Y V V A P Y Y Y 6 . @ l Z Y Y ..6.*.Y V                             ",
"                  P Y Y } $...Y P A A A V S S K V + + P [ Y P $.6.$.Y V                             ",
"                  Y ....Y ....Y K V A A S V V V V & 4 K P S S Y ....P P                             ",
"                } } $...} ..Y K S     A V V V V f & f A A A V V S Y } Y Y                           ",
"                Y ....} ..P A A             V V k f A A A V V V V A Y Y Y }                         ",
"                } ....K S A A                               0 0 V V A Y } Y Y                       ",
"              ....} U A A                                     0 9       Y Y } Y                     ",
"          Y Y } P K V V                                       0             } Y Y                   ",
"        } Y Y P V 0 0                                         0                 }                   ",
"      Y Y } P V k                                             0                 Y Y                 ",
"    } Y Y   V Z                                               V                   } Y               ",
"    Y       A                                                 S                     Y               ",
"k P }     V A                                                 V                     } Y             ",
"0 A       A                                                   A                       } }           ",
"0         Z                                                   A                       A V           ",
"          V                                                   V                         9           ",
"        Z A                                                   V                         0           ",
"        A                                                                                           ",
"        A                                                       A                                   ",
"        A                                                       A                                   ",
"        0 :                                                     V                                   ",
"        - :                                                     : -                                 ",
"        - =                                                       -                                 "
};
