/* XPM */
static char *frame_41647626084[] = {
/* columns rows colors chars-per-pixel */
"50 50 128 2 ",
"   c None",
".  c #121215",
"X  c #161618",
"o  c #1B171C",
"O  c #171818",
"+  c #1B1A1B",
"@  c #211C1C",
"#  c #2B1D19",
"$  c #301F19",
"%  c #2D211E",
"&  c #32221C",
"*  c #1D1D20",
"=  c #221C21",
"-  c #252425",
";  c #2B2325",
":  c #2E272B",
">  c #2C2C2C",
",  c #342621",
"<  c #352824",
"1  c #3D2D27",
"2  c #322C2B",
"3  c #35312F",
"4  c #2D2E30",
"5  c #312F30",
"6  c #343434",
"7  c #3E3433",
"8  c #373839",
"9  c gray23",
"0  c #4D3327",
"q  c #46332A",
"w  c #4E352A",
"e  c #4E382D",
"r  c #51372B",
"t  c #543A2D",
"y  c #413633",
"u  c #433935",
"i  c #493C36",
"p  c #433D3C",
"a  c #483C38",
"s  c #533D32",
"d  c #5B3E30",
"f  c #49423F",
"g  c #544036",
"h  c #5E4132",
"j  c #52433D",
"k  c #58463D",
"l  c #5C493B",
"z  c #624334",
"x  c #654A36",
"c  c #634B3B",
"v  c #6D4D3B",
"b  c #685038",
"n  c #74523F",
"m  c #464545",
"M  c #4E4341",
"N  c #474748",
"B  c #4B4B4B",
"V  c #554642",
"C  c #5B4B44",
"Z  c #514E4C",
"A  c #5B4D4A",
"S  c #5D574C",
"D  c #4F4F50",
"F  c #545353",
"G  c #5A5653",
"H  c #575858",
"J  c #5D5D5D",
"K  c #634B41",
"L  c #685542",
"P  c #62524C",
"I  c #6F564B",
"U  c #65584B",
"Y  c #735340",
"T  c #7B5643",
"R  c #7C5A45",
"E  c #72584B",
"W  c #655651",
"Q  c #655B56",
"!  c #695A55",
"~  c #645E5D",
"^  c #6B5D59",
"/  c #7C6848",
"(  c #786852",
")  c #73625E",
"_  c #5F5F60",
"`  c gray39",
"'  c #696563",
"]  c #6C6867",
"[  c #686768",
"{  c #6C6C6C",
"}  c #776662",
"|  c #726A66",
" . c #7A6A66",
".. c #736E6A",
"X. c #7C6E6A",
"o. c #6F7070",
"O. c #747474",
"+. c #7A7573",
"@. c #7C7971",
"#. c #7C7C7C",
"$. c #815C47",
"%. c #806B47",
"&. c #866049",
"*. c #8C654D",
"=. c #91684F",
"-. c #85734D",
";. c #946A50",
":. c #9B7055",
">. c #836F68",
",. c #83726E",
"<. c #867571",
"1. c #887773",
"2. c #8A7975",
"3. c #827E7D",
"4. c #95855E",
"5. c #8F876C",
"6. c #838383",
"7. c #888584",
"8. c #878788",
"9. c gray54",
"0. c #939393",
"q. c #9A9A9A",
"w. c black",
"e. c black",
"r. c black",
"t. c black",
"y. c black",
"u. c black",
/* pixels */
"                                                                                                    ",
"                                                                                                    ",
"                                                          ,.                                        ",
"                                                        W  .2.                                      ",
"                                                      W P ^ ^                                       ",
"                                                    <.W V A u                                       ",
"                                                  2.X.V V A u                                       ",
"                                                2.X.>.P P V 2                                       ",
"                                              1.<.} <.} V 2 :                                       ",
"                                              ) ^ ! <. .a 2 V                                       ",
"                                              A A W <.1.! a P W                   O   [             ",
"                                            7 * @ V ) ) u a V 7               O . - < Z O.          ",
"                                            = o . * a a ; y - .         + O . * f J G F H           ",
"                                            ; ; = o = @ ;   . .     + + O O . 3 o.#...Q 3           ",
"                                  $.;.      2 5 : = X .       . . O O - > 9 - o.0.7.O.^ f X         ",
"                                *.n ;.:.  Y 6 8 9 6 X . >     .   O - F o.{ O.0.6.8.+.' _ +         ",
"                                $.v *.*.*.v i 5 8 9 > X S >.1 1 * O 6 o.6.8.8.6.O.+.W [ B 9         ",
"                                x v v n $.z R l 6 8 9 > P >.K K p - F 6.8.8.#.O.O...^ ..+.{         ",
"                                x x z *.*.d v =.c > 8 a I ) P P ` B _ 6.6.6.O.O.[ Q @.| 8.#.        ",
"                          ` o.@.k t b v T z d Y $.u 8 u E C y M o._ [ #.#.#.6.[ B B o.| 3.6.        ",
"      + + O + 5 6   O B ` #.0.q.! 0 w h z r e t x y 8 9 s r C D _ [ [ O.#.6.O.B B   J ] X.9.#.      ",
"      > 6 - - * > - + F #.q.q.9.#.U r h t g w r e 2 3 q r r C [ N H _ o.#.[ F         ` ^ 8.0.      ",
"      >           -   o.9.8.#.O.O.{ W A ^ 5.V 0 t ; 2 d d g l ..F 8 J { ` F B         H ` ^ 6.      ",
"                      O.#.[ { 6.` H [ O.3.8.o.e w + < t V | 4.5.U u 2 p B m -         > F G _       ",
"                      O.{ ` O.3.` H [ O.O.#.@.] p . # i ] O.L / / y % @ < 6   . . . . * > F O.      ",
"                    J o.{ ` O.O.[ F H { O.O.O.O.8 . , ' +.@.c 0 U H F m @ . . . . . . X             ",
"                    F J J _ { #.6.` F { O.O.O.o.4 . ; ] ] ( -.j { { B N                             ",
"                    N F _ ` ` #.q.o.D _ [ [ ' [ D X @ G u q S _ +.O.H m                             ",
"                    N H o.#._ 6.0._ B D J J H J Z % # & < Z Z ` +.O.J N                             ",
"                    B ` 3.6.[ 3.6.H N m N N N B m & & & f H B _ { [ J                               ",
"                    D O.8.O.[ { J D   N N N N N u & & y F N N F _ { { ` { o.                        ",
"                    H 6.#.[ _ J B N                     B N m N H { { o.{ { { {                     ",
"                    [ #.[ J H B m                               F J H J J J ` `                     ",
"                  { o.[ _ B m p 9                                 B m m m     J                     ",
"                ` { { _     8 9 9                                     8 9     J                     ",
"                { { `       9 9                                         8 m J `                     ",
"              ` { `         9 9                                         m m J J                     ",
"            _ [ [           m p                                           m F `                     ",
"            ` [           N m                                               J                       ",
"            J `           N N                                             ` `                       ",
"          ` _             N N                                             F B B                     ",
"          J               N N                                             m F B m                   ",
"          J               N N                                             B F   B                   ",
"        J `               N N                                             J       m                 ",
"        _                   N                                                     m B               ",
"        _                   N N                                                     m >             ",
"        `                     N                                                     > >             ",
"        F                     N m                                                     -             ",
"        9 B                     6 >                                                                 ",
"        9 8                     - - -                                                               "
};
