/* XPM */
static char *a001adc9966e4649eb847d9c5a64d087TjevSNKIHHccMCZX[] = {
/* columns rows colors chars-per-pixel */
"50 50 128 2 ",
"   c None",
".  c #0F0F13",
"X  c #100F13",
"o  c #131216",
"O  c #181517",
"+  c #171619",
"@  c #19161A",
"#  c #1B1B1B",
"$  c #211D1E",
"%  c #2E1E19",
"&  c #2C201D",
"*  c #31211B",
"=  c #261F24",
"-  c gray14",
";  c #2B2425",
":  c #2C2428",
">  c #2C2B2C",
",  c #352621",
"<  c #362924",
"1  c #3A2B25",
"2  c #322C2B",
"3  c #3C2F2B",
"4  c #36322F",
"5  c #3B322E",
"6  c #2F2F32",
"7  c #312F30",
"8  c #2F3030",
"9  c gray20",
"0  c #3B3332",
"q  c #373838",
"w  c gray23",
"e  c #43352E",
"r  c #4D362B",
"t  c #4E392F",
"y  c #543A2D",
"u  c #5A3D2F",
"i  c #403636",
"p  c #463A37",
"a  c #4C3C34",
"s  c #453C3A",
"d  c #4A3D3A",
"f  c #543C31",
"g  c #4B413D",
"h  c #524136",
"j  c #5B4235",
"k  c #50433F",
"l  c #5A463C",
"z  c #634334",
"x  c #654A35",
"c  c #674C3F",
"v  c #6C4B3B",
"b  c #64543D",
"n  c #73513E",
"m  c #474646",
"M  c #4B4341",
"N  c #464748",
"B  c #4C4B4B",
"V  c #554642",
"C  c #574946",
"Z  c #5B4B45",
"A  c #564D4A",
"S  c #5C4E49",
"D  c #56514F",
"F  c gray33",
"G  c #5B5654",
"H  c #5D5855",
"J  c #575759",
"K  c #5D5D5D",
"L  c #644E43",
"P  c #694E40",
"I  c #6E5242",
"U  c #64534E",
"Y  c #6A584E",
"T  c #7A5642",
"R  c #7C5D44",
"E  c #7E5D4A",
"W  c #655551",
"Q  c #645A55",
"!  c #695A56",
"~  c #645E5B",
"^  c #6D5C58",
"/  c #715E54",
"(  c #746044",
")  c #7B684D",
"_  c #6A625E",
"`  c #796051",
"'  c #71615D",
"]  c #5F6060",
"[  c #626262",
"{  c #6B6460",
"}  c #6E6866",
"|  c #6C6C6C",
" . c #756562",
".. c #716965",
"X. c #7A6965",
"o. c #7F6E6A",
"O. c #76736F",
"+. c #747474",
"@. c #7B7673",
"#. c #777878",
"$. c #7B7B7B",
"%. c #815C46",
"&. c #845F48",
"*. c #8B634B",
"=. c #896849",
"-. c #90664D",
";. c #91684F",
":. c #956B51",
">. c #996E53",
",. c #9B7054",
"<. c #887C64",
"1. c #81706D",
"2. c #877672",
"3. c #817D75",
"4. c #8B7A76",
"5. c #817E7D",
"6. c #848484",
"7. c #898887",
"8. c #898589",
"9. c #898989",
"0. c #919292",
"q. c black",
"w. c black",
"e. c black",
"r. c black",
"t. c black",
"y. c black",
"u. c black",
/* pixels */
"                                                                                                    ",
"                                                                                                    ",
"                                                        W X.                                        ",
"                                                      W U '  .                                      ",
"                                                      W Z S s                                       ",
"                                                  4.1.V V S i                                       ",
"                                              4.4.1.1.Z S V 0                                       ",
"                                              4.2.X.2.' S 0 :                                       ",
"                                            4.1.' ^ 2.X.C : V W               O.                    ",
"                                            X.! U ! 2.1.A d U U           # # m [ # #               ",
"                                            d - ; Z X.! < p 0 2       # # # > H _ $ #               ",
"                                            $ @ X - V s ; i @ X     # # o w _ .._ B                 ",
"                                            ; ; $ @ = $ = 2 o X     # o 9 #.5.! +.#.                ",
"                                            : > : = @ o #   o o + # # - J 7.6._ #.[ +.              ",
"                                            > q q 6 @ o M 1.. X O + 8 J $.6.} { 7.| #.              ",
"                                          z 4 6 w q - @ W 1.: o + - [ $.6.$.{ S $.9.7.#.            ",
"                              ] ] ` >.    n I 5 4 q w > G X.U $ - J $.6.$.#._ _ { 6.0.6.#.          ",
"                        ] | #.| ~ E :.,.T T ;.I 2 > q q U U k w N +.6.6.#.| A K ~ Q 7.0.9.          ",
"                      ] | 6.9.6./ *.&.>.&.T :.*.l > q g L p p B ] +.5.$.$.[ M B D D Q 6.6.8.        ",
"                    B [ #.9.9.9.! =.&.*.&.x &.:.&.4 q l v d M H | +.#.5.$.] g     B A Q } |         ",
"    # - - - # 8 9 - q | $.9.9.6.S x R %.%.z z *.%.2 9 c v U | J $.#.6.6.+.J           K [ #.        ",
"    # > - # 8 q 8 > m | +.6.6.6.~ y R n n y u n v $ e v z V +._ J #.5.#.}             m             ",
"    # - > $ - > > w +.| +.+.$.5.Q r y y j _ l u t O 1 x c t b O.N J +.| ]                           ",
"      + - -         } | +.+.$.6.| D a t Q $...t & o t I ..h ( @.+.B J K                             ",
"                    F K +.+.#.9.#.[ K { +.+.+.~ - O j | O.( r <.| F 9 q                             ",
"                      J ] } | 5.#.K K [ K | +.+.q X 2 G f ( Z ) p g w -       o                     ",
"                      F ] ] [ +.+.J J ] K K ] [ , 2 $ % 1 G #.@.k *       o o                       ",
"                      B J K [ +.| J B J ] K _ F * 1 1 g K | } 5.| <                                 ",
"                        F ] | [ K F N N B B K g * 3 F | +.+.[ +.| N                                 ",
"                        J | +.| J N   N N N B 4 < F [ +.+.+.[ O.| F                                 ",
"                      ] | +.} F B         N N 0 4 B F +.#.+.| +.|                                   ",
"                  ] K ] ] ] F B               s g m B +.+.| ] |                                     ",
"                K [ ] K B B N                         #.+.K B                                       ",
"                  K ] B B N N                         +.} F                                         ",
"                    K B N N                         | | J B                                         ",
"                    [ F N N                         | [ B N                                         ",
"                    K K   m m                     +.| J m m                                         ",
"                    [ [     B m               > K } [   m m                                         ",
"                      K K     N m           - 9 J |     m N                                         ",
"                        [       B             J K       N N                                         ",
"                        J       q 9           [ B m     m m                                         ",
"                      w F         -         K K B m B m N                                           ",
"                      w           >         [                                                       ",
"                      w                   K                                                         ",
"                                        K K                                                         ",
"                                      m K                                                           ",
"                                    #.[                                                             ",
"                                    9.K                                                             ",
"                                    $.B                                                             ",
"                                                                                                    "
};
