/* XPM */
static char *ba61500b03c3482599b7b0c31c3d141cTTwqv4GUj9iO06gP[] = {
/* columns rows colors chars-per-pixel */
"50 50 141 2 ",
"   c #3A4F35",
".  c #3D5435",
"X  c #3E5939",
"o  c #434F37",
"O  c #445434",
"+  c #495635",
"@  c #445A35",
"#  c #4B5C35",
"$  c #455639",
"%  c #4A563B",
"&  c #465A3A",
"*  c #4C5C3B",
"=  c #525D36",
"-  c #50573B",
";  c #525D3C",
":  c #5A5F3D",
">  c #456135",
",  c #4C6136",
"<  c #466439",
"1  c #4D633B",
"2  c #4D6B3D",
"3  c #526137",
"4  c #5A6537",
"5  c #566A36",
"6  c #53633B",
"7  c #59653C",
"8  c #556A3D",
"9  c #5B6B3D",
"0  c #5C703E",
"q  c #606B3C",
"w  c #62723E",
"e  c #4C5741",
"r  c #4D5B41",
"t  c #515741",
"y  c #545C43",
"u  c #5B5E46",
"i  c #555749",
"p  c #565C4A",
"a  c #5A5E4B",
"s  c #5C5D52",
"d  c #605E4D",
"f  c #4F6040",
"g  c #4D6A40",
"h  c #556343",
"j  c #5A6444",
"k  c #556B41",
"l  c #5C6B44",
"z  c #556249",
"x  c #5C644B",
"c  c #536848",
"v  c #5D694B",
"b  c #4F7041",
"n  c #557141",
"m  c #5C7243",
"M  c #5F7048",
"N  c #5E6451",
"B  c #5E6950",
"V  c #616647",
"C  c #616C45",
"Z  c #61654D",
"A  c #626B4C",
"S  c #647444",
"D  c #6A7541",
"F  c #667942",
"G  c #6E7C46",
"H  c #66734B",
"J  c #69744B",
"K  c #64794A",
"L  c #6B784B",
"P  c #626553",
"I  c #646A53",
"U  c #696D56",
"Y  c #66665A",
"T  c #69665B",
"R  c #666A5A",
"E  c #6B6C5C",
"W  c #716F5E",
"Q  c #657153",
"!  c #6B7254",
"~  c #6B7B53",
"^  c #6D725B",
"/  c #737957",
"(  c #70735D",
")  c #72785F",
"_  c #6A6761",
"`  c #6D6C62",
"'  c #736E64",
"]  c #726F69",
"[  c #6E7261",
"{  c #6E7268",
"}  c #737365",
"|  c #787267",
" . c #757965",
".. c #797966",
"X. c #75746A",
"o. c #79756C",
"O. c #76786A",
"+. c #7B7A6C",
"@. c #787670",
"#. c #777970",
"$. c #7D7B72",
"%. c #7D7D71",
"&. c #7E7F72",
"*. c #7E7B74",
"=. c #7F7E75",
"-. c #817A6E",
";. c #827D73",
":. c #817F72",
">. c #817D75",
",. c #817E77",
"<. c #837F76",
"1. c #807F78",
"2. c #837F79",
"3. c #6D8045",
"4. c #7F806F",
"5. c #7E8070",
"6. c #7F8171",
"7. c #818074",
"8. c #828275",
"9. c #848176",
"0. c #858677",
"q. c #888276",
"w. c #828179",
"e. c #878278",
"r. c #86867A",
"t. c #85827C",
"y. c #87857E",
"u. c #86867E",
"i. c #88827A",
"p. c #888478",
"a. c #89847B",
"s. c #8A867B",
"d. c #89867D",
"f. c #8C867C",
"g. c #878879",
"h. c #88887A",
"j. c #88887B",
"k. c #88887E",
"l. c #888680",
"z. c #898680",
"x. c #8A8882",
/* pixels */
"8 k X.E ; ; 3 ; ^ f.O.& * &.l.=.g n l 1 2 v ..| r r i y } r.9.^ 6 6 9  .u.} I u.w.z z X.t.s.e.t.R 3 ",
"Q x t * * = # , U e.,.z r =.l.#.c ^ 5. .M k l h & O $ ; +.j.u.u.R 6 9 5.x.4.A ' E f 1 I &.u.2.} h z ",
"k.&.y = = = = = h | E * r R 7.B c 5.k.g.+.M 8 6 O O @ & [ 9.r.k.#.l H w.x.9.v # # # 2 6 x U Z k v =.",
"r.r.v h E +.j = ; * P E v f p & c 8.g.r.7.I M A ; + O @ p O.8.7.X.j A w.u.=.h $ # , , 5 S H h * } r.",
"g.8.x ^ a.,.Z = 3 P r.a.+.v > . & O.w.r.8.I ( | x * @ @ # t N Z h 6 9 [ 9.} 8 # 3 9 U C ^ @.N h &.u.",
"j.} ; h P x U E j ^ r.a.g. .2 @ . B =.6.' x | o.P 3 + # 8 U ( H 9 9 1 6 P j 8 8 4 ( 2.I Y ` p l +.r.",
"` y $ # & p #.=.I I 5.8.8. .g * r v I x % u ' } J ! } 8 U -.} A K ^ [ [ x * 6 3 6 O.,.Z 7 x 9 8 U +.",
"$ * $ . O z #.$.N h B }  .I 1 # R 7.#.x @ * s A D ..-.V Z T P j ^ &.=.w.X.h ; = 7 I Y V } ..} ^ k y ",
"# 6 .   * v { Y z h f r * # > $ E 9.<.N 3 6 3 , 6 ' } 6 3 6 y x O.4.5.=.*.z 6 9 C h 7 } l.2.s.u...j ",
"3 3 X & n m c h I 5.) 8 # @ # # T 2.;.x 1 , * & + h a k 8 1 , v +.5.5.=.X.h j ..,.} C | 2.l.e.8.u.` ",
", @ @ < b n g b v } [ 6 # @ + # A | T ; 3 1 & & 6 U ....U 9 k A +.8.,.*.X.h ..w.;.;.W Z ,.2.u.,.+.I ",
", > 2 2 2 g g g g h h 1 6 3 = 3 9 j j x 8 > * * ^ r.9.8.+.I l v  .&.$.*.E v | ;.;.;.' 7 P U U R x 6 ",
"5 , , 2 8 2 b < 1 8 3 8 v U V # 4 J ' ' Z 7 @ r 9.9.,.&...Z 7 y Y ..$.} P A x R T Y y 7 C 8 7 E ^ j ",
"8 8 V W ^ n g 2 8 9 3 h } ;.W : 3 Z ' | T 7 @ z 9.,.;...^ h V x t a Y V C H C l V T Z C S 8 x 5.y...",
"6 v +.-.;.I 1 k C S 9 A  ...P 7 : T | ' U h 1 Z -.+.^ P u W | +.| x y I +.+.P l ..;.;.| U k x #.2.X.",
"l | ;.;.-.U 6 ^ 8.8.U j A u : = = Y | | ( j ; h U P y : W -.-.;.<.P Z ..,.&.U I ;.<.,.2.+.m 6 x ` x ",
"V -.<.-.-.B z 8.p.7.} 7 V U U x = u T T x ; h j j 6 # Z -.;.;.-.' x U &.+.o.Q v } ;.,.9.#.M l l v A ",
"t -.;.;.} y 6 U R U S 7 ( ' ' T ; ; h y u ; I +.! 6 = Z +.| ' Y i : N } } E j k P ..<.<.{ x  .v O.,.",
"x P ' T u 6 L I I P 6 % ' ' | E ; * * U ' x E ,...j 3 - i a i u x h k j x h 8 9 l x R T z { j.! R =.",
"r 1 P U 7 P +.9.8.7.| ; Y ( Z x * ; h _ T r h ` R k 8 & O + i W } I h A +.&...I v k 1 6 v 7.+.L 6 i ",
"> h p.-.j ..8.;.8.9.&.h # h 3 3 1 * $ e e . & * * s ` ` u & s ' U K 6 T ;.;.7.+.[ h 1 & P } x 7 = 3 ",
"& U p.T & N o.,.8.+.T ; U ..} j & $ X X & & $ $ e E } | } x * C v Q x P ..-.;.#.X.x & * r y ; O + # ",
"1 p x + @ @ p E E a t ` s.9.8.^ 1 . X < c z 1 * x _ ' X...E 1 1  .9.} h x E } X.[ z B [ x * 6 * , & ",
"z x P * & + * 6 ; + x 8.,.5.+.5.B $ e R &.+.P 6 j Y _ X.| } p $ R | Y 1 & * r x y z ..l.+.v 6 6 1 1 ",
"-.9.;.' # # 6 ^ ..P U 5.2.+.X.O.x + U ;.-.;.Y ; 7 I ` ' E T t & 3 r % 1 y P P p r x =.r.u...8 # 6 v ",
"9.q.9.>.Z # ^ <.5.P B O.4. .[ N * * ..-.-.E 6 8 ; y a s s i h # > O $ * E X.X.] x z X.t.w.r.~ 6 x 8.",
"s.e.e.2.T k +.+.T y 6 Q ~ F l x I x Y T s % * * ; y * 6 6 v ..I # & + - I } X.X.R r P 5.9.w. .8 } l.",
"s.s.e.2.Z 6 P x x U ! G 0 l [ &.2.;.a * * = U 9.e.9.+.( k v .. .9 3 + + A ' X.] R h z N _ ` x * X.s.",
"y.8.+.P 6 3 3 h X.=.=.Q ; U ;.;.;.;.U S 8 j r.9.;.;.2.9.E 3 N Z 7 8 + + j E ' ` R k h 1 r k * 6 P =.",
"_ ! J 3 , 3 3 x &.w.=.X.e ' ;.;.;.;.( 6 3 v 8.&.-.,.-.-.' * + 3 S 9 6 # * Y _ ` x v v 1 l } X.} x x ",
"8 7 6 6 # # + y X.w.t.X.y } ;.;.;.<.W * @ * E o.;.;.+.+.P + 3 3 q S A V y y a a x &.,.x Y e.u.u.5.v ",
"9 3 # ; 6 9 3 ; E 2.w.@.t ' -.;.;.2.x 6 U } I h V Y T N h j V l 9 ! -.7.| P - t ;.p.$.v h O.w.u.u.[ ",
"9 t y 6 3 7 : : t Y o.` - ` ;.;.o.s t ( a.a.8.v 3 + + h } r.;.U 7 ^ q.,.2.-.P a ;.+.R j l x [ =.>.` ",
"h E ] E h ; 4 # + % y y * a ' U e $ y +.p.q.e.R 1 + * I 8.8.&.A 9 I ;.<.2.;.| u s a a } +.} K x h 1 ",
"_ X.X.o.B k U Z % 6 V T R h m k 1 & a ,.9.9.;.I 8 h j V I U x x A C E -.;.-.' h * x ..2.,.e.^ 9 S S ",
"o.| o.@.v ! w.&.C A E ' E M 1 9 r O e ..$.' Y h j [ O.X.R l j X.9.( j a s a u h h W p.,.,.e.! k k Y ",
"X.@.X.o.x U +...C V T T a 8 1 1 1 % e z x v l A E X.{ { X.I h X.<...j J ` U j 3 h $.,.,.;.+.K M h ] ",
"] o.@.` ; & y l q : i t x A 8 1 g e e y k H l j ^ { { ` { U ; x ` Y Z o.} } ^ F I $.&.o.` V m 9 P ] ",
"@.] Y x # : Z T V = o U q.;.U j * * P E } ! C 7 x _ { } { v 3 j y u E X.{ ` E l j E U I j ! ..I Z ' ",
"P x y 6 ; U *.2.2.V - ;.;.;.+.6 * ' ,.;.,.$.A ; ; x Y P v l A U h u ' ' _ _ ! F 7 l 7 q w ! w...j x ",
"k j E Z V ;.p.2.2.W - | ,.-.' ; x =.,.,.2.,.U y u x y 8 j R ` I ; j U E T C w 4 4 9 4 S 3.S ` e.P 7 ",
"8 } o.P x 2.y.2.2.U ; s ' ' N h a } @.o.} T x U ;.,.Y 6 6 p y O ; j C Z y 9 w q : = 7 9 A C y T u + ",
"Z | | x Z 2.p.2.2.U 3 8 j h z 6 h p u h u * ; | +.T y 3 3 * O & 8 7 8 8 U H 2 , # # 8 8 E | Z 7 7 = ",
"x ` T y x <.f.2.-.A m 7 Z } ` e t * h P E I y y a ; # + > # O X z X.R l g. .0 8 9 9 4 9 Y ' ' d 7 = ",
": - ; 6 ; E o.` J w 9 A 2.,.*.a 1 h O.*.;.+.E h y ( Z @ < < & . B r.X.z +.~ 0 8 7 8 3 w D d Y u = = ",
"= + 7 7 9 k y x : = j ,.e.u.,.x f X.*.@.$.$.| x U q.;.l @ < 1 & z X.` % 7 8 6 6 8 3 3 Z / W Z - = q ",
"4 7 4 9 9 = U +.j : } e.e.s...k P w.*.@.| @.| p U q.;.( 1 6 8 & & z r 2 9 8 9 9 9 4 H ,.a.a.9.U 3 7 ",
"4 D 4 7 7 u >.p.I V w.2.e.8.I 6 x *.*.X.X.| T % U q.;.( x } v 8 B [ Q m 4 9 0 F 9 S ! a.9.a.a.;.j 7 ",
"q S 7 A U Z 2.-.V I 2.9.| P z l S R X.} _ Y h ; I e.9.( x ' Z k [ j.&.l 6 5 : ! Q 6 I e.e.2.,.9.U 7 ",
"9 9 U g.U y Y P h j Z P y v +.[ l h s s p x ..+.I +.<.Z h i r 8 H R ! 9 7 7 7 r.5.z B w.e.9.w.8.U 8 "
};
