/* XPM */
static char *_8f7d6cde311455ff4bf67032710aadbRV8YGLJ57rzORUMB[] = {
/* columns rows colors chars-per-pixel */
"50 50 141 2 ",
"   c None",
".  c #050505",
"X  c #050908",
"o  c #0B0C0C",
"O  c #100F0F",
"+  c #1F1C0E",
"@  c #0F1110",
"#  c #091D17",
"$  c #141414",
"%  c #191814",
"&  c #1C1C1C",
"*  c #201D0F",
"=  c #052018",
"-  c #0D211B",
";  c #292616",
":  c #26251E",
">  c #28271C",
",  c #1F2322",
"<  c #1F2A27",
"1  c #132923",
"2  c #09382B",
"3  c #0D352A",
"4  c #10372C",
"5  c #173D33",
"6  c #232323",
"7  c #292627",
"8  c #2B2B2B",
"9  c #343329",
"0  c #343434",
"q  c #3E3D30",
"w  c #373838",
"e  c #3C3C3C",
"r  c #054432",
"t  c #074C39",
"y  c #144335",
"u  c #09543E",
"i  c #3E4A3D",
"p  c #494639",
"a  c #024941",
"s  c #0B5641",
"d  c #025841",
"f  c #115B47",
"g  c #2D4F45",
"h  c #344843",
"j  c #2A5C4F",
"k  c #245245",
"l  c #3B524C",
"z  c #385D54",
"x  c #08624B",
"c  c #096B4F",
"v  c #046347",
"b  c #13684F",
"n  c #036C51",
"m  c #136851",
"M  c #1C6452",
"N  c #057354",
"B  c #1F725A",
"V  c #2D6759",
"C  c #396B5D",
"Z  c #28735E",
"A  c #377361",
"S  c #454645",
"D  c #4B4B4B",
"F  c #535353",
"G  c #5C5C5C",
"H  c #615F5F",
"J  c #466860",
"K  c #4C6C64",
"L  c #437669",
"P  c #616261",
"I  c #6C6C6C",
"U  c #737373",
"Y  c #7B7B7B",
"T  c #05815E",
"R  c #0B805E",
"E  c #058260",
"W  c #098462",
"Q  c #028D67",
"!  c #098B66",
"~  c #148465",
"^  c #0C956F",
"/  c #039971",
"(  c #298A6F",
")  c #29846D",
"_  c #2C8A71",
"`  c #318870",
"'  c #06A277",
"]  c #02A379",
"[  c #09A87E",
"{  c #03A97D",
"}  c #50857B",
"|  c #5A8178",
" . c #66817B",
".. c #05B584",
"X. c #19B78B",
"o. c #3EA692",
"O. c #31BE9C",
"+. c #5C8F81",
"@. c #589080",
"#. c #71958B",
"$. c #66AF9E",
"%. c #52BCA8",
"&. c #53BBA3",
"*. c #06C591",
"=. c #0BCF9A",
"-. c #04D89E",
";. c #37C7A7",
":. c #11ECB2",
">. c #05F3B2",
",. c #0AF5B5",
"<. c #17F1B4",
"1. c #1AFCBE",
"2. c #41D8B3",
"3. c #79C6B6",
"4. c #25FDC1",
"5. c #34FFCE",
"6. c #3EFDC9",
"7. c #50FCCF",
"8. c #4CFCD1",
"9. c #5AFED4",
"0. c #7AFBDE",
"q. c gray52",
"w. c #8A8986",
"e. c #8C8C8C",
"r. c #949394",
"t. c #989796",
"y. c gray62",
"u. c #8EA9A7",
"i. c #89B3AF",
"p. c #91B0AA",
"a. c #8FB8B1",
"s. c #96B8B2",
"d. c gray63",
"f. c #B6B4B5",
"g. c #A0D8CB",
"h. c #8AFBDF",
"j. c #91F7DD",
"k. c #A9E6DD",
"l. c #B4E1DA",
"z. c #84FFE4",
"x. c #A3FBE9",
/* pixels */
"                                                                                                    ",
"                                                                                                    ",
"                                                                                                    ",
"                                                                                                    ",
"                                                                                                    ",
"                                                                                                    ",
"                                                                                                    ",
"                                                                                                    ",
"                                                                                                    ",
"                                                                                                    ",
"                                                                                                    ",
"                                                                                                    ",
"                                                                                                    ",
"                                                                                                    ",
"                  W                                                                                 ",
"              N k | z y                   F P P P e                                                 ",
"      E ..    t l s.l.u.z           % O 0 #.q.q.q.I 6 $                                             ",
"  Q ( @.g N   ' N ~ 2.z.a.C !       & & 0 I U Y U H 7 6 o                                           ",
"  v U l.C Q *./ W r ] 1.z.g.Z       & & 8 P P P H F 6 & X                                           ",
"  m p.x.X.d c r < - / >.4.j.+.c     , , 6 e 0 w S S 7 & o                                           ",
"  R #.h.<.{ d = 7 w ) =.,.9.$.s /   , 7 o $ $ $ % % & 8 X                                           ",
"  W K k.6.>.*.E l P J f ] 5.%.j L i : % + % $ $ $ : > % * 9                                         ",
"    _ i.0.1.-.E 5 F h r x ;.} r.f.w.q ; > 7 $ % & 8 9 ; p t.F                                       ",
"      V 3.7.:.c a h S 1 5 ` P t.d.q.6 $ 8 D w 0 e D & $ S y.F                                       ",
"      T Z &.8.O.M # $ $ o 2 8 D F e % $ 8 F F D F D & $ 0 F                                         ",
"        ] b ) o._ 2 O 0 7 X O & & O O $ 7 S S S D S , $ .                                           ",
"          ..N u ^     8 w @ & , & o O $ 6 S D S S e & $ .                                           ",
"                      $ 7 $ & & $ X O $ 7 S S S S S & $ .                                           ",
"                        , e 0 7 &   $ $ 7 D S D S S , $ .                                           ",
"                        0 U U D 0   $ $ 6 e e e e e & $ .                                           ",
"                        8 G G e , . O $ & 0 w w w 0 $ & .                                           ",
"                        $ , & O . . O $ O 6 6 , 6 & $ % .                                           ",
"                        & % $ o o . o $ $ & & & & & $ $ .                                           ",
"                        $ % $ . o . O $ O & & & & % $ $ . .                                         ",
"                        . O $ O . . $ % & & O . $ $ & $ $ .                                         ",
"                                . o 6 , , , O . & 6 6 6 & o                                         ",
"                                  O & & , & o . $ 6 6 & & o                                         ",
"                                  O & , & & . . O & & 6 $ .                                         ",
"                                  o % , , & . . o & 6 & $ .                                         ",
"                                  . $ % & $ .   o & & $ $ .                                         ",
"                                  7 0 8 7 & o   @ $ , 7 7 %                                         ",
"                                8 I q.Y I w o   & S U U U F                                         ",
"                                0 U r.e.I w o   $ D r.e.q.P                                         ",
"                                8 I r.q.G $     . 8 U r.Y G                                         ",
"                                , H e.U S o     . $ G e.Y D                                         ",
"                                , P U H e O       & D I I S o                                       ",
"                              o $ 0 w 0 $ .       O , 0 8 & $ .                                     ",
"                              O O $ $ $ $ .       o $ $ $ $ $ o                                     ",
"                              o o % $ $ $ .       o $ $ $ $ o .                                     ",
"                                  o O o o         . o O o o                                         "
};
