/* XPM */
static char *c7994c8c833a4bbdd1617b3720e5840bep0OrqItxgmDjq2n[] = {
/* columns rows colors chars-per-pixel */
"50 50 152 2 ",
"   c None",
".  c #050505",
"X  c #030907",
"o  c #0E0D07",
"O  c #0C0C0C",
"+  c #131313",
"@  c #161817",
"#  c #1D1B11",
"$  c #121B18",
"%  c #1B1B1B",
"&  c #13201D",
"*  c #27261F",
"=  c #1E1D20",
"-  c #052C22",
";  c #1F2724",
":  c #003729",
">  c #0C362A",
",  c #043427",
"<  c #1F3631",
"1  c #193D33",
"2  c #232323",
"3  c #282726",
"4  c #2B2B2B",
"5  c #20362F",
"6  c #373426",
"7  c #3B3825",
"8  c #33322E",
"9  c #283E38",
"0  c #343433",
"q  c #373837",
"w  c #3B3A37",
"e  c #3B3B3B",
"r  c #054230",
"t  c #0E4033",
"y  c #08433A",
"u  c #104637",
"i  c #164E3E",
"p  c #2F413B",
"a  c #36413D",
"s  c #4B4528",
"d  c #544D2C",
"f  c #4A4631",
"g  c #4F4A33",
"h  c #534E33",
"j  c #5A5438",
"k  c #5F593C",
"l  c #5B5434",
"z  c #60572D",
"x  c #615B39",
"c  c #635C37",
"v  c #7B6F36",
"b  c #7E7236",
"n  c #095640",
"m  c #0A5B45",
"M  c #105742",
"N  c #195443",
"B  c #2A4941",
"V  c #3A4F49",
"C  c #016046",
"Z  c #0A654B",
"A  c #02634C",
"S  c #076E54",
"D  c #096D52",
"F  c #176650",
"G  c #1F6351",
"H  c #136E55",
"J  c #1A6F58",
"K  c #057456",
"L  c #0B7356",
"P  c #037857",
"I  c #0F775A",
"U  c #087F5E",
"Y  c #05795A",
"T  c #1C715A",
"R  c #286B58",
"E  c #296654",
"W  c #27745C",
"Q  c #287664",
"!  c #444344",
"~  c #484747",
"^  c #4B4B4B",
"/  c #4D5E5A",
"(  c #535353",
")  c #5C5C5C",
"_  c #625D46",
"`  c #746C49",
"'  c #426D63",
"]  c #4B7D6E",
"[  c #527067",
"{  c #55726C",
"}  c #626262",
"|  c #6C6C6C",
" . c #747474",
".. c #7C7C7C",
"X. c #807436",
"o. c #068763",
"O. c #0D8061",
"+. c #048B65",
"@. c #0A8B67",
"#. c #118060",
"$. c #138E6C",
"%. c #04936C",
"&. c #069C73",
"*. c #2B8970",
"=. c #3C8875",
"-. c #318E78",
";. c #05A67B",
":. c #04AC7F",
">. c #11A57E",
",. c #478B79",
"<. c #54897B",
"1. c #09B788",
"2. c #05B787",
"3. c #38A389",
"4. c #3CAB90",
"5. c #489A83",
"6. c #75948E",
"7. c #639F92",
"8. c #52B4A0",
"9. c #02C48F",
"0. c #04CF98",
"q. c #04C995",
"w. c #05D79E",
"e. c #2CCEA5",
"r. c #2FD1AE",
"t. c #05E7A9",
"y. c #0EEBB1",
"u. c #0BFBB9",
"i. c #1EF7BC",
"p. c #17FCBD",
"a. c #36E3B5",
"s. c #63D2B8",
"d. c #33FFCA",
"f. c #57EECD",
"g. c #49FACC",
"h. c #48F7D0",
"j. c #58FDD0",
"k. c #7BF9D7",
"l. c #70FCDA",
"z. c #79FBDE",
"x. c #838383",
"c. c #8D8D8D",
"v. c #80A99F",
"b. c #91BEB6",
"n. c #A0BDBA",
"m. c #9ACBC4",
"M. c #98DACA",
"N. c #AACDCA",
"B. c #A6D9D1",
"V. c #88E2CC",
"C. c #A9E3D5",
"Z. c #91FBE2",
/* pixels */
"                                                                                                    ",
"          1.H 5.<.R I                                                                               ",
"  @.Y %.  ;.N [ M.B.6.W &.                                                                          ",
"M ' { 1 +.  :.+.o.a.Z.b.' $.                                                                        ",
"5 n.m.F %.&.O.K : 9.p.l.m.=.                                                                        ",
"B N.z.2.C > ; $ , 2.t.p.z.7.Z                                                                       ",
"m 6.Z.i.0.P 9 ! V O.%.q.d.s.J ;.                                                                    ",
"o.,.C.j.u.w.*./ ( e y A e.f.G @.                                                                    ",
"  L ] V.g.y.S r p ( < - *.3.u %.                                                                    ",
"    L R 8.h.r.T > @ + O 1 1.                                                                        ",
"      &.H Q 4.3.N X 3 q &                                                                           ",
"          P Z n D   % 0 4                                                                           ",
"                      % ~ q                                                                         ",
"                        0 } e + +                                                                   ",
"                          e e 2 % +                                                                 ",
"                          + 3 2 % 3 %                                                               ",
"                            + = 2 2 = @                     6 j j x h 2                             ",
"                              + 0 V 3 3 +                 # z b X.X.v s @ % %                       ",
"                                = 0 0 3 @ 2 ~             # d k ` x x s 0 2 = .                     ",
"                                  ~ c.~ e | ..)           % f k _ h l 7 2 2 = .                     ",
"                                    8 2 0  .} 8 q ~     . + 0 g d l g 3 + = 2 .                     ",
"                                      % ^ ! = = 0 ) ! = + O + 8 e e 8 + @ = % O                     ",
"                                            O @ % 3 3 3 = 2 * % 2 % @ 2 q 0 e ( 8                   ",
"                                                O + % ; = 3 ~ 4 % % 4 ! ~ ~ } x.( %                 ",
"                                                    + % % 3 ! e 8 3 e ! ! q 0 4 4 +                 ",
"                                                        % 4 e 0 q 4 e e 2 + @ = % O                 ",
"                                                        ! ! V 0 0 3 q e 3 + + 2 2 @                 ",
"                                                        q e e 4 4 2 q e ( 0 O = e ! 4               ",
"                                                        + 4 0 3 2 = 0 0 0 + . ~ ..c.} @             ",
"                                                        = 4 8 4 0 3 4 4 3 + . e ..x...2             ",
"                                                        O % = 4 0 4 8 4 4 O . = ( ) ^ %             ",
"                                                        O + O % @ @ + @ @ @ + + 2 3 2 O             ",
"                                                      O @ + + = = % O @ % @ + @ @ 2 2 O             ",
"                                                      O % 2 3 2 % @ O + % % . O @ % % O             ",
"                                                      + = 3 3 2 O + @ % % % O . O O O               ",
"                                                      + ; 3 3 2 @ + % % % % O                       ",
"                                                      O % 4 2 2 + O % % % % O                       ",
"                                                      . + 2 3 2 O . @ % % + O                       ",
"                                                        O % 2 % . . + % % % @                       ",
"                                                        0 ( ^ e 4 O 3 0 0 0 4                       ",
"                                                        ^ | } } ( % 0 ) ~ e %                       ",
"                                                        } | | | ! @ O 8 4 @ .                       ",
"                                                        } .. .} 3 + . + O + O                       ",
"                                                        ) ..| ) 4 O + @ @ @ O                       ",
"                                                        ! ( ! 0 2 + + @ % @ + .                     ",
"                                                        % 4 3 = O   . O O + O                       ",
"                                                      O % 3 3 2 @                                   ",
"                                                      . O + + + O                                   ",
"                                                        . O O . .                                   ",
"                                                                                                    "
};
