/* XPM */
static char *_69efd45303046cfaa1dd33b3ea04bc88ydbfqFsKAWmLSat[] = {
/* columns rows colors chars-per-pixel */
"50 50 157 2 ",
"   c None",
".  c #1E1D1D",
"X  c #211E1E",
"o  c #24211F",
"O  c #1F1D20",
"+  c #221F20",
"@  c #252323",
"#  c #292625",
"$  c #2C2926",
"%  c #292728",
"&  c #2D2A2A",
"*  c #322D2C",
"=  c #34302D",
"-  c #322F30",
";  c #353231",
":  c #393533",
">  c #3D3936",
",  c #3A3739",
"<  c #3E3B39",
"1  c #473F35",
"2  c #483E34",
"3  c #423E3B",
"4  c #46413E",
"5  c #49433F",
"6  c #464241",
"7  c #4B4642",
"8  c #4E4944",
"9  c #4F4B49",
"0  c #524B46",
"q  c #594F46",
"w  c #544E4A",
"e  c #57514C",
"r  c #5A534D",
"t  c #5C5651",
"y  c #5F5954",
"u  c #61574C",
"i  c #64594D",
"p  c #605753",
"a  c #605A55",
"s  c #615B55",
"d  c #615A54",
"f  c #635B54",
"g  c #625B55",
"h  c #615A56",
"j  c #615B57",
"k  c #625A56",
"l  c #625B56",
"z  c #605954",
"x  c #645B54",
"c  c #635C55",
"v  c #625C57",
"b  c #655C54",
"n  c #645C55",
"m  c #655C56",
"M  c #645D56",
"N  c #645D57",
"B  c #655D57",
"V  c #655E56",
"C  c #655E57",
"Z  c #675E57",
"A  c #635B55",
"S  c #695F55",
"D  c #6A5F56",
"F  c #695E55",
"G  c #615B58",
"H  c #635C58",
"J  c #635D59",
"K  c #635D5A",
"L  c #655D58",
"P  c #645E58",
"I  c #655E58",
"U  c #655E59",
"Y  c #665E58",
"T  c #665F58",
"R  c #675F59",
"E  c #655F5A",
"W  c #655F5C",
"Q  c #645E59",
"!  c #685F5A",
"~  c #685F59",
"^  c #67615A",
"/  c #67605D",
"(  c #67615E",
")  c #67615F",
"_  c #66615C",
"`  c #696059",
"'  c #686159",
"]  c #6A6159",
"[  c #68615A",
"{  c #68605B",
"}  c #69605B",
"|  c #68615B",
" . c #6B635A",
".. c #6B625B",
"X. c #6C6158",
"o. c #68605C",
"O. c #68615C",
"+. c #69615D",
"@. c #6A615C",
"#. c #6A615D",
"$. c #69625C",
"%. c #69625D",
"&. c #69635D",
"*. c #6A625C",
"=. c #6A635D",
"-. c #6B635D",
";. c #68615F",
":. c #6A615E",
">. c #68625F",
",. c #6A625E",
"<. c #6C635C",
"1. c #6B645E",
"2. c #6C645E",
"3. c #6C655F",
"4. c #6E655F",
"5. c #6F675F",
"6. c #6B625C",
"7. c #71665D",
"8. c #71665D",
"9. c #71685F",
"0. c #74685F",
"q. c #75695F",
"w. c #6B6460",
"e. c #6C6561",
"r. c #6D6761",
"t. c #6F6760",
"y. c #6D6763",
"u. c #6E6762",
"i. c #6C6561",
"p. c #6F6861",
"a. c #6F6862",
"s. c #6F6964",
"d. c #706761",
"f. c #716961",
"g. c #716862",
"h. c #736A63",
"j. c #766B61",
"k. c #756C63",
"l. c #716A64",
"z. c #736C64",
"x. c #756D65",
"c. c #776D64",
"v. c #766D66",
"b. c #766E67",
"n. c #736A64",
"m. c #786D63",
"M. c #7A6D62",
"N. c #766F69",
"B. c #756D69",
"V. c #786F68",
"C. c #7F7160",
"Z. c #77706B",
"A. c #7C726A",
"S. c #7A726D",
"D. c #7B7471",
"F. c #807773",
"G. c #817873",
/* pixels */
"                                                                                                    ",
"                                                                                                    ",
"                                                                                                    ",
"                                                                                                    ",
"                                                                                                    ",
"                                      r r f N N y p.+.T y f                                         ",
"                              5.0 r b y y ' ' b r +.b b u r b T y r                                 ",
"                          f +.y 0 r y y 7 z f b w y ..<.r e +.T r w W w.                            ",
"                  ( +.8 y y H y 7 w e r 5 7 0 0 3 8 w r 8 f  .N t 6 y 3.t 9   s.                    ",
"                f T ~ 8 t ( ( y.y w 8 3 3 0 7 0 e r r f e 5 7 e 6 e 9 y 3.6 r H K                   ",
"              T r y f f 8 y w.w.t 9 y y r p e 0 w q r r r y e 8 3 t y 7 7 r H H y t y               ",
"            7 e r t T +.( y t w t w.b e q 0 4 0 r 8 r 0 5 0 r N y w t 7 w 5.p.N y y w               ",
"            0 7 7 r p.l.A.p.N Z.w.e w 6 r e 8 0 0 5 0 0 z e r r y w.t e +.8.m.j.w 7 t               ",
"            ..z r e w y ( t v.^ y e w y y e 8 0 r f i i r r y 8 t f w.t e ..D p y f T +.            ",
"          8.b f z.p.( t w p.( y 0 e 0 b ^ r z f f ' X.q. .' q w r r r N r 9 ~ l.V.! +.w.w.          ",
"        e D x <.v.v.v.r N 3.e 3.y 0 N t y f.b 0 5 0 q r t r y t e t 6 r 5.y T d.j.d.+.! +.          ",
"        u 5 5 ' y ' &.t r.s r ^ y T y e y y H y b <.F u r x z y t r e r ^ ^ 0 ^ z r y 7 w K         ",
"      ..X.' q ' s i w &.z.s r y f p.N e e w.y.^  .0.8.b z r s.G r r y 9 z 5.r r l.0.<.r T z         ",
"      5.X.b r ' s ' r  . .' p.q l.Z.f r w.t y H D 8.0.f y r y w.y r w 5 r k.D <.B.h.~ r t t         ",
"      D ' r e r t r 0 p.' r t e 5.Z.r ' s.w.K t z 0.0.D y e 8 K w.e b T r q.N y <.W f 8 G v.w.      ",
"    4 3 5 3 4 r 8 5 5  .' i ' r 3.D.^ z Z.z.w.y e ' <.~ f y 7 f +.r y w r <.~ w t e 9 4 t t w       ",
"    y f y 5 4 s ' r 8 ' ' 0 0 u z p.f.f D.S.B.s.^ y +.+.w.y 8 t y 8 t T x M.~ 5.v.w.t 6 k K w.      ",
"    +.( ' w 5 0 y ' 8 t ' w 0 ' ' f 3.N y.Z.D.D.S.w.y 5.+.t w t y 7 0 q ~ A.T g.B.e.8 5 r k K       ",
"    y f r w 5 3 3 8 w 0 ^ i t t ^ 5.y ' N f w.D.G.Z.T t r G t ) f z z e 0.V.r t r t 3 3 r ! e.      ",
"    0 9 7 6 : 7 w r  .w r ' 8 0 ( _ B.w.f y r e r y f y e 0 ! +.p h.f T N.t y w.b u * : 0 w y       ",
"    9 w w 8 3 < ' y ' w 5 s y r t y y z.Z.l.+.T +.+.B.y.r e r y w y N S.l.8 w.d.j.r $ 5 w 0 t       ",
"    6 x H y 8 $ 0 s w 0 5 w 9.' y y e b T ( w.( 5...N f p y y 0 w y 5.<.9 r y f d.> * w y T e       ",
"    ; r f f r : = 5 y ' ' 5 r y._ r H N T y 9 7 7 0 w r K w 0 t 0 f y 5 t y.<.K 8 % 3 5 e ~ 3       ",
"      0 y e 6 : $ 4 q X.q.8.e e _ _ y t t 9 y 9 9 G 7 9 K w t y.K 6 3 6 K ! <.:.: $ 3 7 5 e $       ",
"      4 7 7 w 0 = o > S 8. .m.r 6 e _ _ ) y y t 9 t e t T y.s.K 6 6 x e 7 ! G , % 6 p x 0 ; +       ",
"      : 8 z K t 5 = o 4 i F.9.5.y 7 6 7 t ) ) ) y.) ) K K e 8 3 8 w.d.<.y 3 - % 3 F 7.7.! ;         ",
"      : - w K t 5 = o $ 4 u f.l.e _ y.J 9 9 6 6 6 6 6 3 6 w e K y z w.G 6 + # % 0 7.g.x 3 @         ",
"        * > f w < 3 6 & = = 4 5 _ B.B.B.t S.z.( t y y y r y e.w.! 6 3 & + + , 8 5 e X.0 # +         ",
"        * & : > 9 y t 7 : * $ * 7 y w._ t Z.s.s.K y y.s.W t e.y w & O O @ 3 t G x 8 3 * #           ",
"          # 3 N y y y y 0 = : $ $ ; 3 > 6 t y w.t 7 w w 0 3 , - & + @ & , z k k K ! e *             ",
"            ; y w.K H H 3 5 q 5 = # & @ @ # & & @ @ % % % # * @ * - 3 w 6 w k z t e , %             ",
"            X & 8 W G 3 r f y f r : ; # @ # X @ @ % - & % % : * 3 w 9 t z 6 6 p 7 % #               ",
"            . # & > : ; e b f f 0 7 r e 8 4 ; 7 6 6 < , 8 w w w 3 w p :.K 9 * 3 + # #               ",
"              # & & + X * , w K 7 ^ v.8...y w +.W y w 6 t y G K 0 7 e 5 , % + @ + &                 ",
"                  # + + # @ @ * 7 ( +.p.s.r f l.w.y y e y y K r 5 * & # % + + + +                   ",
"                        @ @ # @ & : : 3 7 6 7 e w w y w 3 > ; % # + @ @ # +                         ",
"                            # @ @ & & % % @ # X % & - # @ & & % @ X @ #                             ",
"                                @ @ % & & @ # o + @ # @ @ @ @ & &                                   ",
"                                        * @ @ @ @ @ @ @ @                                           ",
"                                                                                                    ",
"                                                                                                    ",
"                                                                                                    ",
"                                                                                                    ",
"                                                                                                    ",
"                                                                                                    "
};
