/* XPM */
static char *_fb5e5dfc39e4934daad8cd93a304baf0Hf9IKyUn6PXLY8O[] = {
/* columns rows colors chars-per-pixel */
"50 50 200 2 ",
"   c None",
".  c #1F1D1E",
"X  c #211F1F",
"o  c #22201E",
"O  c #211F20",
"+  c #252323",
"@  c #292626",
"#  c #2C2926",
"$  c #292628",
"%  c #2D2A2A",
"&  c #312E2C",
"*  c #35312F",
"=  c #3A332E",
"-  c #332F31",
";  c #363232",
":  c #3A3634",
">  c #3D3937",
",  c #3E3A3A",
"<  c #423D3C",
"1  c #433B35",
"2  c #45403D",
"3  c #49423E",
"4  c #453F42",
"5  c #464142",
"6  c #4B4545",
"7  c #4E4946",
"8  c #4D464A",
"9  c #4F494B",
"0  c #534B47",
"q  c #524B4C",
"w  c #584D4B",
"e  c #56504D",
"r  c #59524F",
"t  c #554E52",
"y  c #584F54",
"u  c #575056",
"i  c #5B5354",
"p  c #5F5956",
"a  c #5D555A",
"s  c #5F585D",
"d  c #615A55",
"f  c #61575A",
"g  c #635B5C",
"h  c #6A5E5C",
"j  c #655A55",
"k  c #67594E",
"l  c #67615D",
"z  c #6A625E",
"x  c #70655E",
"c  c #665D62",
"v  c #695F62",
"b  c #695B72",
"n  c #6B6264",
"m  c #6D646A",
"M  c #676067",
"N  c #716564",
"B  c #736A66",
"V  c #71666B",
"C  c #746A6D",
"Z  c #7A6D6E",
"A  c #6E647B",
"S  c #6F6F7C",
"D  c #756B71",
"F  c #7A6E72",
"G  c #716E7A",
"H  c #7A6F79",
"J  c #7D7175",
"K  c #7D737B",
"L  c #7A757F",
"P  c #816F66",
"I  c #81726D",
"U  c #806D74",
"Y  c #837475",
"T  c #82767B",
"R  c #86797D",
"E  c #8A7A7D",
"W  c #8A7778",
"Q  c #675C84",
"!  c #665F88",
"~  c #5D669F",
"^  c #6E658B",
"/  c #6C6786",
"(  c #71658C",
")  c #776D86",
"_  c #6A7688",
"`  c #7C7483",
"'  c #7A7986",
"]  c #7C758B",
"[  c #757987",
"{  c #646B9D",
"}  c #686995",
"|  c #766C92",
" . c #7B6F92",
".. c #697996",
"X. c #737D91",
"o. c #7C759C",
"O. c #767597",
"+. c #5F76AA",
"@. c #5C79B7",
"#. c #5B67A1",
"$. c #6372A5",
"%. c #6B72A2",
"&. c #6779A6",
"*. c #6272AA",
"=. c #6C7CAD",
"-. c #6979A9",
";. c #7977A3",
":. c #757AA4",
">. c #7D7CA4",
",. c #737BAD",
"<. c #647CB5",
"1. c #6B7DB3",
"2. c #647CBB",
"3. c #717DB2",
"4. c #587CC4",
"5. c #837780",
"6. c #857A82",
"7. c #8A7E85",
"8. c #897D8C",
"9. c #857988",
"0. c #807297",
"q. c #8279A1",
"w. c #68819D",
"e. c #7D8394",
"r. c #758399",
"t. c #5D82BD",
"y. c #6686AE",
"u. c #6C8CAC",
"i. c #6A84A6",
"p. c #7687A3",
"a. c #7986A4",
"s. c #738AA2",
"d. c #7A8CA4",
"f. c #7684AD",
"g. c #718BAC",
"h. c #7880AB",
"j. c #6483B2",
"k. c #6A81B4",
"l. c #678AB4",
"z. c #6B8CB5",
"x. c #6383BC",
"c. c #6B83BC",
"v. c #648DBD",
"b. c #6C8ABA",
"n. c #7284B4",
"m. c #748EB4",
"M. c #7789B5",
"N. c #6591BC",
"B. c #6B95BC",
"V. c #6A94B8",
"C. c #7794BA",
"Z. c #5D83C3",
"A. c #5E8DC5",
"S. c #5E8EC9",
"D. c #5D85CB",
"F. c #5C93CB",
"G. c #5D96C6",
"H. c #5C87D0",
"J. c #5B89D4",
"K. c #568BD9",
"L. c #5D9CD4",
"P. c #5A93DC",
"I. c #549EDD",
"U. c #5995D5",
"Y. c #6383C3",
"T. c #658BC2",
"R. c #6C8BC4",
"E. c #658BCA",
"W. c #6889CB",
"Q. c #6595C4",
"!. c #6A93C1",
"~. c #6593CD",
"^. c #6B94CA",
"/. c #679AC9",
"(. c #618ED5",
"). c #618FDA",
"_. c #6A92D3",
"`. c #639FD3",
"'. c #679BD6",
"]. c #5FA2CC",
"[. c #58A5D8",
"{. c #6CA4CE",
"}. c #62A7DA",
"|. c #65A5D5",
" X c #599AE5",
".X c #55A3E5",
"XX c #5BA3E4",
"oX c #5BAAE1",
"OX c #57ACE9",
"+X c #56A9E9",
"@X c #59B3EB",
"#X c #5CB6E5",
"$X c #61ADE0",
"%X c #62B6E7",
"&X c #54C3F6",
"*X c #8B808B",
"=X c #908287",
"-X c #8B819A",
";X c #958797",
":X c #8184A6",
/* pixels */
"                                                                                                    ",
"                                                                                                    ",
"                                                                                                    ",
"                                                                                                    ",
"                                                                                                    ",
"                                                                                                    ",
"                                        i   l d l B n   p                                           ",
"                                0 j n d V Z Z n m J C C j z x n d                                   ",
"                          z n p i m V f g C Z m c D D Z f N F n i a n p                             ",
"                  z   r g h C s a c m v q c g s t c m m g F F C s u Z n i 7                         ",
"                d l d 0 V G J J a g y 8 8 q q u s g h g i y m g t c c J n 5 d z j                   ",
"            B d r l n g s D ` L c u c c S X...w.i.....[ G g y 8 t m s s p c n d p p                 ",
"            e r d l D F m m m p b ' d.V.l.+XOX..A.L.&.[.F.y.X.D s c c 8 n Y D l d p 9               ",
"            6 6 i Z R R =XV C R [ z.oX#X..Z.K.4.J..X~.U.-.S.j.u.' C s m K R 7.F q 9 9               ",
"          B z g a p n T D D *Xr.u.A.<.E.4.4.4.4.@.x.T.T.t.j.N.G.i.[ D g C Y Z n g n z               ",
"          x z Z R D m s c 5.d.B./.A.t.=.Y.@.} Q } |  .] ( $.U.A.N.V.X.m a h Z R T Z B n             ",
"        j N V T 7.6.R g T r./.h.U.@.} Z.1.;.k.F.U.P.(.W.<.{ { Z.j.Q.oX[ F m K W R K Z n z           ",
"      j w w v C C T D m ' Q.T.M.x./ &.@.1.R.&.{ O.} -.Y.2.<.Y.*.4.`.].i.K c m F N n g t i           ",
"      x x h n C z h h R :X#XT.|.%. .D.Z.1.` H F L W U / 2.=.,.D.4.x.l.|.' F a C F Y m c z d         ",
"      x B N N Z C C n E m.m._.%Xq.>.P.x.A b D D J E Y m / S.%.%.Y.D.I.OXp.W N R 7.R V v g p         ",
"    h x V v h n V n n R B.}.'.oX0.:. X,.` D D m U E T V b t.t.^ 2.P.1.i.g.E v Y K Y v s C C         ",
"    3 6 u 8 u a t q h K B.:.x. Xq.q.$Xh.9.5.H c V T H F A @.I.( %.+X~.`.g.T v g g f t a m i q       ",
"    i p g 5 a C m f p J B.|.~.J.c.0.^.!.8.8.5.` V C K H / Z.J./ ~ @XE.!.d.W N R T D t u V z z       ",
"    z V V q 0 h D M i F u.@Xv.E.W.1.o.^.:X8.*X*X7.V F 5.-.K.@.Q +.I.S.{.8.7.F 7.9.C 9 f n n j       ",
"    d n M r 9 8 e i i n [ N.u.R.c.T.c.=.R.,.q.;X8.0./ k.x.Y.$.( x.<.Q.{.7.R c v V c < u m V l       ",
"    e i u 6 < t a V C u Z z.&XQ.R.3.n.c.W.).)._.'.'.E.*.#.Y.| k.C.m.`.a.R c D C N i % q g h d       ",
"    7 q t 9 : h D n C y v G N.V.^.~.n.o.>.,.1.2.f.:.o.,.Z.~ 2.'.}.C.C.;XC c L R Y q * t u 0 q       ",
"    e z m c > : C V g u q C ' u.f.}.~.b.n.:.O.O.;.,.R.W.2.2.x.v.u.w.*XF u c V T F - 5 n n l w       ",
"    3 j n V q & 3 u m D g t C L s.B.g.c.c.XX$X.XP.K.H.x.T.$XT.N._ D n t D T D v 6 % 6 u z d &       ",
"    > d v c 6 * % f F Y W N i D L r.N./.|.`.<. X+.<.+X`.m.#XQ.e.b t 5 g U F T m % ; r q w 7 O       ",
"    > 7 6 q i 6 + & a Y Y Y F q u D L X.z.z.j.F.A.l.].N.a.X.R C 9 t V t v Y c - & r g y < &         ",
"      > u h V s : + = d P E Y F i 9 t h F L ` ' ] [ ) H F c u 4 c Y H C y 9 - % 7 Z Z Z p @         ",
"      ; , d B s 9 % @ = k I E J s K C p u 9 9 i u u 9 8 t u g V c L T V 4 + $ > n T Z k ; +         ",
"      % * 7 z u 5 5 : % = > z z G *X*XK B *XC M s M M b M D K T M t t % + + , 8 i N x < +           ",
"        * * 2 , u m s , * # o 3 m H 6.V D 7.R R m D L L b D Y m i $ . . @ 6 c C f 6 < # #           ",
"          % 6 p p n m c 3 * & + * , 9 9 m D J ` c M M m a 9 5 ; $ . $ $ q m m m h d < #             ",
"          @ 6 z j d m g < t 0 : % % % + % & ; : - % % % % % % $ % - 8 t 9 m h d p i :               ",
"            + < p l p 5 j m m h 7 % % O + + . . + % $ $ $ % - % 7 a s M u 4 e p < $ +               ",
"            o % : 7 ; 6 d n v N u i i 9 6 : : , , < ; , 8 t a 9 y f n N d 5 > , + + @               ",
"              # # % . @ > 7 j g 0 Z J F C i M C m c t a c m m c 6 r i 0 , $ + . + @                 ",
"                # + . + # @ & , g B B Z Z i B J C c g s h z z p < : % $ $ X + + @                   ",
"                  O   + + + + + > , 2 7 i 7 p l i u h q 6 < ; % @ + + + + .   X                     ",
"                          + @ o # % % @ # @ @ @ % ; > $ @ % % + + X + +                             ",
"                              o + + @ % % o @ . + + + + + + # % @                                   ",
"                                      & # + @ + + + + + @ +                                         ",
"                                                                                                    ",
"                                                                                                    ",
"                                                                                                    ",
"                                                                                                    ",
"                                                                                                    "
};
