/* XPM */
static char *_6df18390594476b88ab607b1ce9f2fc4mlvUOvqG199emD4[] = {
/* columns rows colors chars-per-pixel */
"50 50 145 2 ",
"   c None",
".  c gray2",
"X  c #0C0C0C",
"o  c #12110E",
"O  c #0A1914",
"+  c #141414",
"@  c #1C1C1C",
"#  c #1C1B12",
"$  c #221F0F",
"%  c #201E15",
"&  c #231D1E",
"*  c #0D251C",
"=  c #14201C",
"-  c #232012",
";  c #282517",
":  c #26241B",
">  c #2A281D",
",  c #0E2720",
"<  c #0F352E",
"1  c #033F2D",
"2  c #0A3C2E",
"3  c #1F3C35",
"4  c #232323",
"5  c #272728",
"6  c #2C2C2C",
"7  c #30302F",
"8  c #3E3C2E",
"9  c #343434",
"0  c #3C3C3C",
"q  c #034E3A",
"w  c #0A4E3B",
"e  c #0E4233",
"r  c #164337",
"t  c #124638",
"y  c #104839",
"u  c #1B483C",
"i  c #21453C",
"p  c #2F443E",
"a  c #044E42",
"s  c #015A42",
"d  c #1A5C48",
"f  c #2D4A43",
"g  c #255345",
"h  c #225E4E",
"j  c #3E534D",
"k  c #03674C",
"l  c #066C4F",
"z  c #19614D",
"x  c #036D50",
"c  c #0C6E53",
"v  c #166650",
"b  c #1E6853",
"n  c #0C7458",
"m  c #047E5C",
"M  c #0B7A5C",
"N  c #047252",
"B  c #147056",
"V  c #2A6758",
"C  c #22715A",
"Z  c #3F6D60",
"A  c #257D67",
"S  c #2C7B69",
"D  c #3C7868",
"F  c #454545",
"G  c #4B4B4B",
"H  c #4E514F",
"J  c #565447",
"K  c #4F5957",
"L  c #525252",
"P  c #5B5B5B",
"I  c #47645C",
"U  c #626052",
"Y  c #4E6662",
"T  c #487E71",
"R  c #646464",
"E  c #6C6B6B",
"W  c #747575",
"Q  c #787775",
"!  c #787875",
"~  c #797979",
"^  c #04855F",
"/  c #048561",
"(  c #0C8362",
")  c #038D66",
"_  c #098966",
"`  c #098D6E",
"'  c #128364",
"]  c #00996F",
"[  c #0A9671",
"{  c #039F74",
"}  c #2F8A74",
"|  c #338C74",
" . c #3C8A74",
".. c #05A076",
"X. c #05A479",
"o. c #0AA178",
"O. c #58877B",
"+. c #69827E",
"@. c #06BA8A",
"#. c #08B88A",
"$. c #469787",
"%. c #439D87",
"&. c #509884",
"*. c #46BAA2",
"=. c #77AFA0",
"-. c #6FB7A8",
";. c #05C38F",
":. c #04D29A",
">. c #05E2A6",
",. c #09E8AA",
"<. c #0CE2A9",
"1. c #05F3B2",
"2. c #1FF5BD",
"3. c #1AFCBE",
"4. c #43C0A1",
"5. c #44DBB9",
"6. c #2BF5C0",
"7. c #28FCC3",
"8. c #30FDC6",
"9. c #51E8C4",
"0. c #42F4CE",
"q. c #59F6CE",
"w. c #53F9D2",
"e. c #60EDC9",
"r. c #69FDD6",
"t. c #77FBDD",
"y. c #848484",
"u. c #8B8B8B",
"i. c #819895",
"p. c #939494",
"a. c #9F9F9F",
"s. c #84A5A1",
"d. c #84B9AB",
"f. c #8CBAB5",
"g. c #96BEB5",
"h. c gray65",
"j. c #AEAEAE",
"k. c #9FC8BF",
"l. c #B0D0CC",
"z. c #8AEFD8",
"x. c #8CE3D2",
"c. c #84FEDE",
"v. c #86F4DA",
"b. c #BCE5E0",
"n. c #A6F2E4",
/* pixels */
"                                                                                                    ",
"                                                                                                    ",
"                                                                                                    ",
"                                                                                                    ",
"                                                                                                    ",
"                                                                                                    ",
"                                                                                                    ",
"                                                                                                    ",
"                                                                                                    ",
"                                                                                                    ",
"                                                                                                    ",
"                                                                                                    ",
"                                                                        w z '                       ",
"                                                                    u Y i.s.f l                     ",
"                                      X F W Q ~ E 9             m h s.n.x.O.i k   #.[ /             ",
"                                    & + R y.y.y.y.G 4 X       [  .k.v.6.[ ^ {   @.w I &.'           ",
"                                    4 @ L E E E R F 4 +       d d.c.7.>.s 2 n X.@.x =.l.g ]         ",
"                                    4 + F P L P P 9 4 +     x D z.8.1.#.t & @ q q / q.b.Z )         ",
"                                    6 + 6 4 @ 4 7 6 6 +     M $.w.<.o.| K 0 , s X.,.r.g.C           ",
"                                  o 5 + X + @ + + o 4 + * b r *.8.` e f P H ) ;.1.7.n.W c           ",
"                                E U : $ ; + + @ @ 8 > - J p.u.T *.t 2 G H < k :.3.t.f.|             ",
"                              9 a.Q : # 9 4 @ @ 6 6 : @ ! j.h.W d O + 6 3 a _ 2.w.-.V               ",
"                                Q P + + G L F F L 0 @ + R Q R F X @ 4 X * } 5.9.%.B )               ",
"                                  4 + + 0 G G G G 9 + o & 4 @ + + 0 6   M A S z M                   ",
"                                  . + + 0 G F F F 9 @ X X @ @ X 6 6       / N X.                    ",
"                                    @ X 9 F G G F 6 @ X X @ + + 4 4                                 ",
"                                    @ + 0 G F F G 9 @ X 4 9 6 F 6                                   ",
"                                    + + 0 G G G F 9 @ X 5 F F G 9                                   ",
"                                    @ o 7 9 9 9 9 4 + X + p F F 6                                   ",
"                                  . + o 6 9 0 9 9 & @ X X 9 5 6 +                                   ",
"                                  . @ X + @ + @ & + @ X X 6 4 &                                     ",
"                                  . + o @ 4 @ @ 4 + # X X                                           ",
"                                  X + X @ + + + @ + + o .                                           ",
"                                . + @ @ @ @ . X @ @ @ @ o                                           ",
"                                . @ @ 4 & @ . X 4 @ @ 4 +                                           ",
"                                . @ @ @ & + . . @ 4 @ @ + .                                         ",
"                                . + @ 4 @ + . . @ @ & @ o .                                         ",
"                                . + @ @ 4 X   . + @ & @ X                                           ",
"                                  X + + + X   . + @ + + .                                           ",
"                                9 L L G 9 @   X @ 9 f F 0 &                                         ",
"                                L y.u.y.P 4   . 9 E y.y.~ 0                                         ",
"                                L u.p.~ G +     4 E p.u.~ 0                                         ",
"                                F ~ p.E 6 .     X 0 u.u.E 9                                         ",
"                                F Q y.P 4 .     . 9 E y.E 6                                         ",
"                              X 0 P P F @       X 6 G R G @ X                                       ",
"                            . + @ @ 4 @ X       . X @ @ @ + X                                       ",
"                            . X + + + + X       . + @ + + + X                                       ",
"                              X X + + + X       . X + + + X .                                       ",
"                                  X X .             X X                                             ",
"                                                                                                    "
};
