/* XPM */
static char *_abb938651d54886f9580a86a123e5b6XeyTcYMtz0dzP8oY[] = {
/* columns rows colors chars-per-pixel */
"50 50 144 2 ",
"   c None",
".  c #050505",
"X  c #0B0B0B",
"o  c #15130A",
"O  c #0C1D18",
"+  c #141413",
"@  c #1B1A17",
"#  c #1B1B1B",
"$  c #0E241E",
"%  c #17221F",
"&  c #272411",
"*  c #282512",
"=  c #23221F",
"-  c #2E2B1C",
";  c #172D27",
":  c #093D2E",
">  c #063B2D",
",  c #12372D",
"<  c #163F33",
"1  c #242424",
"2  c #2B2B2B",
"3  c #383626",
"4  c #39382D",
"5  c #2E3131",
"6  c #343434",
"7  c #3B3B3B",
"8  c #403F3F",
"9  c #024A36",
"0  c #01493E",
"q  c #0D4D3D",
"w  c #164437",
"e  c #174538",
"r  c #1C4338",
"t  c #03523C",
"y  c #2C413A",
"u  c #3A403F",
"i  c #474334",
"p  c #045B43",
"a  c #195745",
"s  c #1F5E4C",
"d  c #155F4B",
"f  c #384944",
"g  c #2B5046",
"h  c #29564A",
"j  c #076047",
"k  c #00684C",
"l  c #086B4F",
"z  c #09654B",
"x  c #026E50",
"c  c #0A6B50",
"v  c #196C55",
"b  c #057052",
"n  c #067857",
"m  c #067D5C",
"M  c #087858",
"N  c #127D5F",
"B  c #147359",
"V  c #256F5B",
"C  c #286B59",
"Z  c #326659",
"A  c #0D7F64",
"S  c #177A60",
"D  c #2B7866",
"F  c #454545",
"G  c #4B4B4B",
"H  c #444C49",
"J  c #42544F",
"K  c #535453",
"L  c gray35",
"P  c #46675D",
"I  c #417E6E",
"U  c #636363",
"Y  c #6A6A6A",
"T  c #737373",
"R  c #7D7D7D",
"E  c #777C7B",
"W  c #0A8763",
"Q  c #048863",
"!  c #1A8667",
"~  c #168567",
"^  c #03966E",
"/  c #069D72",
"(  c #28876C",
")  c #21826B",
"_  c #219C79",
"`  c #37947C",
"'  c #07A176",
"]  c #68827D",
"[  c #379882",
"{  c #06B888",
"}  c #07B485",
"|  c #32A78C",
" . c #3AA88D",
".. c #3DB292",
"X. c #439B89",
"o. c #5B9082",
"O. c #768B89",
"+. c #639086",
"@. c #6A988E",
"#. c #79A69A",
"$. c #42BCA0",
"%. c #7CB5AB",
"&. c #7ABCB2",
"*. c #06C491",
"=. c #03CF98",
"-. c #03C893",
";. c #1FC599",
":. c #04DDA2",
">. c #19DEAB",
",. c #3FC3A3",
"<. c #21D6A7",
"1. c #0AE0A6",
"2. c #04E6A8",
"3. c #06E8AA",
"4. c #0DE4A9",
"5. c #18E6B0",
"6. c #30E1B1",
"7. c #53CCAE",
"8. c #4FD8BC",
"9. c #4ED4B5",
"0. c #67CAB2",
"q. c #68D8BD",
"w. c #22FAC0",
"e. c #2AFAC1",
"r. c #37FDC9",
"t. c #44F9CD",
"y. c #56FBD1",
"u. c #6AFDD8",
"i. c #848484",
"p. c #8B8A8A",
"a. c #939393",
"s. c #9C9C9C",
"d. c #83A69E",
"f. c #80BFAE",
"g. c #99B6B3",
"h. c #B4B3B3",
"j. c #89C8B9",
"k. c #8FDACB",
"l. c #90D3C3",
"z. c #A8D9D3",
"x. c #B2D6D1",
"c. c #85F4DA",
"v. c #93F4DE",
"b. c #A0E0D1",
/* pixels */
"                                                                                                    ",
"                                                                                                    ",
"                                                                                                    ",
"                                                                                                    ",
"                                                                                                    ",
"                                                                                                    ",
"                                                                                                    ",
"                                                                                                    ",
"                                                                                                    ",
"                                                                                                    ",
"                                                                                                    ",
"                                                                                                    ",
"                                                                                                    ",
"                                                                                                    ",
"                                                                                                    ",
"                                      F G G 7                                                       ",
"                                X + G i.i.i.R G . +                                                 ",
"                                + 1 K R i.i.E G + =                                                 ",
"                                + 1 G U U U U F @ 1                                                 ",
"                                @ 1 8 K G G G 7 + 1                                                 ",
"                                # 2 # # # @ @ # # 2                   n ~ ) C D h e t               ",
"                              o @ # @ + @ + + o + = &           ' j D o.j.b.j.k.z.g.] a             ",
"                          T R i & 3 4 # + # # 1 * - 8 i.E     p D X.q.u.t.r.6.>.7.@.O.r W           ",
"                        T h.h.K + @ 6 6 1 1 6 6 + @ Y h.h.J 9 V 8.r.>.1.2.=.^ 9 Q n 9 l             ",
"                      # U p.i.7 + # G L G G K 7 o # Y s.p.f : .. .A t v ` h ; ; A { *.  *.          ",
"                      . # 2 1 + + # 7 G G F F 6 + @ 5 K f   > , $ w y H U F # O k } / r C W         ",
"                      . + 1 # . X @ 6 G G F F 5 + + . .   1 2 @ X 5 K 7 g S k p t x _ d.#.!         ",
"                      . @ 1 = . + @ 6 F G F G 6 + + 2 8 6 5 6 # . O a 0 k -.:.3.4.6.v.x.P M         ",
"                      + 5 F 7 + X + 7 G G F G 6 + # 2 6         d [ | ;.5.w.r.y.c.l.#.D b           ",
"                      7 L U G 1 + # 7 G F F F 6 + @             z D $.9.7.0.&.f.+.Z ~               ",
"                    # 8 K K G 2 + # 2 6 6 6 6 1 + +             / n c ~ S v B                       ",
"                    X 1 2 2 1 X + + 1 7 6 5 5 # + +                                                 ",
"                      @ 1 # . . + + + # # # # + + + .                                               ",
"                      + # + . . + + # = # # # + + + .                                               ",
"                      X + + + . X + + + X + # # + + .                                               ",
"                        . X X . + + + X X # = % # + .                                               ",
"                              . + + + + X # # 1 # @ .                                               ",
"                              . X + + X X # 1 # # + .                                               ",
"                              + # # @ + . @ = # # + .                                               ",
"                              1 G G 8 5 + # 1 2 1 +                                                 ",
"                              1 K U U F + G T R Y 7                                                 ",
"                              # K L U 7 + L a.s.p.K #                                               ",
"                            . # G K G # X L a.s.p.L #                                               ",
"                            X # 2 6 1 . + K i.a.i.L #                                               ",
"                            X + + @ + +   8 E p.T G #                                               ",
"                            . + + + + X   1 G F 7 7 @                                               ",
"                              . X X X     @ # # @ # + .                                             ",
"                                        . + + X X X + X                                             ",
"                                          X + X X + X .                                             ",
"                                            X . X . .                                               "
};
